<svg width="20" height="21" viewBox="0 0 20 21" fill="none" xmlns="http://www.w3.org/2000/svg">
<g id="Assign recieved">
<path id="Vector" d="M14.1667 15.5002H17.5V13.8335H14.1667V12.1668L11.6667 14.6668L14.1667 17.1668V15.5002ZM9.16667 3.8335C7.33333 3.8335 5.83333 5.3335 5.83333 7.16683C5.83333 9.00016 7.33333 10.5002 9.16667 10.5002C11 10.5002 12.5 9.00016 12.5 7.16683C12.5 5.3335 11 3.8335 9.16667 3.8335ZM9.16667 12.1668C5.5 12.1668 2.5 13.6668 2.5 15.5002V17.1668H10.4167C10.1667 16.5002 10 15.8335 10 15.0835C10 14.0835 10.25 13.1668 10.75 12.2502C10.25 12.2502 9.75 12.1668 9.16667 12.1668Z" fill="white"/>
</g>
</svg>
