<svg width="155" height="32" viewBox="0 0 155 32" fill="none" xmlns="http://www.w3.org/2000/svg">
<path d="M114.714 4.927C114.714 4.51459 114.836 4.11143 115.065 3.76852C115.295 3.42561 115.62 3.15835 116.001 3.00052C116.382 2.8427 116.801 2.80141 117.206 2.88186C117.61 2.96232 117.982 3.16092 118.274 3.45254C118.565 3.74416 118.764 4.11571 118.844 4.5202C118.925 4.92469 118.883 5.34395 118.726 5.72497C118.568 6.10599 118.301 6.43166 117.958 6.66078C117.615 6.88991 117.212 7.0122 116.799 7.0122C116.248 7.00588 115.721 6.78416 115.332 6.39447C114.942 6.00478 114.72 5.47807 114.714 4.927Z" fill="#FBB516"/>
<path d="M89.3544 4.927C89.3616 4.37621 89.5836 3.85 89.9731 3.4605C90.3626 3.071 90.8888 2.849 91.4396 2.8418C91.9954 2.8418 92.5284 3.06259 92.9214 3.45559C93.3144 3.8486 93.5352 4.38163 93.5352 4.93742C93.5352 5.49322 93.3144 6.02625 92.9214 6.41926C92.5284 6.81226 91.9954 7.03305 91.4396 7.03305C90.8852 7.02576 90.3559 6.80088 89.9658 6.4069C89.5758 6.01292 89.3561 5.48141 89.3544 4.927Z" fill="#FBB516"/>
<path d="M54.052 4.927C54.0592 4.37621 54.2812 3.85 54.6707 3.4605C55.0602 3.071 55.5864 2.849 56.1372 2.8418C56.693 2.8418 57.226 3.06259 57.619 3.45559C58.012 3.8486 58.2328 4.38163 58.2328 4.93742C58.2328 5.49322 58.012 6.02625 57.619 6.41926C57.226 6.81226 56.693 7.03305 56.1372 7.03305C55.5828 7.02576 55.0535 6.80088 54.6635 6.4069C54.2734 6.01292 54.0538 5.48141 54.052 4.927Z" fill="#FBB516"/>
<path d="M57.8574 8.92383H54.4724V24.4899H57.8574V8.92383Z" fill="#012C3D"/>
<path d="M70.7579 8.52734C69.7193 8.53606 68.6944 8.76445 67.7504 9.19751C66.8064 9.63057 65.9647 10.2585 65.2807 11.04V8.92353H61.8958V24.493H65.2807V13.6291C65.7438 12.9998 66.3446 12.4847 67.0374 12.1233C67.7301 11.7619 68.4963 11.5637 69.2774 11.5439C71.1784 11.5439 72.4052 12.3502 72.4052 14.769V24.5H75.7901V13.5318C75.7867 10.3415 74.1185 8.52734 70.7579 8.52734Z" fill="#012C3D"/>
<path d="M84.0371 8.92352V8.05468C84.0371 6.31702 84.8747 5.44471 86.1953 5.44471C86.672 5.41931 87.145 5.5406 87.5507 5.79224L88.2909 3.2761C87.4544 2.85161 86.5248 2.6437 85.5871 2.67139C82.72 2.67139 80.6556 4.5724 80.6556 8.05468V8.92352H78.0769V11.888H80.6556V24.493H84.0406V11.888H89.7784V24.493H93.1633V8.92352H84.0371Z" fill="#012C3D"/>
<path d="M106.133 8.52734C105.094 8.53645 104.069 8.765 103.124 9.19801C102.18 9.63103 101.338 10.2587 100.653 11.04V8.92353H97.2677V24.493H100.653V13.6291C101.116 13 101.717 12.485 102.409 12.1236C103.102 11.7622 103.868 11.564 104.649 11.5439C106.55 11.5439 107.777 12.3502 107.777 14.769V24.5H111.159V13.5318C111.159 10.3415 109.484 8.52734 106.133 8.52734Z" fill="#012C3D"/>
<path d="M118.516 8.92383H115.131V24.4899H118.516V8.92383Z" fill="#012C3D"/>
<path d="M128.17 21.8798C127.204 21.8798 126.69 21.1083 126.69 20.0448V11.8882H129.849V8.92373H126.69V4.66992H123.305V8.92373H120.726V11.8882H123.305V20.8824C123.305 23.4611 124.695 24.879 127.302 24.879C128.879 24.879 129.88 24.4585 130.492 23.8781L129.686 21.3342C129.268 21.7019 128.727 21.897 128.17 21.8798Z" fill="#012C3D"/>
<path d="M144.039 8.92383L139.493 20.5905L134.937 8.92383H131.34L137.717 24.6845L136.946 26.4569C136.494 27.4995 135.785 27.8123 134.721 27.8123C134.279 27.8071 133.842 27.7199 133.432 27.5551L132.914 30.5821C133.54 30.7204 134.178 30.7961 134.819 30.808C137.238 30.7698 139.107 29.9392 140.171 27.2945L147.681 8.92383H144.039Z" fill="#012C3D"/>
<path d="M43.341 7.85698L44.6755 9.3201L47.6261 6.63366C46.4708 4.97119 44.9315 3.61192 43.1389 2.67113C41.3463 1.73035 39.3532 1.23583 37.3287 1.22951C34.2711 1.22208 31.3256 2.38038 29.0921 4.46853C26.8193 6.55373 25.1163 9.42088 23.4378 12.1977C21.9468 14.686 20.4038 17.2612 18.5132 19.1727C17.0119 20.6914 14.9475 21.456 12.3758 21.456C10.2199 21.456 8.15228 20.5995 6.62783 19.0751C5.10338 17.5506 4.24696 15.4831 4.24696 13.3272C4.24696 11.1713 5.10338 9.10367 6.62783 7.57922C8.15228 6.05477 10.2199 5.19835 12.3758 5.19835C16.1674 5.19835 18.7044 7.97862 19.5975 9.1359L21.7696 5.63276C20.4754 4.05357 18.803 2.82719 16.9078 2.06759C15.0126 1.308 12.9561 1.03986 10.9295 1.28809C8.90288 1.53631 6.97191 2.29285 5.31606 3.48739C3.6602 4.68192 2.33321 6.27568 1.45841 8.12054C0.583604 9.9654 0.189393 12.0015 0.312411 14.0395C0.435429 16.0776 1.07168 18.0514 2.16204 19.7777C3.25239 21.5039 4.76145 22.9265 6.54897 23.9132C8.33649 24.8999 10.3444 25.4187 12.3862 25.4213C16.004 25.4213 19.0971 24.2258 21.3387 21.946C23.5802 19.6662 25.2241 16.9276 26.854 14.2377C28.4839 11.5478 29.9401 9.08725 31.7994 7.38433C32.5862 6.65008 33.5109 6.07936 34.52 5.70528C35.5291 5.33121 36.6024 5.16122 37.6777 5.20519C38.7529 5.24916 39.8088 5.50621 40.784 5.96142C41.7591 6.41663 42.6342 7.06094 43.3584 7.85698H43.341Z" fill="#FBB516"/>
<path d="M36.4042 12.2673V16.2326H44.9257L44.8215 16.4863C44.2016 17.9618 43.1591 19.221 41.8252 20.1053C40.4913 20.9896 38.9256 21.4596 37.3252 21.456C36.2826 21.456 34.6179 21.1085 32.4597 19.3708C31.7511 18.8034 31.0908 18.178 30.4857 17.5011L28.2823 21.0911C29.457 22.4813 32.5362 25.4214 37.3182 25.4214C40.3303 25.4807 43.254 24.4023 45.5061 22.4013C47.392 20.7677 48.71 18.5771 49.2699 16.1457C49.5908 14.876 49.6896 13.5603 49.5618 12.2568L36.4042 12.2673Z" fill="#FBB516"/>
<path d="M152.915 11.0033C152.915 11.2874 152.861 11.5563 152.754 11.8097C152.646 12.0632 152.498 12.2859 152.31 12.4779C152.122 12.6661 151.899 12.8158 151.642 12.9272C151.388 13.0385 151.116 13.0942 150.824 13.0942C150.532 13.0942 150.259 13.0405 150.006 12.9329C149.752 12.8216 149.532 12.6718 149.343 12.4836C149.159 12.2955 149.013 12.0747 148.906 11.8212C148.798 11.5678 148.744 11.299 148.744 11.0148C148.744 10.7306 148.798 10.4618 148.906 10.2084C149.013 9.95491 149.161 9.7341 149.349 9.54593C149.537 9.35392 149.758 9.20224 150.012 9.09087C150.269 8.97951 150.543 8.92383 150.835 8.92383C151.127 8.92383 151.4 8.97951 151.653 9.09087C151.907 9.1984 152.126 9.34624 152.31 9.53441C152.498 9.72258 152.646 9.94339 152.754 10.1968C152.861 10.4503 152.915 10.7191 152.915 11.0033ZM152.696 11.0033C152.696 10.746 152.648 10.504 152.552 10.2775C152.46 10.0471 152.329 9.84738 152.16 9.67842C151.995 9.50945 151.799 9.37697 151.573 9.28096C151.346 9.18112 151.1 9.1312 150.835 9.1312C150.57 9.1312 150.323 9.18112 150.092 9.28096C149.866 9.38081 149.668 9.51521 149.499 9.68418C149.334 9.85314 149.203 10.0528 149.107 10.2832C149.011 10.5136 148.963 10.7575 148.963 11.0148C148.963 11.2759 149.009 11.5198 149.102 11.7463C149.198 11.9729 149.328 12.1707 149.493 12.3396C149.662 12.5086 149.86 12.643 150.087 12.7429C150.313 12.8389 150.559 12.8869 150.824 12.8869C151.089 12.8869 151.335 12.8369 151.561 12.7371C151.792 12.6373 151.989 12.5028 152.154 12.3339C152.323 12.1649 152.456 11.9671 152.552 11.7406C152.648 11.5102 152.696 11.2644 152.696 11.0033ZM151.803 10.554C151.803 10.7345 151.755 10.8804 151.659 10.9917C151.567 11.0993 151.446 11.1742 151.296 11.2164L151.884 12.0401H151.388L150.858 11.2855H150.403V12.0401H149.989V9.85698H150.962C151.216 9.85698 151.419 9.91843 151.573 10.0413C151.726 10.1642 151.803 10.3351 151.803 10.554ZM151.377 10.577C151.377 10.4656 151.338 10.3812 151.262 10.3236C151.185 10.2621 151.079 10.2314 150.945 10.2314H150.403V10.9226H150.945C151.079 10.9226 151.185 10.8919 151.262 10.8305C151.338 10.769 151.377 10.6845 151.377 10.577Z" fill="#012C3D"/>
</svg>
