<svg width="24" height="10" viewBox="0 0 24 10" fill="none" xmlns="http://www.w3.org/2000/svg">
<path d="M23.7164 0.617042C23.4217 0.225269 22.9929 0 22.5284 0H1.58986C1.12536 0 0.696583 0.225269 0.401801 0.617042C0.107018 1.00881 -0.000175909 1.51812 0.0891522 2.01763L1.33975 8.65818C1.48267 9.43193 2.1169 10 2.84046 10H21.2778C22.0013 10 22.6356 9.43193 22.7785 8.65818L24.0291 2.01763C24.1184 1.52791 24.0023 1.01861 23.7164 0.617042ZM3.53722 8.4525C3.10844 8.4525 2.769 8.07052 2.769 7.61019C2.769 7.14006 3.11737 6.76787 3.53722 6.76787C3.96599 6.76787 4.30544 7.14985 4.30544 7.61019C4.31437 8.08031 3.96599 8.4525 3.53722 8.4525ZM3.53722 3.25171C3.10844 3.25171 2.769 2.86974 2.769 2.4094C2.769 1.93928 3.11737 1.56709 3.53722 1.56709C3.96599 1.56709 4.30544 1.94907 4.30544 2.4094C4.31437 2.86974 3.96599 3.25171 3.53722 3.25171ZM5.60963 5.84721C5.18085 5.84721 4.84141 5.46523 4.84141 5.0049C4.84141 4.53477 5.18979 4.16259 5.60963 4.16259C6.02947 4.16259 6.37785 4.54456 6.37785 5.0049C6.37785 5.47502 6.02947 5.84721 5.60963 5.84721ZM7.3158 8.4525C6.88702 8.4525 6.54758 8.07052 6.54758 7.61019C6.54758 7.14006 6.89595 6.76787 7.3158 6.76787C7.74457 6.76787 8.08402 7.14985 8.08402 7.61019C8.09295 8.08031 7.74457 8.4525 7.3158 8.4525ZM7.3158 3.25171C6.88702 3.25171 6.54758 2.86974 6.54758 2.4094C6.54758 1.93928 6.89595 1.56709 7.3158 1.56709C7.74457 1.56709 8.08402 1.94907 8.08402 2.4094C8.09295 2.86974 7.74457 3.25171 7.3158 3.25171ZM9.37928 5.84721C8.9505 5.84721 8.61105 5.46523 8.61105 5.0049C8.61105 4.53477 8.95943 4.16259 9.37928 4.16259C9.80805 4.16259 10.1475 4.54456 10.1475 5.0049C10.1564 5.47502 9.80805 5.84721 9.37928 5.84721ZM11.0944 8.4525C10.6656 8.4525 10.3262 8.07052 10.3262 7.61019C10.3262 7.14006 10.6745 6.76787 11.0944 6.76787C11.5142 6.76787 11.8626 7.14985 11.8626 7.61019C11.8626 8.08031 11.5232 8.4525 11.0944 8.4525ZM11.0944 3.25171C10.6656 3.25171 10.3262 2.86974 10.3262 2.4094C10.3262 1.93928 10.6745 1.56709 11.0944 1.56709C11.5142 1.56709 11.8626 1.94907 11.8626 2.4094C11.8626 2.86974 11.5232 3.25171 11.0944 3.25171ZM13.1579 5.84721C12.7291 5.84721 12.3896 5.46523 12.3896 5.0049C12.3896 4.53477 12.738 4.16259 13.1579 4.16259C13.5777 4.16259 13.9261 4.54456 13.9261 5.0049C13.935 5.47502 13.5866 5.84721 13.1579 5.84721ZM14.873 8.4525C14.4442 8.4525 14.1047 8.07052 14.1047 7.61019C14.1047 7.14006 14.4531 6.76787 14.873 6.76787C15.3017 6.76787 15.6412 7.14985 15.6412 7.61019C15.6412 8.08031 15.3017 8.4525 14.873 8.4525ZM14.873 3.25171C14.4442 3.25171 14.1047 2.86974 14.1047 2.4094C14.1047 1.93928 14.4531 1.56709 14.873 1.56709C15.3017 1.56709 15.6412 1.94907 15.6412 2.4094C15.6412 2.86974 15.3017 3.25171 14.873 3.25171ZM16.9364 5.84721C16.5077 5.84721 16.1682 5.46523 16.1682 5.0049C16.1682 4.53477 16.5166 4.16259 16.9364 4.16259C17.3652 4.16259 17.7047 4.54456 17.7047 5.0049C17.7047 5.47502 17.3652 5.84721 16.9364 5.84721ZM18.6515 8.4525C18.2228 8.4525 17.8833 8.07052 17.8833 7.61019C17.8833 7.14006 18.2317 6.76787 18.6515 6.76787C19.0803 6.76787 19.4198 7.14985 19.4198 7.61019C19.4198 8.08031 19.0714 8.4525 18.6515 8.4525ZM18.6515 3.25171C18.2228 3.25171 17.8833 2.86974 17.8833 2.4094C17.8833 1.93928 18.2317 1.56709 18.6515 1.56709C19.0803 1.56709 19.4198 1.94907 19.4198 2.4094C19.4198 2.86974 19.0714 3.25171 18.6515 3.25171ZM20.715 5.84721C20.2862 5.84721 19.9468 5.46523 19.9468 5.0049C19.9468 4.53477 20.2952 4.16259 20.715 4.16259C21.1438 4.16259 21.4832 4.54456 21.4832 5.0049C21.4832 5.47502 21.1438 5.84721 20.715 5.84721Z" fill="#28519E"/>
</svg>
