<svg width="24" height="24" viewBox="0 0 24 24" fill="none" xmlns="http://www.w3.org/2000/svg">
<g id="Icons">
<path id="Vector" d="M14.6466 9.38355V7.73851C14.6466 7.54265 14.5688 7.3548 14.4303 7.21631C14.2918 7.07781 14.104 7 13.9081 7H8.73851C8.54265 7 8.3548 7.07781 8.21631 7.21631C8.07781 7.3548 8 7.54265 8 7.73851V9.40017C8.00025 9.51477 8.02705 9.62776 8.07831 9.73027C8.12956 9.83278 8.20387 9.92202 8.29541 9.99098L10.708 11.8003L8.29541 13.6097C8.20387 13.6787 8.12956 13.7679 8.07831 13.8704C8.02705 13.9729 8.00025 14.0859 8 14.2005V15.8622C8 16.058 8.07781 16.2459 8.21631 16.3844C8.3548 16.5229 8.54265 16.6007 8.73851 16.6007H13.9081C14.104 16.6007 14.2918 16.5229 14.4303 16.3844C14.5688 16.2459 14.6466 16.058 14.6466 15.8622V14.2171C14.6464 14.103 14.6198 13.9904 14.5689 13.8882C14.5181 13.7859 14.4444 13.6968 14.3535 13.6277L11.9358 11.8003L14.3535 9.97298C14.4444 9.90387 14.5181 9.81474 14.5689 9.71251C14.6198 9.61029 14.6464 9.49772 14.6466 9.38355ZM13.9081 7.73851V8.84628H8.73851V7.73851H13.9081ZM13.9081 15.8622H8.73851V14.2005L11.3233 12.2619L13.9081 14.2167V15.8622Z" fill="#343435"/>
<path id="Vector_2" d="M21.506 4.46132C21.3598 4.40068 21.1989 4.38475 21.0437 4.41555C20.8885 4.44634 20.7459 4.52248 20.6339 4.63434L19.3998 5.87142C19.0768 5.5204 18.7438 5.17137 18.3897 4.81235C17.0555 3.47796 15.3576 2.56635 13.5082 2.19142C11.6589 1.81649 9.73999 1.99487 7.99141 2.70427C6.24282 3.41367 4.74206 4.62263 3.67665 6.18009C2.61124 7.73755 2.02842 9.57444 2.00101 11.4612C1.97361 13.3481 2.50284 15.2011 3.52257 16.7888C4.5423 18.3766 6.00731 19.6286 7.73455 20.3885C9.4618 21.1484 11.3747 21.3824 13.2342 21.0614C15.0937 20.7403 16.8173 19.8784 18.1897 18.5833C18.2662 18.5111 18.3276 18.4245 18.3706 18.3285C18.4136 18.2325 18.4372 18.129 18.4402 18.0239C18.4432 17.9188 18.4254 17.8141 18.3879 17.7158C18.3504 17.6176 18.294 17.5277 18.2217 17.4512C18.1495 17.3748 18.0629 17.3133 17.9669 17.2704C17.871 17.2274 17.7674 17.2037 17.6623 17.2008C17.5572 17.1978 17.4525 17.2156 17.3543 17.253C17.256 17.2905 17.1661 17.347 17.0897 17.4192C15.9461 18.4983 14.5099 19.2165 12.9605 19.4841C11.4111 19.7516 9.8172 19.5567 8.37793 18.9237C6.93867 18.2907 5.71782 17.2476 4.86792 15.9248C4.01802 14.602 3.57674 13.0581 3.5992 11.4859C3.62166 9.91374 4.10688 8.38305 4.99423 7.08505C5.88158 5.78704 7.13172 4.77928 8.58849 4.18764C10.0453 3.59601 11.6441 3.44673 13.1852 3.75847C14.7263 4.0702 16.1414 4.82912 17.2537 5.94043C17.6077 6.29845 17.9407 6.65048 18.2647 7.0035L16.6336 8.63462C16.5216 8.74651 16.4453 8.88912 16.4144 9.0444C16.3835 9.19968 16.3993 9.36064 16.4599 9.50691C16.5205 9.65318 16.6232 9.77818 16.7548 9.86608C16.8865 9.95398 17.0413 10.0008 17.1997 10.0007H21.1999C21.4121 10.0007 21.6156 9.91642 21.7657 9.76638C21.9157 9.61634 22 9.41284 22 9.20066V5.20038C22 5.04214 21.953 4.88747 21.8651 4.75592C21.7771 4.62437 21.6522 4.52185 21.506 4.46132Z" fill="#343435"/>
</g>
</svg>
