<svg width="20" height="20" viewBox="0 0 20 20" fill="none" xmlns="http://www.w3.org/2000/svg">
<g id="Icons">
<path id="&#239;&#148;&#161;" d="M17.9682 6.66447C17.9682 7.27598 17.4896 7.72796 16.9047 7.72796C16.8781 7.72796 16.8781 7.72796 16.8781 7.72796L15.5222 15.1192C15.469 15.518 15.0968 15.8104 14.698 15.8104H5.89766C5.49885 15.8104 5.12663 15.518 5.07345 15.1192L3.71751 7.72796C3.71751 7.72796 3.71751 7.72796 3.69093 7.72796C3.10601 7.72796 2.62744 7.27598 2.62744 6.66447C2.62744 6.07956 3.10601 5.60099 3.69093 5.60099C4.24925 5.60099 4.75441 6.07956 4.75441 6.66447C4.75441 6.90376 4.64806 7.11645 4.51513 7.30256L6.90797 9.21683C7.33336 9.53588 7.94486 9.40294 8.18415 8.92438L9.7262 5.86686C9.43374 5.68075 9.22104 5.3617 9.22104 4.9629C9.22104 4.37798 9.69961 3.89941 10.3111 3.89941C10.896 3.89941 11.348 4.37798 11.348 4.9629C11.348 5.3617 11.1353 5.68075 10.8163 5.86686L12.3583 8.92438C12.5976 9.40294 13.2357 9.53588 13.6611 9.21683L16.0273 7.30256C15.921 7.11645 15.8412 6.90376 15.8412 6.66447C15.8412 6.07956 16.2932 5.60099 16.9047 5.60099C17.4896 5.60099 17.9682 6.07956 17.9682 6.66447Z" fill="#28519E"/>
</g>
</svg>
