<svg width="17" height="22" viewBox="0 0 17 22" fill="none" xmlns="http://www.w3.org/2000/svg">
<path d="M15.0852 15.9986V17.5216C15.0852 19.9487 13.1016 21.9323 10.6742 21.9323H6.33427C3.9024 21.9323 1.91481 19.9447 1.91481 17.5128V9.90635H0V3.79633H4.98646V9.90635H3.07165V17.5128C3.07165 19.3061 4.54104 20.7755 6.33427 20.7755H10.6742C12.4626 20.7755 13.9283 19.31 13.9283 17.5216V15.9986H12.0135V9.88857H17V15.9986H15.0852ZM4.16023 0H0.826234V3.14838H4.16023V0ZM1.4945 0.7244H3.49196V1.37236H1.4945V0.7244ZM16.1738 6.09224H12.8398V9.24062H16.1738V6.09224ZM13.508 6.81664H15.5055V7.4646H13.508V6.81664Z" fill="#28519E"/>
</svg>
