<svg width="22" height="20" viewBox="0 0 22 20" fill="none" xmlns="http://www.w3.org/2000/svg">
<path d="M2.75001 0.57135C1.4499 0.57135 0.392864 1.62838 0.392864 2.92849V13.5356C0.392864 14.8357 1.4499 15.8928 2.75001 15.8928H9.23215L8.83807 17.0714H6.28572C5.63382 17.0714 5.10715 17.598 5.10715 18.2499C5.10715 18.9018 5.63382 19.4285 6.28572 19.4285H15.7143C16.3662 19.4285 16.8929 18.9018 16.8929 18.2499C16.8929 17.598 16.3662 17.0714 15.7143 17.0714H13.162L12.7679 15.8928H19.25C20.5501 15.8928 21.6072 14.8357 21.6072 13.5356V2.92849C21.6072 1.62838 20.5501 0.57135 19.25 0.57135H2.75001ZM19.25 2.92849V11.1785H2.75001V2.92849H19.25Z" fill="#28519E"/>
</svg>
