<svg width="16" height="16" viewBox="0 0 16 16" fill="none" xmlns="http://www.w3.org/2000/svg">
<path d="M1.40657 11.9117C0.663353 11.9117 0.0765991 11.3249 0.0765991 10.5817V1.50658C0.0765991 0.763355 0.663353 0.176601 1.40657 0.176601H14.3934C15.1366 0.176601 15.7234 0.763355 15.7234 1.50658V10.5817C15.7234 11.3249 15.1366 11.9117 14.3934 11.9117H1.40657ZM9.84279 14.6499L11.7986 15.041V15.8234H4.00133V15.041L5.95717 14.6499C6.35486 14.5651 6.59608 14.2717 6.59608 13.8675V13.2156H9.20388V13.8675C9.20388 14.2717 9.4451 14.5651 9.84279 14.6499ZM11.1597 5.70512V3.36463C11.1597 3.03866 10.8989 2.7844 10.5534 2.7844H8.24551L9.24299 3.78188L5.63772 7.38063L4.64024 6.38315V8.72365C4.64024 9.04962 4.90102 9.30388 5.24655 9.30388H7.55445L6.55697 8.3064L10.1622 4.70764L11.1597 5.70512Z" fill="#28519E"/>
</svg>
