<svg width="20" height="20" viewBox="0 0 20 20" fill="none" xmlns="http://www.w3.org/2000/svg">
<g id="Icons">
<path id="&#239;&#152;&#159;" d="M14.4609 7.47474C14.6279 7.75302 14.6279 8.08694 14.4609 8.36522C14.3218 8.64349 14.0157 8.81045 13.7096 8.81045H8.36676C8.03283 8.81045 7.72673 8.64349 7.58759 8.36522C7.42063 8.08694 7.42063 7.75302 7.58759 7.47474L10.259 3.02238C10.426 2.74411 10.7042 2.57715 11.0382 2.57715C11.3443 2.57715 11.6225 2.74411 11.7895 3.02238L14.4609 7.47474ZM11.0382 11.2592C11.0382 10.647 11.5112 10.1462 12.1513 10.1462H16.1584C16.7706 10.1462 17.2715 10.647 17.2715 11.2592V15.2664C17.2715 15.9064 16.7706 16.3795 16.1584 16.3795H12.1513C11.5112 16.3795 11.0382 15.9064 11.0382 15.2664V11.2592ZM3.02393 13.2628C3.02393 11.3149 4.61008 9.70092 6.58581 9.70092C8.53372 9.70092 10.1477 11.3149 10.1477 13.2628C10.1477 15.2385 8.53372 16.8247 6.58581 16.8247C4.61008 16.8247 3.02393 15.2385 3.02393 13.2628Z" fill="#28519E"/>
</g>
</svg>
