<svg width="22" height="21" viewBox="0 0 22 21" fill="none" xmlns="http://www.w3.org/2000/svg">
<g id="apple">
<path id="apple_2" d="M15.1409 10.808C15.1409 10.8883 15.0304 13.2589 17.4244 14.5044C16.9824 15.991 15.4355 19.2856 13.6309 19.2856C12.5996 19.2856 12.0103 18.5624 10.8318 18.5624C9.61635 18.5624 8.9534 19.2856 8.03265 19.2856C6.26479 19.366 4.57059 15.7499 4.0918 14.2633C3.72349 13.1383 3.57617 12.0535 3.57617 11.0089C3.57617 7.43297 5.74916 5.70529 7.81166 5.66511C8.80608 5.66511 10.0583 6.4285 10.6108 6.4285C11.1264 6.4285 12.5628 5.5044 13.8887 5.62493C15.2514 5.74547 16.2826 6.30797 16.9824 7.39279C15.767 8.23654 15.1409 9.32136 15.1409 10.808ZM13.0784 4.21868C12.3418 5.14279 11.4579 5.66511 10.5003 5.58475C10.4266 4.49993 10.7949 3.49547 11.4579 2.69189C12.0472 1.96868 13.0784 1.366 13.9623 1.28564C13.9623 1.72761 14.0728 2.93297 13.0784 4.21868Z" fill="#28519E"/>
</g>
</svg>
