<svg width="17" height="16" viewBox="0 0 17 16" fill="none" xmlns="http://www.w3.org/2000/svg">
<g id="CalendarBlank">
<path id="Vector" d="M13.5 2H12V1.5C12 1.36739 11.9473 1.24021 11.8536 1.14645C11.7598 1.05268 11.6326 1 11.5 1C11.3674 1 11.2402 1.05268 11.1464 1.14645C11.0527 1.24021 11 1.36739 11 1.5V2H6V1.5C6 1.36739 5.94732 1.24021 5.85355 1.14645C5.75979 1.05268 5.63261 1 5.5 1C5.36739 1 5.24021 1.05268 5.14645 1.14645C5.05268 1.24021 5 1.36739 5 1.5V2H3.5C3.23478 2 2.98043 2.10536 2.79289 2.29289C2.60536 2.48043 2.5 2.73478 2.5 3V13C2.5 13.2652 2.60536 13.5196 2.79289 13.7071C2.98043 13.8946 3.23478 14 3.5 14H13.5C13.7652 14 14.0196 13.8946 14.2071 13.7071C14.3946 13.5196 14.5 13.2652 14.5 13V3C14.5 2.73478 14.3946 2.48043 14.2071 2.29289C14.0196 2.10536 13.7652 2 13.5 2ZM5 3V3.5C5 3.63261 5.05268 3.75979 5.14645 3.85355C5.24021 3.94732 5.36739 4 5.5 4C5.63261 4 5.75979 3.94732 5.85355 3.85355C5.94732 3.75979 6 3.63261 6 3.5V3H11V3.5C11 3.63261 11.0527 3.75979 11.1464 3.85355C11.2402 3.94732 11.3674 4 11.5 4C11.6326 4 11.7598 3.94732 11.8536 3.85355C11.9473 3.75979 12 3.63261 12 3.5V3H13.5V5H3.5V3H5ZM13.5 13H3.5V6H13.5V13Z" fill="#343435"/>
</g>
</svg>
