<svg width="17" height="16" viewBox="0 0 17 16" fill="none" xmlns="http://www.w3.org/2000/svg">
<g id="Check mark">
<path id="Vector" d="M8.49967 1.33337C4.83301 1.33337 1.83301 4.33337 1.83301 8.00004C1.83301 11.6667 4.83301 14.6667 8.49967 14.6667C12.1663 14.6667 15.1663 11.6667 15.1663 8.00004C15.1663 4.33337 12.1663 1.33337 8.49967 1.33337ZM8.49967 13.3334C5.55967 13.3334 3.16634 10.94 3.16634 8.00004C3.16634 5.06004 5.55967 2.66671 8.49967 2.66671C11.4397 2.66671 13.833 5.06004 13.833 8.00004C13.833 10.94 11.4397 13.3334 8.49967 13.3334ZM11.5597 5.05337L7.16634 9.44671L5.43967 7.72671L4.49967 8.66671L7.16634 11.3334L12.4997 6.00004L11.5597 5.05337Z" fill="#6D6D6D"/>
</g>
</svg>
