<svg width="32" height="32" viewBox="0 0 32 32" fill="none" xmlns="http://www.w3.org/2000/svg">
<path d="M21.0384 1.05201C19.5224 1.29178 18.0992 1.9415 17.0396 2.86966C16.3589 3.47297 16.2738 3.76689 16.6528 4.15362C17.0318 4.53262 17.1711 4.48621 18.1843 3.6586C20.5125 1.7636 24.0781 1.87962 26.3908 3.94479C26.94 4.43981 27.1952 4.49395 27.5356 4.1923C27.8836 3.89838 27.8372 3.53485 27.4118 3.09397C26.6074 2.28183 25.3002 1.5625 24.0163 1.23764C23.1732 1.02107 21.7887 0.935989 21.0384 1.05201Z" fill="#28519E"/>
<path d="M21.0693 4.5713C20.4273 4.74919 19.7312 5.11273 19.298 5.50719C18.9577 5.81658 18.9036 5.90166 18.9036 6.14917C18.9036 6.45856 19.1047 6.71381 19.4218 6.80662C19.6229 6.8685 19.7853 6.79115 20.2881 6.41215C20.7986 6.01769 21.2626 5.83979 21.8969 5.79338C22.6162 5.73924 23.351 5.95581 23.9002 6.39669C24.372 6.77569 24.5886 6.8685 24.8283 6.80662C25.0759 6.74475 25.3234 6.41989 25.3234 6.14917C25.3234 5.72377 24.5035 5.05085 23.5444 4.70279C22.8947 4.46301 21.6958 4.40113 21.0693 4.5713Z" fill="#28519E"/>
<path d="M22.9256 14.4087C21.0074 14.7259 19.6074 15.9402 19.0428 17.7811C18.919 18.2065 18.9036 18.5855 18.9036 22.3445C18.9036 26.9699 18.8958 26.8925 19.4991 28.1069C19.9632 29.0428 20.8837 29.9632 21.8041 30.4118C22.7632 30.8836 23.2969 31.0074 24.3565 30.9997C25.0913 30.9919 25.3543 30.9533 25.8648 30.7908C26.7388 30.5046 27.3963 30.0947 28.0692 29.4218C28.7498 28.7411 29.0747 28.2152 29.415 27.2793L29.6548 26.5986L29.678 22.6153C29.7012 19.2584 29.6857 18.5313 29.5852 18.0518C29.2449 16.4043 27.9686 15.043 26.2902 14.5325C25.8029 14.3855 23.5753 14.3082 22.9256 14.4087ZM24.7046 18.7092C24.8902 18.8871 24.898 18.949 24.898 19.7534C24.898 20.6042 24.898 20.6197 24.6737 20.844C24.5344 20.9755 24.3643 21.0683 24.2405 21.0683C24.1168 21.0683 23.9466 20.9755 23.8074 20.844C23.5908 20.6197 23.5831 20.5965 23.5831 19.8308C23.5831 19.0496 23.6836 18.6551 23.9079 18.57C24.1709 18.4617 24.5267 18.5236 24.7046 18.7092Z" fill="#28519E"/>
<path fill-rule="evenodd" clip-rule="evenodd" d="M21.7916 13.3593C19.9728 13.9004 18.6256 15.1734 17.9735 16.9876C17.8807 16.9859 17.7718 16.9855 17.6427 16.9855C16.9465 16.9855 16.8228 17.0087 16.6758 17.1402C16.4515 17.349 16.3896 17.6274 16.5211 17.8827C16.6836 18.2308 16.9233 18.3081 17.7277 18.2849C17.7319 18.2848 17.736 18.2846 17.7401 18.2845C17.7157 18.8209 17.7062 19.6755 17.703 21.1691C16.8973 21.1646 15.9623 21.1622 14.9123 21.1622H8.9102L8.68589 21.3865C8.44611 21.6263 8.40744 21.8429 8.5544 22.1136C8.57834 22.1595 8.59612 22.1996 8.6211 22.2345C8.79781 22.4814 9.33485 22.4703 14.9665 22.4771C16.0635 22.4771 16.963 22.4771 17.7016 22.4761C17.7015 22.6052 17.7015 22.7378 17.7015 22.874C17.7015 24.134 17.7011 25.1086 17.7085 25.8789C16.8529 25.8799 15.9263 25.8804 14.9278 25.8804C4.7876 25.8804 4.60197 25.8804 4.10695 25.7257C3.45723 25.5246 2.83846 24.9831 2.52907 24.3489L2.3125 23.908V17.2175V10.527L2.5136 10.1016C2.83846 9.40547 3.4263 8.89498 4.16883 8.66294C4.41634 8.58559 6.69034 8.57012 15.1134 8.57786L25.7486 8.59332L26.1895 8.8099C26.7387 9.08061 27.2646 9.65298 27.5044 10.2408L27.6823 10.6817V13.6988C27.3809 13.5478 27.0641 13.4208 26.7347 13.3206C26.3483 13.2041 25.0672 13.1233 23.9975 13.1145C23.9393 13.0372 23.8622 12.9716 23.7685 12.9248C23.5288 12.7933 22.4614 12.7701 22.1829 12.8861C21.9691 12.9716 21.8334 13.1569 21.7916 13.3593ZM8.1522 13.6982C8.26048 13.4043 8.12899 13.0717 7.83507 12.9248C7.5953 12.7933 6.52791 12.7701 6.24946 12.8861C5.82405 13.0562 5.70803 13.6209 6.02515 13.9303C6.19532 14.1082 6.26493 14.1236 7.00746 14.1236C7.87375 14.1159 8.01297 14.0695 8.1522 13.6982ZM13.3267 13.9225C13.551 13.6363 13.5355 13.2651 13.288 13.033C13.1179 12.8706 13.0096 12.8474 12.4217 12.8242C11.7102 12.8087 11.308 12.917 11.2151 13.1568C11.1146 13.4352 11.1687 13.7833 11.3466 13.9535C11.5091 14.1082 11.6096 14.1236 12.3444 14.1236C13.1411 14.1236 13.172 14.1159 13.3267 13.9225ZM18.6327 13.9303C18.8802 13.6905 18.8802 13.3502 18.6404 13.064C18.4625 12.8629 18.4161 12.8474 17.7277 12.8242C17.1167 12.8087 16.9697 12.8242 16.7609 12.9557C16.4593 13.1413 16.3742 13.4817 16.5366 13.7988C16.6913 14.1004 16.7686 14.1236 17.6736 14.1236C18.3929 14.1236 18.4625 14.1082 18.6327 13.9303ZM8.11352 17.9136C8.25275 17.6429 8.21407 17.4186 7.9743 17.1556C7.82734 17.0009 7.74999 16.9855 7.01519 16.9855C6.26493 16.9855 6.19532 17.0009 6.02515 17.1788C5.75444 17.4418 5.76991 17.7821 6.05609 18.0761C6.27266 18.2849 6.31907 18.3004 6.94558 18.3004C7.73452 18.3004 7.95109 18.2308 8.11352 17.9136ZM13.4891 17.6197C13.4891 17.4496 13.4273 17.3026 13.2958 17.1788C13.1256 17.0009 13.056 16.9855 12.3057 16.9855C11.5709 16.9855 11.4936 17.0009 11.3389 17.1634C11.1687 17.3413 11.1146 17.6893 11.2151 17.9523C11.308 18.1843 11.6792 18.3004 12.3289 18.3004C13.1875 18.3004 13.4814 18.1302 13.4891 17.6197Z" fill="#28519E"/>
</svg>
