<svg width="21" height="21" viewBox="0 0 21 21" fill="none" xmlns="http://www.w3.org/2000/svg">
<g id="desktop-solid 1" clip-path="url(#clip0_1446_398)">
<path id="Vector" d="M1.74972 0.571289C0.449609 0.571289 -0.607422 1.62832 -0.607422 2.92843V13.5356C-0.607422 14.8357 0.449609 15.8927 1.74972 15.8927H8.23186L7.83778 17.0713H5.28544C4.63354 17.0713 4.10686 17.598 4.10686 18.2499C4.10686 18.9018 4.63354 19.4284 5.28544 19.4284H14.714C15.3659 19.4284 15.8926 18.9018 15.8926 18.2499C15.8926 17.598 15.3659 17.0713 14.714 17.0713H12.1617L11.7676 15.8927H18.2497C19.5498 15.8927 20.6069 14.8357 20.6069 13.5356V2.92843C20.6069 1.62832 19.5498 0.571289 18.2497 0.571289H1.74972ZM18.2497 2.92843V11.1784H1.74972V2.92843H18.2497Z" fill="#28519E"/>
</g>
<defs>
<clipPath id="clip0_1446_398">
<rect width="20.5714" height="20.5714" fill="white"/>
</clipPath>
</defs>
</svg>
