<svg width="32" height="32" viewBox="0 0 32 32" fill="none" xmlns="http://www.w3.org/2000/svg">
<g id="Icons">
<rect id="Rectangle" width="32" height="32" rx="4" fill="#F5F7FA"/>
<path id="Vector" d="M11.6291 8.89404C10.4194 10.1126 10.4194 12.0728 11.6291 13.2826L19.1258 20.7704C19.638 21.2914 19.638 22.1391 19.1258 22.6424C18.6049 23.1634 17.766 23.1634 17.245 22.6424L13.5011 18.8985L14.4371 17.9625L11.3201 14.8366L11.0022 15.1545L9.75717 13.9007C9.4128 13.5563 8.85651 13.5563 8.49448 13.9007L7.25828 15.1545C6.91391 15.5166 6.91391 16.0552 7.25828 16.3996L8.49448 17.6446L8.19426 17.9625L11.3201 21.0795L12.2561 20.1435L16 23.9051C17.2097 25.0971 19.1611 25.0971 20.3709 23.9051C21.5806 22.6865 21.5806 20.7263 20.3709 19.5254L12.8742 12.0287C12.362 11.5077 12.362 10.66 12.8742 10.1567C13.3951 9.63576 14.234 9.63576 14.755 10.1567L18.4989 13.9007L17.5629 14.8366L20.6799 17.9625L20.9978 17.6446L22.2428 18.8985C22.5872 19.2428 23.1523 19.2428 23.5055 18.8985L24.7417 17.6446C25.0861 17.2826 25.0861 16.7439 24.7417 16.3996L23.5055 15.1545L23.8057 14.8366L20.6799 11.7196L19.7439 12.6556L16 8.89404C14.7903 7.70199 12.8389 7.70199 11.6291 8.89404ZM7.88521 15.7726L9.13024 14.5276L10.3841 15.7726L9.13024 17.0265M21.6159 17.0265L22.8698 15.7726L24.1148 17.0265L22.8698 18.2715L21.6159 17.0265Z" fill="#28519E"/>
</g>
</svg>
