<svg width="24" height="24" viewBox="0 0 24 24" fill="none" xmlns="http://www.w3.org/2000/svg">
<path d="M18.0852 16.9986V18.5216C18.0852 20.9487 16.1016 22.9323 13.6742 22.9323H9.33427C6.9024 22.9323 4.91481 20.9447 4.91481 18.5128V10.9063H3V4.79633H7.98646V10.9063H6.07165V18.5128C6.07165 20.3061 7.54104 21.7755 9.33427 21.7755H13.6742C15.4626 21.7755 16.9283 20.31 16.9283 18.5216V16.9986H15.0135V10.8886H20V16.9986H18.0852ZM7.16023 1H3.82623V4.14838H7.16023V1ZM4.4945 1.7244H6.49196V2.37236H4.4945V1.7244ZM19.1738 7.09224H15.8398V10.2406H19.1738V7.09224ZM16.508 7.81664H18.5055V8.4646H16.508V7.81664Z" fill="#28519E"/>
</svg>
