<svg width="24" height="24" viewBox="0 0 24 24" fill="none" xmlns="http://www.w3.org/2000/svg">
<path fill-rule="evenodd" clip-rule="evenodd" d="M9.35138 3C9.0707 2.99966 8.80138 3.11083 8.60265 3.30904C8.40392 3.50725 8.29206 3.77628 8.29167 4.05696V8.99722C8.29206 9.2779 8.40392 9.54693 8.60265 9.74514C8.80138 9.94336 9.0707 10.0545 9.35138 10.0542H11.1146V11.1146H6.52847C6.34135 11.1146 6.1619 11.1889 6.02958 11.3213C5.89727 11.4536 5.82293 11.633 5.82291 11.8201V13.5833H4.05971C3.77903 13.583 3.50971 13.6942 3.31098 13.8924C3.11226 14.0906 3.00039 14.3596 3 14.6403V19.5806C3.00039 19.8612 3.11226 20.1303 3.31098 20.3285C3.50971 20.5267 3.77903 20.6378 4.05971 20.6375H8.99722C9.13626 20.6378 9.27398 20.6106 9.40253 20.5576C9.53107 20.5047 9.64792 20.4269 9.74639 20.3287C9.84487 20.2306 9.92304 20.114 9.97644 19.9856C10.0298 19.8572 10.0574 19.7196 10.0576 19.5806V14.6403C10.0574 14.5013 10.0298 14.3636 9.97644 14.2352C9.92304 14.1069 9.84487 13.9903 9.74639 13.8921C9.64792 13.794 9.53107 13.7162 9.40253 13.6632C9.27398 13.6102 9.13626 13.5831 8.99722 13.5833H7.23471V12.5257H11.1146H12.5264H16.4062V13.5833H14.643C14.3624 13.583 14.093 13.6942 13.8943 13.8924C13.6956 14.0906 13.5837 14.3596 13.5833 14.6403V19.5806C13.5837 19.8612 13.6956 20.1303 13.8943 20.3285C14.093 20.5267 14.3624 20.6378 14.643 20.6375H19.5806C19.7196 20.6378 19.8573 20.6106 19.9859 20.5576C20.1144 20.5047 20.2313 20.4269 20.3297 20.3287C20.4282 20.2306 20.5064 20.114 20.5598 19.9856C20.6132 19.8572 20.6408 19.7196 20.641 19.5806V14.6403C20.6408 14.5013 20.6132 14.3636 20.5598 14.2352C20.5064 14.1069 20.4282 13.9903 20.3297 13.8921C20.2313 13.794 20.1144 13.7162 19.9859 13.6632C19.8573 13.6102 19.7196 13.5831 19.5806 13.5833H17.818V11.8201C17.818 11.7274 17.7998 11.6356 17.7643 11.55C17.7287 11.4643 17.6767 11.3865 17.6111 11.321C17.5455 11.2555 17.4677 11.2035 17.382 11.1681C17.2963 11.1327 17.2045 11.1145 17.1118 11.1146H12.5264V10.0542H14.2889C14.4279 10.0544 14.5656 10.0273 14.6942 9.97432C14.8227 9.92133 14.9396 9.84354 15.0381 9.74539C15.1365 9.64723 15.2147 9.53064 15.2681 9.40227C15.3215 9.2739 15.3491 9.13626 15.3493 8.99722V4.05696C15.3491 3.91792 15.3215 3.78028 15.2681 3.65191C15.2147 3.52354 15.1365 3.40695 15.0381 3.30879C14.9396 3.21064 14.8227 3.13285 14.6942 3.07987C14.5656 3.02688 14.4279 2.99974 14.2889 3H9.35138Z" fill="#28519E"/>
</svg>
