<svg width="24" height="24" viewBox="0 0 24 24" fill="none" xmlns="http://www.w3.org/2000/svg">
<g clip-path="url(#clip0_151_2040)">
<path d="M23.7164 7.61704C23.4217 7.22527 22.9929 7 22.5284 7H1.58986C1.12536 7 0.696583 7.22527 0.401801 7.61704C0.107018 8.00881 -0.000175908 8.51812 0.0891522 9.01763L1.33975 15.6582C1.48267 16.4319 2.1169 17 2.84046 17H21.2778C22.0013 17 22.6356 16.4319 22.7785 15.6582L24.0291 9.01763C24.1184 8.52791 24.0023 8.01861 23.7164 7.61704ZM3.53722 15.4525C3.10844 15.4525 2.769 15.0705 2.769 14.6102C2.769 14.1401 3.11737 13.7679 3.53722 13.7679C3.96599 13.7679 4.30544 14.1499 4.30544 14.6102C4.31437 15.0803 3.96599 15.4525 3.53722 15.4525ZM3.53722 10.2517C3.10844 10.2517 2.769 9.86974 2.769 9.4094C2.769 8.93928 3.11737 8.56709 3.53722 8.56709C3.96599 8.56709 4.30544 8.94907 4.30544 9.4094C4.31437 9.86974 3.96599 10.2517 3.53722 10.2517ZM5.60963 12.8472C5.18085 12.8472 4.84141 12.4652 4.84141 12.0049C4.84141 11.5348 5.18979 11.1626 5.60963 11.1626C6.02947 11.1626 6.37785 11.5446 6.37785 12.0049C6.37785 12.475 6.02947 12.8472 5.60963 12.8472ZM7.3158 15.4525C6.88702 15.4525 6.54757 15.0705 6.54757 14.6102C6.54757 14.1401 6.89595 13.7679 7.3158 13.7679C7.74457 13.7679 8.08402 14.1499 8.08402 14.6102C8.09295 15.0803 7.74457 15.4525 7.3158 15.4525ZM7.3158 10.2517C6.88702 10.2517 6.54757 9.86974 6.54757 9.4094C6.54757 8.93928 6.89595 8.56709 7.3158 8.56709C7.74457 8.56709 8.08402 8.94907 8.08402 9.4094C8.09295 9.86974 7.74457 10.2517 7.3158 10.2517ZM9.37928 12.8472C8.9505 12.8472 8.61105 12.4652 8.61105 12.0049C8.61105 11.5348 8.95943 11.1626 9.37928 11.1626C9.80805 11.1626 10.1475 11.5446 10.1475 12.0049C10.1564 12.475 9.80805 12.8472 9.37928 12.8472ZM11.0944 15.4525C10.6656 15.4525 10.3262 15.0705 10.3262 14.6102C10.3262 14.1401 10.6745 13.7679 11.0944 13.7679C11.5142 13.7679 11.8626 14.1499 11.8626 14.6102C11.8626 15.0803 11.5232 15.4525 11.0944 15.4525ZM11.0944 10.2517C10.6656 10.2517 10.3262 9.86974 10.3262 9.4094C10.3262 8.93928 10.6745 8.56709 11.0944 8.56709C11.5142 8.56709 11.8626 8.94907 11.8626 9.4094C11.8626 9.86974 11.5232 10.2517 11.0944 10.2517ZM13.1579 12.8472C12.7291 12.8472 12.3896 12.4652 12.3896 12.0049C12.3896 11.5348 12.738 11.1626 13.1579 11.1626C13.5777 11.1626 13.9261 11.5446 13.9261 12.0049C13.935 12.475 13.5866 12.8472 13.1579 12.8472ZM14.873 15.4525C14.4442 15.4525 14.1047 15.0705 14.1047 14.6102C14.1047 14.1401 14.4531 13.7679 14.873 13.7679C15.3017 13.7679 15.6412 14.1499 15.6412 14.6102C15.6412 15.0803 15.3017 15.4525 14.873 15.4525ZM14.873 10.2517C14.4442 10.2517 14.1047 9.86974 14.1047 9.4094C14.1047 8.93928 14.4531 8.56709 14.873 8.56709C15.3017 8.56709 15.6412 8.94907 15.6412 9.4094C15.6412 9.86974 15.3017 10.2517 14.873 10.2517ZM16.9364 12.8472C16.5077 12.8472 16.1682 12.4652 16.1682 12.0049C16.1682 11.5348 16.5166 11.1626 16.9364 11.1626C17.3652 11.1626 17.7047 11.5446 17.7047 12.0049C17.7047 12.475 17.3652 12.8472 16.9364 12.8472ZM18.6515 15.4525C18.2228 15.4525 17.8833 15.0705 17.8833 14.6102C17.8833 14.1401 18.2317 13.7679 18.6515 13.7679C19.0803 13.7679 19.4198 14.1499 19.4198 14.6102C19.4198 15.0803 19.0714 15.4525 18.6515 15.4525ZM18.6515 10.2517C18.2228 10.2517 17.8833 9.86974 17.8833 9.4094C17.8833 8.93928 18.2317 8.56709 18.6515 8.56709C19.0803 8.56709 19.4198 8.94907 19.4198 9.4094C19.4198 9.86974 19.0714 10.2517 18.6515 10.2517ZM20.715 12.8472C20.2862 12.8472 19.9468 12.4652 19.9468 12.0049C19.9468 11.5348 20.2952 11.1626 20.715 11.1626C21.1438 11.1626 21.4832 11.5446 21.4832 12.0049C21.4832 12.475 21.1438 12.8472 20.715 12.8472Z" fill="#28519E"/>
</g>
<defs>
<clipPath id="clip0_151_2040">
<rect width="24" height="24" fill="white"/>
</clipPath>
</defs>
</svg>
