<svg width="16" height="16" viewBox="0 0 16 16" fill="none" xmlns="http://www.w3.org/2000/svg">
<g id="icon">
<path id="ballot" d="M8 6.66667H11.3333V5.33333H8V6.66667ZM8 10.6667H11.3333V9.33333H8V10.6667ZM6 7.33333C6.36667 7.33333 6.68056 7.20278 6.94167 6.94167C7.20278 6.68056 7.33333 6.36667 7.33333 6C7.33333 5.63333 7.20278 5.31944 6.94167 5.05833C6.68056 4.79722 6.36667 4.66667 6 4.66667C5.63333 4.66667 5.31944 4.79722 5.05833 5.05833C4.79722 5.31944 4.66667 5.63333 4.66667 6C4.66667 6.36667 4.79722 6.68056 5.05833 6.94167C5.31944 7.20278 5.63333 7.33333 6 7.33333ZM6 11.3333C6.36667 11.3333 6.68056 11.2028 6.94167 10.9417C7.20278 10.6806 7.33333 10.3667 7.33333 10C7.33333 9.63333 7.20278 9.31945 6.94167 9.05833C6.68056 8.79722 6.36667 8.66667 6 8.66667C5.63333 8.66667 5.31944 8.79722 5.05833 9.05833C4.79722 9.31945 4.66667 9.63333 4.66667 10C4.66667 10.3667 4.79722 10.6806 5.05833 10.9417C5.31944 11.2028 5.63333 11.3333 6 11.3333ZM3.33333 14C2.96667 14 2.65278 13.8694 2.39167 13.6083C2.13056 13.3472 2 13.0333 2 12.6667V3.33333C2 2.96667 2.13056 2.65278 2.39167 2.39167C2.65278 2.13056 2.96667 2 3.33333 2H12.6667C13.0333 2 13.3472 2.13056 13.6083 2.39167C13.8694 2.65278 14 2.96667 14 3.33333V12.6667C14 13.0333 13.8694 13.3472 13.6083 13.6083C13.3472 13.8694 13.0333 14 12.6667 14H3.33333ZM3.33333 12.6667H12.6667V3.33333H3.33333V12.6667Z" fill="#6D6D6D"/>
</g>
</svg>
