<svg width="24" height="24" viewBox="0 0 24 24" fill="none" xmlns="http://www.w3.org/2000/svg">
<g id="laptop-solid 2">
<path id="keyboard" d="M21.3333 18H2.66667C1.16667 18 0 17.125 0 16V8C0 6.90625 1.16667 6 2.66667 6H21.3333C22.7917 6 24 6.90625 24 8V16C24 17.125 22.7917 18 21.3333 18ZM5.33333 9.625V8.375C5.33333 8.1875 5.08333 8 4.83333 8H3.16667C2.875 8 2.66667 8.1875 2.66667 8.375V9.625C2.66667 9.84375 2.875 10 3.16667 10H4.83333C5.08333 10 5.33333 9.84375 5.33333 9.625ZM9.33333 9.625V8.375C9.33333 8.1875 9.08333 8 8.83333 8H7.16667C6.875 8 6.66667 8.1875 6.66667 8.375V9.625C6.66667 9.84375 6.875 10 7.16667 10H8.83333C9.08333 10 9.33333 9.84375 9.33333 9.625ZM13.3333 9.625V8.375C13.3333 8.1875 13.0833 8 12.8333 8H11.1667C10.875 8 10.6667 8.1875 10.6667 8.375V9.625C10.6667 9.84375 10.875 10 11.1667 10H12.8333C13.0833 10 13.3333 9.84375 13.3333 9.625ZM17.3333 9.625V8.375C17.3333 8.1875 17.0833 8 16.8333 8H15.1667C14.875 8 14.6667 8.1875 14.6667 8.375V9.625C14.6667 9.84375 14.875 10 15.1667 10H16.8333C17.0833 10 17.3333 9.84375 17.3333 9.625ZM21.3333 9.625V8.375C21.3333 8.1875 21.0833 8 20.8333 8H19.1667C18.875 8 18.6667 8.1875 18.6667 8.375V9.625C18.6667 9.84375 18.875 10 19.1667 10H20.8333C21.0833 10 21.3333 9.84375 21.3333 9.625ZM5.33333 12.625V11.375C5.33333 11.1875 5.08333 11 4.83333 11H3.16667C2.875 11 2.66667 11.1875 2.66667 11.375V12.625C2.66667 12.8438 2.875 13 3.16667 13H4.83333C5.08333 13 5.33333 12.8438 5.33333 12.625ZM9.33333 12.625V11.375C9.33333 11.1875 9.08333 11 8.83333 11H7.16667C6.875 11 6.66667 11.1875 6.66667 11.375V12.625C6.66667 12.8438 6.875 13 7.16667 13H8.83333C9.08333 13 9.33333 12.8438 9.33333 12.625ZM13.3333 12.625V11.375C13.3333 11.1875 13.0833 11 12.8333 11H11.1667C10.875 11 10.6667 11.1875 10.6667 11.375V12.625C10.6667 12.8438 10.875 13 11.1667 13H12.8333C13.0833 13 13.3333 12.8438 13.3333 12.625ZM17.3333 12.625V11.375C17.3333 11.1875 17.0833 11 16.8333 11H15.1667C14.875 11 14.6667 11.1875 14.6667 11.375V12.625C14.6667 12.8438 14.875 13 15.1667 13H16.8333C17.0833 13 17.3333 12.8438 17.3333 12.625ZM21.3333 12.625V11.375C21.3333 11.1875 21.0833 11 20.8333 11H19.1667C18.875 11 18.6667 11.1875 18.6667 11.375V12.625C18.6667 12.8438 18.875 13 19.1667 13H20.8333C21.0833 13 21.3333 12.8438 21.3333 12.625ZM5.33333 15.625V14.375C5.33333 14.1875 5.08333 14 4.83333 14H3.16667C2.875 14 2.66667 14.1875 2.66667 14.375V15.625C2.66667 15.8438 2.875 16 3.16667 16H4.83333C5.08333 16 5.33333 15.8438 5.33333 15.625ZM17.3333 15.625V14.375C17.3333 14.1875 17.0833 14 16.8333 14H7.16667C6.875 14 6.66667 14.1875 6.66667 14.375V15.625C6.66667 15.8438 6.875 16 7.16667 16H16.8333C17.0833 16 17.3333 15.8438 17.3333 15.625ZM21.3333 15.625V14.375C21.3333 14.1875 21.0833 14 20.8333 14H19.1667C18.875 14 18.6667 14.1875 18.6667 14.375V15.625C18.6667 15.8438 18.875 16 19.1667 16H20.8333C21.0833 16 21.3333 15.8438 21.3333 15.625Z" fill="#28519E"/>
</g>
</svg>
