<svg width="32" height="32" viewBox="0 0 32 32" fill="none" xmlns="http://www.w3.org/2000/svg">
<g id="Icons">
<rect id="Rectangle" width="32" height="32" rx="4" fill="#F5F7FA"/>
<path id="Vector" d="M16.8571 8H14.5714C13.3594 8.00132 12.1974 8.48338 11.3404 9.3404C10.4834 10.1974 10.0013 11.3594 10 12.5714V19.4286C10.0013 20.6406 10.4834 21.8026 11.3404 22.6596C12.1974 23.5166 13.3594 23.9987 14.5714 24H16.8571C18.0692 23.9987 19.2311 23.5166 20.0882 22.6596C20.9452 21.8026 21.4272 20.6406 21.4286 19.4286V12.5714C21.4272 11.3594 20.9452 10.1974 20.0882 9.3404C19.2311 8.48338 18.0692 8.00132 16.8571 8ZM20.2857 12.5714V14.2857H16.2857V9.14286H16.8571C17.7662 9.1438 18.6377 9.50533 19.2805 10.1481C19.9232 10.7909 20.2848 11.6624 20.2857 12.5714ZM14.5714 9.14286H15.1429V14.2857H11.1429V12.5714C11.1438 11.6624 11.5053 10.7909 12.1481 10.1481C12.7909 9.50533 13.6624 9.1438 14.5714 9.14286Z" fill="#28519E"/>
</g>
</svg>
