<svg width="24" height="24" viewBox="0 0 24 24" fill="none" xmlns="http://www.w3.org/2000/svg">
<path d="M10.5105 12.5952L10.5105 8.82179L9.08736 8.82179L9.08736 12.5952L10.5105 12.5952Z" fill="#28519E"/>
<path d="M19.3145 12.5952L19.3145 8.82179L17.8913 8.82179L17.8913 12.5952L19.3145 12.5952Z" fill="#28519E"/>
<path d="M24 10.7295L23.5009 10.7295C23.0626 10.7295 22.7054 10.3788 22.7054 9.94818C22.7054 9.49826 23.0834 9.16686 23.5008 9.16686L24 9.16686L24 8.0105C24 6.90593 23.1046 6.0105 22 6.0105L2 6.0105C0.89543 6.0105 -3.91405e-08 6.90593 -8.74228e-08 8.0105L-1.37969e-07 9.16686L0.49917 9.16686C0.714241 9.16686 0.921211 9.25121 1.07542 9.41105C1.21339 9.54867 1.29455 9.744 1.29455 9.94819C1.29455 10.3788 0.937435 10.7295 0.49917 10.7295L-2.06275e-07 10.7295L-4.80366e-07 17C-5.28649e-07 18.1046 0.895431 19 2 19L22 19C23.1046 19 24 18.1046 24 17L24 10.7295ZM3.87366 13.4831L3.87366 7.93393L6.92045 7.93393L6.92045 13.4831L3.87366 13.4831ZM8.27582 13.4831L8.27582 7.93393L11.3222 7.93393L11.3222 13.4831L8.27582 13.4831ZM12.678 13.4831L12.678 7.93393L15.7244 7.93393L15.7244 13.4831L12.678 13.4831ZM17.0797 13.4831L17.0797 7.93393L20.1261 7.93393L20.1261 13.4831L17.0797 13.4831ZM3.67115 17.2119L3.67115 15.0291L4.48278 15.0291L4.48278 17.2119L3.67115 17.2119ZM5.90591 17.2119L5.90591 15.0291L6.71754 15.0291L6.71754 17.2119L5.90591 17.2119ZM8.14068 17.2119L8.14068 15.0291L8.95231 15.0291L8.95231 17.2119L8.14068 17.2119ZM10.3754 17.2119L10.3754 15.0291L11.1871 15.0291L11.1871 17.2119L10.3754 17.2119ZM12.6102 17.2119L12.6102 15.0291L13.4218 15.0291L13.4218 17.2119L12.6102 17.2119ZM14.845 17.2119L14.845 15.0291L15.6566 15.0291L15.6566 17.2119L14.845 17.2119ZM17.0797 17.2119L17.0797 15.0291L17.8914 15.0291L17.8914 17.2119L17.0797 17.2119ZM19.3145 17.2119L19.3145 15.0291L20.1261 15.0291L20.1261 17.2119L19.3145 17.2119Z" fill="#28519E"/>
<path d="M14.9126 12.5952L14.9126 8.82179L13.4895 8.82179L13.4895 12.5952L14.9126 12.5952Z" fill="#28519E"/>
<path d="M6.10864 12.5952L6.10864 8.82179L4.68512 8.82179L4.68512 12.5952L6.10864 12.5952Z" fill="#28519E"/>
</svg>
