<svg width="25" height="25" viewBox="0 0 25 25" fill="none" xmlns="http://www.w3.org/2000/svg">
<g id="Icons">
<path id="Vector" d="M21.47 6.56547L13.22 2.05141C12.9996 1.92961 12.7518 1.86572 12.5 1.86572C12.2482 1.86572 12.0004 1.92961 11.78 2.05141L3.53 6.56735C3.2944 6.69626 3.09772 6.88606 2.96052 7.11693C2.82331 7.3478 2.75061 7.61128 2.75 7.87985V16.8461C2.75061 17.1147 2.82331 17.3781 2.96052 17.609C3.09772 17.8399 3.2944 18.0297 3.53 18.1586L11.78 22.6745C12.0004 22.7963 12.2482 22.8602 12.5 22.8602C12.7518 22.8602 12.9996 22.7963 13.22 22.6745L21.47 18.1586C21.7056 18.0297 21.9023 17.8399 22.0395 17.609C22.1767 17.3781 22.2494 17.1147 22.25 16.8461V7.88078C22.2499 7.61174 22.1774 7.34768 22.0402 7.11627C21.903 6.88485 21.706 6.69461 21.47 6.56547ZM12.5 16.1139C11.7583 16.1139 11.0333 15.894 10.4166 15.4819C9.79993 15.0699 9.31928 14.4842 9.03545 13.799C8.75162 13.1137 8.67736 12.3597 8.82205 11.6323C8.96675 10.9049 9.3239 10.2367 9.84835 9.71226C10.3728 9.18781 11.041 8.83066 11.7684 8.68596C12.4958 8.54127 13.2498 8.61553 13.9351 8.89936C14.6203 9.18319 15.206 9.66384 15.618 10.2805C16.0301 10.8972 16.25 11.6222 16.25 12.3639C16.25 13.3585 15.8549 14.3123 15.1517 15.0156C14.4484 15.7188 13.4946 16.1139 12.5 16.1139Z" fill="#28519E"/>
</g>
</svg>
