<svg width="25" height="22" viewBox="0 0 25 22" fill="none" xmlns="http://www.w3.org/2000/svg">
<path id="Vector" d="M9.63435 0.645508C8.41386 0.645508 7.24337 1.13034 6.38035 1.99336C5.51734 2.85637 5.03251 4.02686 5.03251 5.24735C5.03251 6.46783 5.51734 7.63833 6.38035 8.50134C7.24337 9.36435 8.41386 9.84919 9.63435 9.84919C10.8548 9.84919 12.0253 9.36435 12.8883 8.50134C13.7514 7.63833 14.2362 6.46783 14.2362 5.24735C14.2362 4.02686 13.7514 2.85637 12.8883 1.99336C12.0253 1.13034 10.8548 0.645508 9.63435 0.645508ZM17.6876 9.84919C17.538 9.84919 17.4115 9.95273 17.3884 10.0908L17.1699 11.6094C16.8247 11.759 16.4911 11.943 16.192 12.1501L14.7654 11.5749C14.6388 11.5749 14.4893 11.5749 14.4088 11.7244L13.2583 13.7147C13.1893 13.8413 13.2123 13.9908 13.3273 14.0829L14.5468 15.0263C14.5238 15.2218 14.5123 15.4059 14.5123 15.6015C14.5123 15.7971 14.5238 15.9811 14.5468 16.1767L13.3273 17.1201C13.2238 17.2121 13.1893 17.3617 13.2583 17.4882L14.4088 19.4785C14.4778 19.6281 14.6273 19.6281 14.7654 19.6281L16.192 19.0529C16.4911 19.26 16.8132 19.4555 17.1699 19.5936L17.3884 21.1122C17.4115 21.2503 17.5265 21.3538 17.6876 21.3538H19.9885C20.115 21.3538 20.2416 21.2503 20.2646 21.1122L20.4832 19.5936C20.8283 19.444 21.1389 19.26 21.4496 19.0529L22.8646 19.6281C23.0142 19.6281 23.1638 19.6281 23.2443 19.4785L24.3948 17.4882C24.4638 17.3617 24.4293 17.2121 24.3257 17.1201L23.0947 16.1767C23.1177 15.9811 23.1407 15.7971 23.1407 15.6015C23.1407 15.4059 23.1292 15.2218 23.0947 15.0263L24.3142 14.0829C24.4178 13.9908 24.4523 13.8413 24.3832 13.7147L23.2328 11.7244C23.1638 11.5749 23.0142 11.5749 22.8646 11.5749L21.4496 12.1501C21.1389 11.943 20.8283 11.7474 20.4717 11.6094L20.2531 10.0908C20.2416 9.95273 20.115 9.84919 19.9885 9.84919H17.6876ZM9.63435 12.1501C4.54931 12.1501 0.430664 14.2094 0.430664 16.752V19.0529H11.5671C11.0537 17.9746 10.7864 16.7957 10.7848 15.6015C10.7871 14.4456 11.0383 13.3038 11.5211 12.2537C10.9114 12.1846 10.2786 12.1501 9.63435 12.1501ZM18.838 13.8758C19.7929 13.8758 20.5637 14.6466 20.5637 15.6015C20.5637 16.5564 19.7929 17.3272 18.838 17.3272C17.8716 17.3272 17.1123 16.5564 17.1123 15.6015C17.1123 14.6466 17.8831 13.8758 18.838 13.8758Z" fill="#002C3F"/>
</svg>
