<svg width="20" height="22" viewBox="0 0 20 22" fill="none" xmlns="http://www.w3.org/2000/svg">
<path d="M18.97 5.2017L10.72 0.687639C10.4996 0.565841 10.2518 0.501953 10 0.501953C9.74816 0.501953 9.50043 0.565841 9.28 0.687639L1.03 5.20358C0.794395 5.33249 0.597722 5.52229 0.460517 5.75316C0.323313 5.98404 0.25061 6.24751 0.25 6.51608V15.4823C0.25061 15.7509 0.323313 16.0144 0.460517 16.2452C0.597722 16.4761 0.794395 16.6659 1.03 16.7948L9.28 21.3108C9.50043 21.4326 9.74816 21.4965 10 21.4965C10.2518 21.4965 10.4996 21.4326 10.72 21.3108L18.97 16.7948C19.2056 16.6659 19.4023 16.4761 19.5395 16.2452C19.6767 16.0144 19.7494 15.7509 19.75 15.4823V6.51701C19.7499 6.24797 19.6774 5.98391 19.5402 5.7525C19.403 5.52108 19.206 5.33084 18.97 5.2017ZM10 14.7501C9.25832 14.7501 8.5333 14.5302 7.91661 14.1182C7.29993 13.7061 6.81928 13.1204 6.53545 12.4352C6.25162 11.75 6.17736 10.996 6.32205 10.2685C6.46675 9.54112 6.8239 8.87294 7.34835 8.34849C7.8728 7.82404 8.54098 7.46689 9.26841 7.32219C9.99584 7.1775 10.7498 7.25176 11.4351 7.53559C12.1203 7.81942 12.706 8.30007 13.118 8.91675C13.5301 9.53343 13.75 10.2585 13.75 11.0001C13.75 11.9947 13.3549 12.9485 12.6517 13.6518C11.9484 14.3551 10.9946 14.7501 10 14.7501Z" fill="#002C3F"/>
</svg>
