<svg width="12" height="13" viewBox="0 0 12 13" fill="none" xmlns="http://www.w3.org/2000/svg">
<path d="M1.75141 12.1648H10.2486C11.0275 12.1648 11.6648 11.5275 11.6648 10.7486V4.13968C11.6648 3.36077 11.0275 2.72347 10.2486 2.72347H7.41621V2.24197C7.41621 1.46778 6.78364 0.835205 5.99057 0.835205C5.21638 0.835205 4.58381 1.46778 4.58381 2.24197V2.72347H1.75141C0.972496 2.72347 0.335205 3.36077 0.335205 4.13968V10.7486C0.335205 11.5275 0.972496 12.1648 1.75141 12.1648ZM9.77655 8.86035H6.94415V7.91621H9.77655V8.86035ZM9.77655 6.97208H6.94415V6.02795H9.77655V6.97208ZM5.52795 2.24197C5.52795 1.98705 5.73566 1.77934 6.00945 1.77934C6.26437 1.77934 6.47208 1.98705 6.47208 2.24197V2.72347H5.52795V2.24197ZM2.22347 5.55588H6.00001V9.33242H2.22347V5.55588Z" fill="#28519E"/>
</svg>
