<svg width="21" height="22" viewBox="0 0 21 22" fill="none" xmlns="http://www.w3.org/2000/svg">
<path d="M19.47 5.56547L11.22 1.05141C10.9996 0.929611 10.7518 0.865723 10.5 0.865723C10.2482 0.865723 10.0004 0.929611 9.78 1.05141L1.53 5.56735C1.2944 5.69626 1.09772 5.88606 0.960517 6.11693C0.823313 6.34781 0.75061 6.61128 0.75 6.87985V15.8461C0.75061 16.1147 0.823313 16.3781 0.960517 16.609C1.09772 16.8399 1.2944 17.0297 1.53 17.1586L9.78 21.6745C10.0004 21.7963 10.2482 21.8602 10.5 21.8602C10.7518 21.8602 10.9996 21.7963 11.22 21.6745L19.47 17.1586C19.7056 17.0297 19.9023 16.8399 20.0395 16.609C20.1767 16.3781 20.2494 16.1147 20.25 15.8461V6.88078C20.2499 6.61174 20.1774 6.34768 20.0402 6.11627C19.903 5.88485 19.706 5.69461 19.47 5.56547ZM10.5 15.1139C9.75832 15.1139 9.0333 14.894 8.41661 14.4819C7.79993 14.0699 7.31928 13.4842 7.03545 12.799C6.75162 12.1137 6.67736 11.3597 6.82205 10.6323C6.96675 9.90489 7.3239 9.2367 7.84835 8.71226C8.3728 8.18781 9.04098 7.83066 9.76841 7.68596C10.4958 7.54127 11.2498 7.61553 11.9351 7.89936C12.6203 8.18319 13.206 8.66384 13.618 9.28052C14.0301 9.8972 14.25 10.6222 14.25 11.3639C14.25 12.3585 13.8549 13.3123 13.1517 14.0156C12.4484 14.7188 11.4946 15.1139 10.5 15.1139Z" fill="#B2B2B3"/>
</svg>
