<svg width="21" height="22" viewBox="0 0 21 22" fill="none" xmlns="http://www.w3.org/2000/svg">
<path d="M19.47 5.06596L11.22 0.551897C10.9996 0.430099 10.7518 0.366211 10.5 0.366211C10.2482 0.366211 10.0004 0.430099 9.78 0.551897L1.53 5.06783C1.2944 5.19674 1.09772 5.38655 0.960517 5.61742C0.823313 5.84829 0.75061 6.11177 0.75 6.38033V15.3466C0.75061 15.6151 0.823313 15.8786 0.960517 16.1095C1.09772 16.3404 1.2944 16.5302 1.53 16.6591L9.78 21.175C10.0004 21.2968 10.2482 21.3607 10.5 21.3607C10.7518 21.3607 10.9996 21.2968 11.22 21.175L19.47 16.6591C19.7056 16.5302 19.9023 16.3404 20.0395 16.1095C20.1767 15.8786 20.2494 15.6151 20.25 15.3466V6.38127C20.2499 6.11223 20.1774 5.84817 20.0402 5.61676C19.903 5.38534 19.706 5.1951 19.47 5.06596ZM10.5 14.6144C9.75832 14.6144 9.0333 14.3945 8.41661 13.9824C7.79993 13.5704 7.31928 12.9847 7.03545 12.2995C6.75162 11.6142 6.67736 10.8602 6.82205 10.1328C6.96675 9.40538 7.3239 8.73719 7.84835 8.21275C8.3728 7.6883 9.04098 7.33115 9.76841 7.18645C10.4958 7.04176 11.2498 7.11602 11.9351 7.39985C12.6203 7.68368 13.206 8.16432 13.618 8.78101C14.0301 9.39769 14.25 10.1227 14.25 10.8644C14.25 11.859 13.8549 12.8128 13.1517 13.516C12.4484 14.2193 11.4946 14.6144 10.5 14.6144Z" fill="#28519E"/>
</svg>
