<svg width="20" height="21" viewBox="0 0 20 21" fill="none" xmlns="http://www.w3.org/2000/svg">
<g id="Logs">
<path id="Vector" d="M16.2496 7.99999C16.2496 7.81457 16.3046 7.63331 16.4076 7.47914C16.5106 7.32497 16.657 7.20481 16.8283 7.13385C16.9996 7.06289 17.1881 7.04433 17.37 7.0805C17.5518 7.11667 17.7189 7.20596 17.85 7.33707C17.9811 7.46819 18.0704 7.63523 18.1066 7.81709C18.1427 7.99895 18.1242 8.18745 18.0532 8.35875C17.9822 8.53006 17.8621 8.67648 17.7079 8.77949C17.5537 8.8825 17.3725 8.93749 17.1871 8.93749C16.9384 8.93749 16.7 8.83871 16.5242 8.6629C16.3483 8.48708 16.2496 8.24863 16.2496 7.99999ZM15.3121 6.12499C15.4975 6.12499 15.6787 6.07 15.8329 5.96699C15.9871 5.86398 16.1072 5.71756 16.1782 5.54625C16.2492 5.37495 16.2677 5.18645 16.2316 5.00459C16.1954 4.82273 16.1061 4.65569 15.975 4.52457C15.8439 4.39346 15.6768 4.30417 15.495 4.268C15.3131 4.23183 15.1246 4.25039 14.9533 4.32135C14.782 4.39231 14.6356 4.51247 14.5326 4.66664C14.4296 4.82081 14.3746 5.00207 14.3746 5.18749C14.3746 5.43613 14.4733 5.67458 14.6492 5.8504C14.825 6.02622 15.0634 6.12499 15.3121 6.12499ZM17.5511 10.5C17.386 10.4864 17.2222 10.5389 17.0958 10.646C16.9694 10.7531 16.8906 10.906 16.8769 11.0711C16.7651 12.3777 16.2823 13.6252 15.4856 14.6667C14.6888 15.7083 13.6111 16.5007 12.3793 16.9505C11.1475 17.4004 9.8128 17.4891 8.5323 17.2061C7.2518 16.9232 6.07875 16.2804 5.15117 15.3534C4.22358 14.4264 3.58006 13.2538 3.29632 11.9735C3.01258 10.6931 3.10043 9.3584 3.54952 8.12631C3.99861 6.89422 4.79027 5.81602 5.83134 5.01859C6.87242 4.22116 8.11959 3.73766 9.42613 3.62499C9.50821 3.61822 9.58814 3.59534 9.66138 3.55768C9.73462 3.52001 9.79972 3.46829 9.85297 3.40547C9.90622 3.34264 9.94657 3.26995 9.97172 3.19153C9.99688 3.11311 10.0063 3.0305 9.99957 2.94842C9.9928 2.86635 9.96993 2.78641 9.93226 2.71317C9.8946 2.63994 9.84287 2.57483 9.78005 2.52159C9.71722 2.46834 9.64453 2.42798 9.56611 2.40283C9.48769 2.37768 9.40508 2.36822 9.323 2.37499C7.77927 2.50777 6.30558 3.07869 5.0753 4.02058C3.84502 4.96246 2.90934 6.23613 2.37834 7.69173C1.84734 9.14733 1.74311 10.7243 2.07792 12.2371C2.41272 13.75 3.17263 15.1357 4.26825 16.2313C5.36386 17.3269 6.74959 18.0868 8.26242 18.4216C9.77524 18.7564 11.3522 18.6522 12.8078 18.1212C14.2634 17.5902 15.5371 16.6545 16.479 15.4243C17.4209 14.194 17.9918 12.7203 18.1246 11.1765C18.1316 11.0944 18.1224 11.0117 18.0973 10.9332C18.0723 10.8546 18.0319 10.7818 17.9786 10.7189C17.9253 10.656 17.8601 10.6043 17.7868 10.5668C17.7134 10.5292 17.6333 10.5065 17.5511 10.5ZM9.99957 4.87499C11.1121 4.87499 12.1996 5.20489 13.1246 5.82297C14.0497 6.44105 14.7706 7.31956 15.1964 8.34739C15.6221 9.37523 15.7335 10.5062 15.5165 11.5974C15.2994 12.6885 14.7637 13.6908 13.977 14.4775C13.1904 15.2641 12.1881 15.7999 11.097 16.0169C10.0058 16.2339 8.87481 16.1226 7.84697 15.6968C6.81914 15.2711 5.94063 14.5501 5.32255 13.6251C4.70447 12.7 4.37457 11.6125 4.37457 10.5C4.37622 9.00865 4.96939 7.57887 6.02392 6.52434C7.07845 5.46981 8.50823 4.87664 9.99957 4.87499ZM9.37457 10.5C9.37457 10.6657 9.44042 10.8247 9.55763 10.9419C9.67484 11.0591 9.83381 11.125 9.99957 11.125H13.7496C13.9153 11.125 14.0743 11.0591 14.1915 10.9419C14.3087 10.8247 14.3746 10.6657 14.3746 10.5C14.3746 10.3342 14.3087 10.1753 14.1915 10.058C14.0743 9.94084 13.9153 9.87499 13.7496 9.87499H10.6246V6.74999C10.6246 6.58423 10.5587 6.42526 10.4415 6.30805C10.3243 6.19084 10.1653 6.12499 9.99957 6.12499C9.83381 6.12499 9.67484 6.19084 9.55763 6.30805C9.44042 6.42526 9.37457 6.58423 9.37457 6.74999V10.5ZM12.4996 4.24999C12.685 4.24999 12.8662 4.195 13.0204 4.09199C13.1746 3.98898 13.2947 3.84256 13.3657 3.67125C13.4367 3.49995 13.4552 3.31145 13.4191 3.12959C13.3829 2.94773 13.2936 2.78069 13.1625 2.64957C13.0314 2.51846 12.8643 2.42917 12.6825 2.393C12.5006 2.35683 12.3121 2.37539 12.1408 2.44635C11.9695 2.51731 11.8231 2.63747 11.7201 2.79164C11.6171 2.94581 11.5621 3.12707 11.5621 3.31249C11.5621 3.56113 11.6608 3.79958 11.8367 3.9754C12.0125 4.15122 12.2509 4.24999 12.4996 4.24999Z" fill="#002C3F"/>
</g>
</svg>
