<svg width="16" height="18" viewBox="0 0 16 18" fill="none" xmlns="http://www.w3.org/2000/svg">
<path d="M12.6151 9.52162C12.6151 9.60198 12.4946 11.9723 15.106 13.2178C14.6239 14.7043 12.9366 17.9987 10.9679 17.9987C9.84303 17.9987 9.20022 17.2755 7.9146 17.2755C6.5888 17.2755 5.86564 17.9987 4.86125 17.9987C2.93282 18.079 1.08474 14.4632 0.562459 12.9767C0.160703 11.8518 0 10.7671 0 9.7225C0 6.14687 2.37036 4.41932 4.6202 4.37914C5.70494 4.37914 7.07091 5.14248 7.67354 5.14248C8.236 5.14248 9.80285 4.21844 11.2492 4.33897C12.7357 4.45949 13.8606 5.02195 14.6239 6.1067C13.2981 6.95038 12.6151 8.03513 12.6151 9.52162ZM10.3653 2.93282C9.5618 3.85686 8.59758 4.37914 7.55302 4.29879C7.47267 3.21405 7.87442 2.20966 8.59758 1.40615C9.24039 0.682986 10.3653 0.0803513 11.3295 0C11.3295 0.441932 11.4501 1.6472 10.3653 2.93282Z" fill="#28519E"/>
</svg>
