<svg xmlns="http://www.w3.org/2000/svg" width="24" height="24" viewBox="0 0 24 24" fill="none">
  <path d="M23.7731 9.9456C23.7731 5.9249 20.5722 2.68066 16.5515 2.68066C12.5308 2.68066 9.25977 5.79008 9.25977 10.0254H10.6715C10.6715 6.8489 13.2741 4.09243 16.5159 4.09243C19.7584 4.09243 22.3613 6.67702 22.3613 9.91914C22.3613 13.0508 20.0982 15.611 16.7633 15.7818V14.3383L14.5302 16.5717L16.7633 18.8048V17.1936C20.8165 17.0175 23.7731 13.8523 23.7731 9.9456Z" fill="#343435"/>
  <path d="M16.9738 10.2836L15.9757 9.28516L12.7643 12.4959H4.49629L1.28523 9.28516L0.287109 10.2833L4.05829 14.0545V21.3194H13.2348V14.0216L16.9738 10.2836Z" fill="#343435"/>
</svg>
