<svg width="24" height="24" viewBox="0 0 24 24" fill="none" xmlns="http://www.w3.org/2000/svg">
<path d="M5.77778 4C4.79722 4 4 4.89688 4 6V15C4 16.1031 4.79722 17 5.77778 17H10.6667L10.3694 18H8.44444C7.95278 18 7.55556 18.4469 7.55556 19C7.55556 19.5531 7.95278 20 8.44444 20H15.5556C16.0472 20 16.4444 19.5531 16.4444 19C16.4444 18.4469 16.0472 18 15.5556 18H13.6306L13.3333 17H18.2222C19.2028 17 20 16.1031 20 15V6C20 4.89688 19.2028 4 18.2222 4H5.77778ZM18.2222 6V13H5.77778V6H18.2222Z" fill="#002C3F"/>
</svg>
