<svg width="16" height="16" viewBox="0 0 16 16" fill="none" xmlns="http://www.w3.org/2000/svg">
<path d="M10.6667 3.33331V2.66665C10.6667 2.31302 10.5262 1.97389 10.2761 1.72384C10.0261 1.47379 9.68696 1.33331 9.33334 1.33331H6.66667C6.31305 1.33331 5.97391 1.47379 5.72386 1.72384C5.47381 1.97389 5.33334 2.31302 5.33334 2.66665V3.33331C4.62609 3.33331 3.94782 3.61426 3.44772 4.11436C2.94762 4.61446 2.66667 5.29274 2.66667 5.99998V13.3333C2.66667 13.6869 2.80715 14.0261 3.0572 14.2761C3.30724 14.5262 3.64638 14.6666 4.00001 14.6666H12C12.3536 14.6666 12.6928 14.5262 12.9428 14.2761C13.1929 14.0261 13.3333 13.6869 13.3333 13.3333V5.99998C13.3333 5.29274 13.0524 4.61446 12.5523 4.11436C12.0522 3.61426 11.3739 3.33331 10.6667 3.33331ZM6.66667 2.66665H9.33334V3.33331H6.66667V2.66665ZM8.00001 5.99998L9.33334 7.33331L8.00001 8.66665L6.66667 7.33331L8.00001 5.99998ZM12 10.6666H6.00001H5.33334H4.00001V9.99998H12V10.6666Z" fill="#28519E"/>
</svg>
