<svg width="13" height="11" viewBox="0 0 13 11" fill="none" xmlns="http://www.w3.org/2000/svg">
<path d="M12.3745 2.83143C12.3745 3.32063 11.9917 3.68222 11.5237 3.68222C11.5025 3.68222 11.5025 3.68222 11.5025 3.68222L10.4177 9.59519C10.3752 9.91423 10.0774 10.1482 9.75836 10.1482H2.7181C2.39905 10.1482 2.10128 9.91423 2.05874 9.59519L0.973986 3.68222C0.973986 3.68222 0.973986 3.68222 0.952716 3.68222C0.484783 3.68222 0.101929 3.32063 0.101929 2.83143C0.101929 2.3635 0.484783 1.98064 0.952716 1.98064C1.39938 1.98064 1.8035 2.3635 1.8035 2.83143C1.8035 3.02286 1.71842 3.19302 1.61208 3.3419L3.52635 4.87332C3.86666 5.12856 4.35586 5.02221 4.54729 4.63935L5.78093 2.19334C5.54697 2.04445 5.37681 1.78922 5.37681 1.47017C5.37681 1.00224 5.75966 0.619385 6.24887 0.619385C6.7168 0.619385 7.07838 1.00224 7.07838 1.47017C7.07838 1.78922 6.90823 2.04445 6.65299 2.19334L7.88663 4.63935C8.07806 5.02221 8.58853 5.12856 8.92885 4.87332L10.8218 3.3419C10.7368 3.19302 10.673 3.02286 10.673 2.83143C10.673 2.3635 11.0345 1.98064 11.5237 1.98064C11.9917 1.98064 12.3745 2.3635 12.3745 2.83143Z" fill="#28519E"/>
</svg>
