<svg width="16" height="16" viewBox="0 0 16 16" fill="none" xmlns="http://www.w3.org/2000/svg">
<g id="Icons">
<path id="&#239;&#148;&#161;" d="M14.3746 5.33168C14.3746 5.82088 13.9917 6.18246 13.5238 6.18246C13.5025 6.18246 13.5025 6.18246 13.5025 6.18246L12.4178 12.0954C12.3752 12.4145 12.0774 12.6484 11.7584 12.6484H4.71813C4.39908 12.6484 4.10131 12.4145 4.05877 12.0954L2.97402 6.18246C2.97402 6.18246 2.97402 6.18246 2.95275 6.18246C2.48481 6.18246 2.10196 5.82088 2.10196 5.33168C2.10196 4.86374 2.48481 4.48089 2.95275 4.48089C3.39941 4.48089 3.80353 4.86374 3.80353 5.33168C3.80353 5.5231 3.71846 5.69326 3.61211 5.84215L5.52638 7.37356C5.86669 7.6288 6.3559 7.52245 6.54732 7.1396L7.78096 4.69359C7.547 4.5447 7.37684 4.28946 7.37684 3.97042C7.37684 3.50248 7.75969 3.11963 8.2489 3.11963C8.71683 3.11963 9.07841 3.50248 9.07841 3.97042C9.07841 4.28946 8.90826 4.5447 8.65302 4.69359L9.88666 7.1396C10.0781 7.52245 10.5886 7.6288 10.9289 7.37356L12.8219 5.84215C12.7368 5.69326 12.673 5.5231 12.673 5.33168C12.673 4.86374 13.0346 4.48089 13.5238 4.48089C13.9917 4.48089 14.3746 4.86374 14.3746 5.33168Z" fill="#28519E"/>
</g>
</svg>
