<svg width="13" height="15" viewBox="0 0 13 15" fill="none" xmlns="http://www.w3.org/2000/svg">
<path d="M4.15625 1.76465H8.09375V0.670898C8.09375 0.31543 8.36719 0.0146484 8.75 0.0146484C9.10547 0.0146484 9.40625 0.31543 9.40625 0.670898V1.76465H10.5C11.457 1.76465 12.25 2.55762 12.25 3.51465V12.2646C12.25 13.249 11.457 14.0146 10.5 14.0146H1.75C0.765625 14.0146 0 13.249 0 12.2646V3.51465C0 2.55762 0.765625 1.76465 1.75 1.76465H2.84375V0.670898C2.84375 0.31543 3.11719 0.0146484 3.5 0.0146484C3.85547 0.0146484 4.15625 0.31543 4.15625 0.670898V1.76465ZM1.3125 12.2646C1.3125 12.5107 1.50391 12.7021 1.75 12.7021H10.5C10.7188 12.7021 10.9375 12.5107 10.9375 12.2646V5.26465H1.3125V12.2646Z" fill="black"/>
</svg>
