<svg width="11" height="13" viewBox="0 0 11 13" fill="none" xmlns="http://www.w3.org/2000/svg">
<path d="M4.07691 2.38461H7.30768V1.48718C7.30768 1.19551 7.53204 0.948717 7.84614 0.948717C8.13781 0.948717 8.38461 1.19551 8.38461 1.48718V2.38461H9.28204C10.0673 2.38461 10.7179 3.03526 10.7179 3.82051V11C10.7179 11.8077 10.0673 12.4359 9.28204 12.4359H2.10255C1.29486 12.4359 0.666656 11.8077 0.666656 11V3.82051C0.666656 3.03526 1.29486 2.38461 2.10255 2.38461H2.99999V1.48718C2.99999 1.19551 3.22435 0.948717 3.53845 0.948717C3.83012 0.948717 4.07691 1.19551 4.07691 1.48718V2.38461ZM1.74358 11C1.74358 11.2019 1.90063 11.359 2.10255 11.359H9.28204C9.46153 11.359 9.64102 11.2019 9.64102 11V5.25641H1.74358V11Z" fill="#28519E"/>
</svg>
