<svg width="16" height="16" viewBox="0 0 16 16" fill="none" xmlns="http://www.w3.org/2000/svg">
<path d="M5.69241 2.46153H9.56933V1.3846C9.56933 1.0346 9.83856 0.738448 10.2155 0.738448C10.5655 0.738448 10.8616 1.0346 10.8616 1.3846V2.46153H11.9386C12.8809 2.46153 13.6616 3.24229 13.6616 4.1846V12.8C13.6616 13.7692 12.8809 14.5231 11.9386 14.5231H3.32317C2.35394 14.5231 1.6001 13.7692 1.6001 12.8V4.1846C1.6001 3.24229 2.35394 2.46153 3.32317 2.46153H4.4001V1.3846C4.4001 1.0346 4.66933 0.738448 5.04625 0.738448C5.39625 0.738448 5.69241 1.0346 5.69241 1.3846V2.46153ZM2.89241 12.8C2.89241 13.0423 3.08087 13.2308 3.32317 13.2308H11.9386C12.1539 13.2308 12.3693 13.0423 12.3693 12.8V5.90768H2.89241V12.8Z" fill="#343435"/>
</svg>
