<svg width="16" height="16" viewBox="0 0 16 16" fill="none" xmlns="http://www.w3.org/2000/svg">
<path d="M6.07691 3.38461H9.30768V2.48718C9.30768 2.19551 9.53204 1.94872 9.84614 1.94872C10.1378 1.94872 10.3846 2.19551 10.3846 2.48718V3.38461H11.282C12.0673 3.38461 12.7179 4.03526 12.7179 4.82051V12C12.7179 12.8077 12.0673 13.4359 11.282 13.4359H4.10255C3.29486 13.4359 2.66666 12.8077 2.66666 12V4.82051C2.66666 4.03526 3.29486 3.38461 4.10255 3.38461H4.99999V2.48718C4.99999 2.19551 5.22435 1.94872 5.53845 1.94872C5.83012 1.94872 6.07691 2.19551 6.07691 2.48718V3.38461ZM3.74358 12C3.74358 12.2019 3.90063 12.359 4.10255 12.359H11.282C11.4615 12.359 11.641 12.2019 11.641 12V6.25641H3.74358V12Z" fill="#28519E"/>
</svg>
