<svg width="16" height="17" viewBox="0 0 16 17" fill="none" xmlns="http://www.w3.org/2000/svg">
<path d="M6.07688 3.88461H9.30765V2.98718C9.30765 2.69551 9.53201 2.44872 9.84611 2.44872C10.1378 2.44872 10.3846 2.69551 10.3846 2.98718V3.88461H11.282C12.0673 3.88461 12.7179 4.53526 12.7179 5.32051V12.5C12.7179 13.3077 12.0673 13.9359 11.282 13.9359H4.10252C3.29483 13.9359 2.66663 13.3077 2.66663 12.5V5.32051C2.66663 4.53526 3.29483 3.88461 4.10252 3.88461H4.99996V2.98718C4.99996 2.69551 5.22432 2.44872 5.53842 2.44872C5.83009 2.44872 6.07688 2.69551 6.07688 2.98718V3.88461ZM3.74355 12.5C3.74355 12.7019 3.9006 12.859 4.10252 12.859H11.282C11.4615 12.859 11.641 12.7019 11.641 12.5V6.75641H3.74355V12.5Z" fill="#28519E"/>
</svg>
