<svg xmlns="http://www.w3.org/2000/svg" width="20" height="21" viewBox="0 0 20 21" fill="none">
  <path d="M16.9137 8.66354L10.6637 14.9135C10.5766 15.0009 10.4731 15.0703 10.3592 15.1176C10.2452 15.1649 10.1231 15.1893 9.99967 15.1893C9.87628 15.1893 9.75411 15.1649 9.64016 15.1176C9.5262 15.0703 9.42271 15.0009 9.33561 14.9135L3.08561 8.66354C2.90949 8.48742 2.81055 8.24855 2.81055 7.99948C2.81055 7.75041 2.90949 7.51154 3.08561 7.33542C3.26173 7.15929 3.5006 7.06035 3.74967 7.06035C3.99874 7.06035 4.23762 7.15929 4.41374 7.33542L10.0005 12.9221L15.5872 7.33463C15.7633 7.15851 16.0022 7.05957 16.2512 7.05957C16.5003 7.05957 16.7392 7.15851 16.9153 7.33463C17.0914 7.51075 17.1904 7.74963 17.1904 7.9987C17.1904 8.24777 17.0914 8.48664 16.9153 8.66276L16.9137 8.66354Z" fill="black"/>
</svg>
