<svg width="20" height="21" viewBox="0 0 20 21" fill="none" xmlns="http://www.w3.org/2000/svg">
<g id="Chevron">
<path id="Vector" d="M16.9137 13.849C16.8266 13.9364 16.7231 14.0057 16.6092 14.053C16.4952 14.1004 16.3731 14.1247 16.2497 14.1247C16.1263 14.1247 16.0041 14.1004 15.8902 14.053C15.7762 14.0057 15.6727 13.9364 15.5856 13.849L10.0005 8.26383L4.41374 13.849C4.23762 14.0251 3.99874 14.124 3.74967 14.124C3.5006 14.124 3.26173 14.0251 3.08561 13.849C2.90949 13.6729 2.81055 13.434 2.81055 13.1849C2.81055 12.9358 2.90949 12.697 3.08561 12.5209L9.33561 6.27086C9.42271 6.18346 9.5262 6.11411 9.64016 6.06679C9.75411 6.01947 9.87628 5.99512 9.99967 5.99512C10.1231 5.99512 10.2452 6.01947 10.3592 6.06679C10.4731 6.11411 10.5766 6.18346 10.6637 6.27086L16.9137 12.5209C17.0011 12.608 17.0705 12.7114 17.1178 12.8254C17.1651 12.9394 17.1895 13.0615 17.1895 13.1849C17.1895 13.3083 17.1651 13.4305 17.1178 13.5444C17.0705 13.6584 17.0011 13.7619 16.9137 13.849Z" fill="#343435"/>
</g>
</svg>
