<svg width="12" height="10" viewBox="0 0 12 10" fill="none" xmlns="http://www.w3.org/2000/svg">
<g id="Group">
<path id="Vector" d="M11.0589 0.324593C11.2568 0.388422 11.4929 0.602252 11.5855 0.803316C11.6429 0.921401 11.6621 1.02034 11.6621 1.18949C11.6621 1.58842 11.6876 1.55651 9.84932 3.37566L8.19932 5.00332L9.86209 6.65332C10.778 7.5597 11.5536 8.35438 11.5855 8.41502C11.6685 8.5714 11.6717 9.05332 11.5887 9.21608C11.3812 9.63417 10.8834 9.82566 10.4334 9.6597C10.2515 9.58949 10.1525 9.49693 8.18975 7.54055C6.29401 5.65119 6.13443 5.48204 6.07379 5.31927C5.99081 5.09587 6.00039 4.8214 6.10571 4.61076C6.21103 4.39374 10.1653 0.471401 10.3823 0.369273C10.5674 0.283103 10.8642 0.260763 11.0589 0.324593Z" fill="#002C3F"/>
<path id="Vector_2" d="M5.40026 0.334115C5.63324 0.420285 5.78962 0.554328 5.90132 0.771349C6.02579 1.0139 6.03537 1.32986 5.92686 1.55326C5.87579 1.65539 5.37473 2.1788 4.19707 3.35326L2.54069 5.00965L4.19388 6.65007C5.43218 7.8756 5.86622 8.3288 5.92047 8.4405C6.0226 8.64795 6.02579 9.01177 5.92686 9.20007C5.81835 9.40433 5.70026 9.5288 5.52154 9.62135C5.3843 9.69156 5.31728 9.70433 5.10345 9.70752C4.88962 9.70752 4.8226 9.69475 4.69813 9.62773C4.59601 9.57348 3.90345 8.90965 2.53749 7.55965C0.297069 5.34475 0.351324 5.40539 0.351324 5.00326C0.354516 4.60752 0.284303 4.68411 2.50558 2.48199C4.01835 0.978796 4.55771 0.461775 4.68537 0.394753C4.90877 0.273477 5.17047 0.251136 5.40026 0.334115Z" fill="#002C3F"/>
</g>
</svg>
