<svg width="22" height="24" viewBox="0 0 22 24" fill="none" xmlns="http://www.w3.org/2000/svg">
<g id="Group">
<path id="Vector" d="M14.7788 0.788961C13.6418 0.968793 12.5744 1.45608 11.7797 2.1522C11.2692 2.60468 11.2054 2.82512 11.4896 3.11517C11.7739 3.39942 11.8783 3.36461 12.6382 2.74391C14.3843 1.32265 17.0586 1.40967 18.7931 2.95854C19.205 3.32981 19.3964 3.37042 19.6517 3.14418C19.9127 2.92374 19.8779 2.65109 19.5589 2.32043C18.9555 1.71132 17.9752 1.17183 17.0122 0.928186C16.3799 0.765757 15.3415 0.701946 14.7788 0.788961Z" fill="#28519E"/>
<path id="Vector_2" d="M14.802 3.42855C14.3205 3.56197 13.7984 3.83462 13.4736 4.13047C13.2183 4.36251 13.1777 4.42632 13.1777 4.61196C13.1777 4.844 13.3286 5.03543 13.5664 5.10504C13.7172 5.15145 13.8391 5.09344 14.2161 4.80919C14.599 4.51334 14.947 4.37992 15.4227 4.34511C15.9622 4.3045 16.5133 4.46693 16.9252 4.79759C17.2791 5.08184 17.4415 5.15145 17.6213 5.10504C17.8069 5.05864 17.9926 4.81499 17.9926 4.61196C17.9926 4.2929 17.3777 3.78821 16.6583 3.52717C16.1711 3.34733 15.2719 3.30093 14.802 3.42855Z" fill="#28519E"/>
<path id="Vector_3" d="M16.1943 10.8066C14.7556 11.0444 13.7056 11.9552 13.2822 13.3358C13.1893 13.6549 13.1777 13.9391 13.1777 16.7584C13.1777 20.2274 13.1719 20.1694 13.6244 21.0802C13.9725 21.7821 14.6628 22.4724 15.3531 22.8089C16.0724 23.1627 16.4727 23.2555 17.2675 23.2497C17.8186 23.2439 18.0158 23.2149 18.3987 23.0931C19.0542 22.8785 19.5473 22.571 20.0519 22.0663C20.5624 21.5558 20.8061 21.1614 21.0613 20.4595L21.2412 19.949L21.2586 16.9614C21.276 14.4438 21.2644 13.8985 21.189 13.5388C20.9337 12.3032 19.9765 11.2822 18.7177 10.8994C18.3523 10.7892 16.6816 10.7311 16.1943 10.8066ZM17.5285 14.0319C17.6677 14.1653 17.6735 14.2118 17.6735 14.8151C17.6735 15.4532 17.6735 15.4648 17.5053 15.633C17.4009 15.7316 17.2733 15.8012 17.1804 15.8012C17.0876 15.8012 16.96 15.7316 16.8556 15.633C16.6932 15.4648 16.6874 15.4474 16.6874 14.8731C16.6874 14.2872 16.7628 13.9913 16.931 13.9275C17.1282 13.8463 17.3951 13.8927 17.5285 14.0319Z" fill="#28519E"/>
<path id="Subtract" fill-rule="evenodd" clip-rule="evenodd" d="M15.3439 10.0196C13.9798 10.4254 12.9694 11.3802 12.4803 12.7408C12.4107 12.7396 12.329 12.7392 12.2322 12.7392C11.7101 12.7392 11.6173 12.7566 11.5071 12.8552C11.3388 13.0119 11.2924 13.2207 11.391 13.4121C11.5129 13.6732 11.6927 13.7312 12.296 13.7138C12.2991 13.7137 12.3022 13.7136 12.3053 13.7135C12.2869 14.1158 12.2798 14.7567 12.2774 15.8769C11.6732 15.8736 10.9719 15.8718 10.1844 15.8718H5.68283L5.5146 16.04C5.33477 16.2198 5.30576 16.3823 5.41598 16.5853C5.43394 16.6198 5.44727 16.6498 5.46601 16.676C5.59854 16.8611 6.00132 16.8529 10.225 16.858C11.0478 16.858 11.7224 16.8579 12.2764 16.8572C12.2763 16.954 12.2763 17.0534 12.2763 17.1556C12.2763 18.1006 12.276 18.8316 12.2815 19.4093C11.6399 19.41 10.9449 19.4104 10.196 19.4104C2.59089 19.4104 2.45166 19.4104 2.0804 19.2944C1.59311 19.1436 1.12903 18.7375 0.896987 18.2618L0.734558 17.9311V12.9133V7.89537L0.885385 7.57631C1.12903 7.05422 1.56991 6.67136 2.1268 6.49732C2.31244 6.43931 4.01794 6.42771 10.3352 6.43351L18.3117 6.44512L18.6423 6.60754C19.0542 6.81058 19.4487 7.23985 19.6285 7.68073L19.7619 8.01139V10.2742C19.5359 10.161 19.2983 10.0657 19.0512 9.99057C18.7614 9.90318 17.8006 9.84263 16.9983 9.83599C16.9547 9.77805 16.8968 9.7288 16.8266 9.69369C16.6468 9.59507 15.8462 9.57767 15.6374 9.66468C15.477 9.72884 15.3752 9.86778 15.3439 10.0196ZM5.11433 10.2738C5.19554 10.0534 5.09693 9.80391 4.87649 9.69369C4.69666 9.59507 3.89611 9.57767 3.68728 9.66468C3.36822 9.7923 3.28121 10.2158 3.51905 10.4478C3.64667 10.5812 3.69888 10.5928 4.25578 10.5928C4.90549 10.587 5.00991 10.5522 5.11433 10.2738ZM8.99521 10.442C9.16344 10.2274 9.15184 9.94893 8.96621 9.7749C8.83859 9.65308 8.75737 9.63568 8.31649 9.61827C7.7828 9.60667 7.48115 9.68789 7.41153 9.86772C7.33612 10.0766 7.37673 10.3376 7.51015 10.4652C7.63197 10.5812 7.70739 10.5928 8.25848 10.5928C8.85599 10.5928 8.87919 10.587 8.99521 10.442ZM12.9747 10.4478C13.1603 10.268 13.1603 10.0127 12.9805 9.79811C12.8471 9.64728 12.8123 9.63568 12.296 9.61827C11.8377 9.60667 11.7275 9.61827 11.5709 9.71689C11.3446 9.85612 11.2808 10.1114 11.4026 10.3492C11.5187 10.5754 11.5767 10.5928 12.2554 10.5928C12.7949 10.5928 12.8471 10.5812 12.9747 10.4478ZM5.08532 13.4353C5.18974 13.2323 5.16074 13.0641 4.98091 12.8668C4.87069 12.7508 4.81268 12.7392 4.26158 12.7392C3.69888 12.7392 3.64667 12.7508 3.51905 12.8843C3.31601 13.0815 3.32761 13.3367 3.54225 13.5572C3.70468 13.7138 3.73949 13.7254 4.20937 13.7254C4.80107 13.7254 4.9635 13.6732 5.08532 13.4353ZM9.11703 13.2149C9.11703 13.0873 9.07063 12.9771 8.97201 12.8843C8.84439 12.7508 8.79218 12.7392 8.22948 12.7392C7.67838 12.7392 7.62037 12.7508 7.50435 12.8726C7.37673 13.0061 7.33612 13.2671 7.41153 13.4644C7.48115 13.6384 7.7596 13.7254 8.24688 13.7254C8.89079 13.7254 9.11123 13.5978 9.11703 13.2149Z" fill="#28519E"/>
</g>
</svg>
