<svg width="20" height="21" viewBox="0 0 20 21" fill="none" xmlns="http://www.w3.org/2000/svg">
<g id="Comment">
<path id="Vector" d="M16.875 3.81055H3.125C2.79348 3.81055 2.47554 3.94224 2.24112 4.17666C2.0067 4.41108 1.875 4.72903 1.875 5.06055V15.0605C1.875 15.3921 2.0067 15.71 2.24112 15.9444C2.47554 16.1789 2.79348 16.3105 3.125 16.3105L7.77344 16.3152L8.92812 18.2035C9.03891 18.3883 9.1956 18.5414 9.38297 18.6478C9.57034 18.7542 9.78203 18.8103 9.9975 18.8108C10.213 18.8113 10.4249 18.756 10.6128 18.6505C10.8006 18.5449 10.9579 18.3925 11.0695 18.2082L12.2289 16.3105H16.875C17.2065 16.3105 17.5245 16.1789 17.7589 15.9444C17.9933 15.71 18.125 15.3921 18.125 15.0605V5.06055C18.125 4.72903 17.9933 4.41108 17.7589 4.17666C17.5245 3.94224 17.2065 3.81055 16.875 3.81055ZM12.5 11.9355H7.5C7.33424 11.9355 7.17527 11.8697 7.05806 11.7525C6.94085 11.6353 6.875 11.4763 6.875 11.3105C6.875 11.1448 6.94085 10.9858 7.05806 10.8686C7.17527 10.7514 7.33424 10.6855 7.5 10.6855H12.5C12.6658 10.6855 12.8247 10.7514 12.9419 10.8686C13.0592 10.9858 13.125 11.1448 13.125 11.3105C13.125 11.4763 13.0592 11.6353 12.9419 11.7525C12.8247 11.8697 12.6658 11.9355 12.5 11.9355ZM12.5 9.43555H7.5C7.33424 9.43555 7.17527 9.3697 7.05806 9.25249C6.94085 9.13528 6.875 8.97631 6.875 8.81055C6.875 8.64479 6.94085 8.48582 7.05806 8.36861C7.17527 8.2514 7.33424 8.18555 7.5 8.18555H12.5C12.6658 8.18555 12.8247 8.2514 12.9419 8.36861C13.0592 8.48582 13.125 8.64479 13.125 8.81055C13.125 8.97631 13.0592 9.13528 12.9419 9.25249C12.8247 9.3697 12.6658 9.43555 12.5 9.43555Z" fill="#343435"/>
</g>
</svg>
