<svg width="25" height="24" viewBox="0 0 25 24" fill="none" xmlns="http://www.w3.org/2000/svg">
<g id="Completed">
<path id="Vector" d="M12.3178 2.25C10.3894 2.25 8.50438 2.82183 6.901 3.89317C5.29763 4.96452 4.04794 6.48726 3.30999 8.26884C2.57203 10.0504 2.37895 12.0108 2.75516 13.9021C3.13136 15.7934 4.05996 17.5307 5.42352 18.8943C6.78709 20.2579 8.52437 21.1865 10.4157 21.5627C12.307 21.9389 14.2674 21.7458 16.049 21.0078C17.8306 20.2699 19.3533 19.0202 20.4246 17.4168C21.496 15.8134 22.0678 13.9284 22.0678 12C22.0651 9.41498 21.037 6.93661 19.2091 5.10872C17.3812 3.28084 14.9028 2.25273 12.3178 2.25ZM16.5984 10.2806L11.3484 15.5306C11.2788 15.6004 11.1961 15.6557 11.105 15.6934C11.014 15.7312 10.9164 15.7506 10.8178 15.7506C10.7193 15.7506 10.6217 15.7312 10.5306 15.6934C10.4396 15.6557 10.3568 15.6004 10.2872 15.5306L8.03719 13.2806C7.89646 13.1399 7.8174 12.949 7.8174 12.75C7.8174 12.551 7.89646 12.3601 8.03719 12.2194C8.17792 12.0786 8.36879 11.9996 8.56781 11.9996C8.76684 11.9996 8.95771 12.0786 9.09844 12.2194L10.8178 13.9397L15.5372 9.21937C15.6069 9.14969 15.6896 9.09442 15.7806 9.0567C15.8717 9.01899 15.9693 8.99958 16.0678 8.99958C16.1664 8.99958 16.2639 9.01899 16.355 9.0567C16.446 9.09442 16.5288 9.14969 16.5984 9.21937C16.6681 9.28906 16.7234 9.37178 16.7611 9.46283C16.7988 9.55387 16.8182 9.65145 16.8182 9.75C16.8182 9.84855 16.7988 9.94613 16.7611 10.0372C16.7234 10.1282 16.6681 10.2109 16.5984 10.2806Z" fill="#2DC26B"/>
</g>
</svg>
