<svg width="16" height="17" viewBox="0 0 16 17" fill="none" xmlns="http://www.w3.org/2000/svg">
<g id="Icons">
<path id="Vector" d="M14.6667 6.50078V5.16745H12.6667V3.83412H11.3333V1.83398H10.0001V3.83425H8.6668V1.83398H7.33346V3.83425H6.00013V1.83398H4.6668V3.83425H3.33346V5.16758H1.33333V6.50092H3.33359V7.83425H1.33333V9.16758H3.33359V10.5009H1.33333V11.834H3.33359V13.1673H4.66693V15.1673H6.00026V13.1673H7.3336V15.1673H8.66693V13.1673H10.0003V15.1673H11.3333V13.1673H12.6667V11.834H14.6667V10.5008H12.6667V9.16745H14.6667V7.83412H12.6667V6.50078H14.6667ZM10.6667 11.1675H5.33346V5.83425H10.6667V11.1675ZM10.0001 6.50078H6.00013V10.5008H10.0001V6.50078Z" fill="#28519E"/>
</g>
</svg>
