<svg width="16" height="17" viewBox="0 0 16 17" fill="none" xmlns="http://www.w3.org/2000/svg">
<g id="Icons">
<path id="Vector" d="M3.75141 14.1636H12.2486C13.0275 14.1636 13.6648 13.5263 13.6648 12.7474V6.13846C13.6648 5.35954 13.0275 4.72225 12.2486 4.72225H9.41621V4.24074C9.41621 3.46655 8.78364 2.83398 7.99057 2.83398C7.21638 2.83398 6.58381 3.46655 6.58381 4.24074V4.72225H3.75141C2.9725 4.72225 2.33521 5.35954 2.33521 6.13846V12.7474C2.33521 13.5263 2.9725 14.1636 3.75141 14.1636ZM11.7766 10.8591H8.94415V9.91499H11.7766V10.8591ZM11.7766 8.97086H8.94415V8.02672H11.7766V8.97086ZM7.52795 4.24074C7.52795 3.98583 7.73566 3.77812 8.00945 3.77812C8.26437 3.77812 8.47208 3.98583 8.47208 4.24074V4.72225H7.52795V4.24074ZM4.22347 7.55466H8.00001V11.3312H4.22347V7.55466Z" fill="#28519E"/>
</g>
</svg>
