<svg width="12" height="13" viewBox="0 0 12 13" fill="none" xmlns="http://www.w3.org/2000/svg">
<path d="M1.75141 12.1646H10.2486C11.0275 12.1646 11.6648 11.5273 11.6648 10.7484V4.13943C11.6648 3.36052 11.0275 2.72323 10.2486 2.72323H7.41621V2.24172C7.41621 1.46753 6.78364 0.834961 5.99057 0.834961C5.21638 0.834961 4.58381 1.46753 4.58381 2.24172V2.72323H1.75141C0.972496 2.72323 0.335205 3.36052 0.335205 4.13943V10.7484C0.335205 11.5273 0.972496 12.1646 1.75141 12.1646ZM9.77655 8.86011H6.94415V7.91597H9.77655V8.86011ZM9.77655 6.97184H6.94415V6.0277H9.77655V6.97184ZM5.52795 2.24172C5.52795 1.9868 5.73566 1.7791 6.00945 1.7791C6.26437 1.7791 6.47208 1.9868 6.47208 2.24172V2.72323H5.52795V2.24172ZM2.22347 5.55563H6.00001V9.33217H2.22347V5.55563Z" fill="#28519E"/>
</svg>
