<svg width="25" height="24" viewBox="0 0 25 24" fill="none" xmlns="http://www.w3.org/2000/svg">
<g id="Icons">
<path id="Vector" d="M21.2015 4.69141H3.16357C2.84293 4.69141 2.58301 4.95133 2.58301 5.27197V18.728C2.58301 19.0487 2.84293 19.3086 3.16357 19.3086H21.2017C21.5224 19.3086 21.7823 19.0487 21.7823 18.728V5.27197C21.7823 4.95133 21.5221 4.69141 21.2015 4.69141ZM6.40141 16.0686C6.40141 16.3892 6.14149 16.6492 5.82085 16.6492C5.50021 16.6492 5.24029 16.3892 5.24029 16.0686V7.93165C5.24029 7.61101 5.50021 7.35109 5.82085 7.35109C6.14149 7.35109 6.40141 7.61101 6.40141 7.93165V16.0686ZM8.94589 16.0686C8.94589 16.3892 8.68597 16.6492 8.36533 16.6492C8.04469 16.6492 7.78477 16.3892 7.78477 16.0686V15.2809C7.78477 14.9603 8.04469 14.7004 8.36533 14.7004C8.68597 14.7004 8.94589 14.9603 8.94589 15.2809V16.0686ZM8.94589 13.0799C8.94589 13.4005 8.68597 13.6604 8.36533 13.6604C8.04469 13.6604 7.78477 13.4005 7.78477 13.0799V7.93189C7.78477 7.61125 8.04469 7.35133 8.36533 7.35133C8.68597 7.35133 8.94589 7.61125 8.94589 7.93189V13.0799ZM11.4904 16.0686C11.4904 16.3892 11.2304 16.6492 10.9098 16.6492C10.5892 16.6492 10.3292 16.3892 10.3292 16.0686V15.2809C10.3292 14.9603 10.5892 14.7004 10.9098 14.7004C11.2304 14.7004 11.4904 14.9603 11.4904 15.2809V16.0686ZM11.4904 13.0799C11.4904 13.4005 11.2304 13.6604 10.9098 13.6604C10.5892 13.6604 10.3292 13.4005 10.3292 13.0799V7.93189C10.3292 7.61125 10.5892 7.35133 10.9098 7.35133C11.2304 7.35133 11.4904 7.61125 11.4904 7.93189V13.0799ZM14.0358 16.0686C14.0358 16.3892 13.7759 16.6492 13.4552 16.6492C13.1346 16.6492 12.8747 16.3892 12.8747 16.0686V7.93165C12.8747 7.61101 13.1346 7.35109 13.4552 7.35109C13.7759 7.35109 14.0358 7.61101 14.0358 7.93165V16.0686ZM16.5803 16.0686C16.5803 16.3892 16.3204 16.6492 15.9997 16.6492C15.6791 16.6492 15.4192 16.3892 15.4192 16.0686V15.2809C15.4192 14.9603 15.6791 14.7004 15.9997 14.7004C16.3204 14.7004 16.5803 14.9603 16.5803 15.2809V16.0686ZM16.5803 13.0799C16.5803 13.4005 16.3204 13.6604 15.9997 13.6604C15.6791 13.6604 15.4192 13.4005 15.4192 13.0799V7.93189C15.4192 7.61125 15.6791 7.35133 15.9997 7.35133C16.3204 7.35133 16.5803 7.61125 16.5803 7.93189V13.0799ZM19.1248 16.0686C19.1248 16.3892 18.8648 16.6492 18.5442 16.6492C18.2236 16.6492 17.9636 16.3892 17.9636 16.0686V7.93165C17.9636 7.61101 18.2236 7.35109 18.5442 7.35109C18.8648 7.35109 19.1248 7.61101 19.1248 7.93165V16.0686Z" fill="#28519E"/>
</g>
</svg>
