<svg width="16" height="17" viewBox="0 0 16 17" fill="none" xmlns="http://www.w3.org/2000/svg">
<path d="M9.76442 6.75603V5.65933C9.76442 5.52876 9.71255 5.40353 9.62022 5.3112C9.52789 5.21886 9.40266 5.16699 9.27208 5.16699H5.82569C5.69511 5.16699 5.56988 5.21886 5.47755 5.3112C5.38522 5.40353 5.33334 5.52876 5.33334 5.65933V6.7671C5.33351 6.84351 5.35138 6.91884 5.38555 6.98717C5.41972 7.05551 5.46926 7.115 5.53028 7.16098L7.1387 8.36722L5.53028 9.57345C5.46926 9.61943 5.41972 9.67892 5.38555 9.74726C5.35138 9.8156 5.33351 9.89092 5.33334 9.96733V11.0751C5.33334 11.2057 5.38522 11.3309 5.47755 11.4232C5.56988 11.5156 5.69511 11.5674 5.82569 11.5674H9.27208C9.40266 11.5674 9.52789 11.5156 9.62022 11.4232C9.71255 11.3309 9.76442 11.2057 9.76442 11.0751V9.97841C9.76425 9.9023 9.74653 9.82725 9.71264 9.7591C9.67875 9.69095 9.62961 9.63153 9.56903 9.58546L7.95722 8.36722L9.56903 7.14898C9.62961 7.1029 9.67875 7.04348 9.71264 6.97533C9.74653 6.90718 9.76425 6.83214 9.76442 6.75603ZM9.27208 5.65933V6.39785H5.82569V5.65933H9.27208ZM9.27208 11.0751H5.82569V9.96733L7.54888 8.67493L9.27208 9.9781V11.0751Z" fill="#28519E"/>
<path d="M14.3373 3.47389C14.2399 3.43346 14.1326 3.42284 14.0291 3.44337C13.9257 3.4639 13.8306 3.51466 13.7559 3.58923L12.9332 4.41396C12.7179 4.17994 12.4959 3.94726 12.2598 3.70791C11.3703 2.81832 10.2384 2.21057 9.0055 1.96062C7.77258 1.71067 6.49334 1.82959 5.32761 2.30252C4.16189 2.77545 3.16139 3.58143 2.45111 4.61973C1.74084 5.65804 1.35229 6.88264 1.33402 8.14051C1.31575 9.39838 1.66857 10.6337 2.34839 11.6922C3.02821 12.7507 4.00488 13.5854 5.15638 14.092C6.30787 14.5986 7.58312 14.7546 8.82279 14.5406C10.0624 14.3265 11.2115 13.7519 12.1265 12.8886C12.1775 12.8404 12.2184 12.7827 12.2471 12.7187C12.2757 12.6547 12.2915 12.5857 12.2935 12.5156C12.2955 12.4455 12.2836 12.3757 12.2586 12.3102C12.2336 12.2447 12.196 12.1848 12.1478 12.1338C12.0997 12.0829 12.042 12.0419 11.978 12.0133C11.914 11.9846 11.845 11.9688 11.7749 11.9669C11.7048 11.9649 11.635 11.9767 11.5695 12.0017C11.504 12.0267 11.4441 12.0643 11.3931 12.1125C10.6307 12.8319 9.67325 13.3107 8.64033 13.489C7.6074 13.6674 6.54481 13.5375 5.5853 13.1155C4.62579 12.6935 3.81189 11.9981 3.24529 11.1162C2.67869 10.2343 2.3845 9.20505 2.39948 8.15694C2.41445 7.10884 2.73793 6.08837 3.3295 5.22304C3.92106 4.3577 4.75449 3.68586 5.72567 3.29144C6.69685 2.89701 7.76271 2.7975 8.79012 3.00532C9.81753 3.21314 10.7609 3.71909 11.5025 4.45996C11.7385 4.69864 11.9605 4.93333 12.1765 5.16868L11.0891 6.25608C11.0144 6.33068 10.9635 6.42576 10.9429 6.52927C10.9223 6.63279 10.9329 6.7401 10.9733 6.83761C11.0137 6.93513 11.0821 7.01846 11.1699 7.07706C11.2577 7.13566 11.3609 7.1669 11.4665 7.16682H14.1333C14.2748 7.16682 14.4104 7.11062 14.5105 7.0106C14.6105 6.91057 14.6667 6.7749 14.6667 6.63345V3.96659C14.6667 3.8611 14.6354 3.75799 14.5767 3.67029C14.5181 3.58259 14.4348 3.51424 14.3373 3.47389Z" fill="#28519E"/>
</svg>
