<svg width="16" height="17" viewBox="0 0 16 17" fill="none" xmlns="http://www.w3.org/2000/svg">
<g id="error">
<path id="Vector" d="M14.7997 12.0193L9.33407 2.52746C9.19749 2.29492 9.00251 2.1021 8.76845 1.96813C8.53439 1.83415 8.26938 1.76367 7.99969 1.76367C7.73 1.76367 7.465 1.83415 7.23094 1.96813C6.99688 2.1021 6.8019 2.29492 6.66532 2.52746L1.19969 12.0193C1.06828 12.2443 0.999023 12.5001 0.999023 12.7606C0.999023 13.0211 1.06828 13.2769 1.19969 13.5018C1.33453 13.7358 1.52918 13.9297 1.76367 14.0635C1.99816 14.1974 2.26406 14.2665 2.53407 14.2637H13.4653C13.7351 14.2663 14.0008 14.1971 14.235 14.0632C14.4693 13.9294 14.6637 13.7356 14.7984 13.5018C14.93 13.277 14.9995 13.0213 14.9997 12.7608C15 12.5003 14.9309 12.2444 14.7997 12.0193ZM7.49969 6.76371C7.49969 6.6311 7.55237 6.50393 7.64614 6.41016C7.73991 6.31639 7.86709 6.26371 7.99969 6.26371C8.1323 6.26371 8.25948 6.31639 8.35325 6.41016C8.44702 6.50393 8.49969 6.6311 8.49969 6.76371V9.26371C8.49969 9.39632 8.44702 9.5235 8.35325 9.61727C8.25948 9.71103 8.1323 9.76371 7.99969 9.76371C7.86709 9.76371 7.73991 9.71103 7.64614 9.61727C7.55237 9.5235 7.49969 9.39632 7.49969 9.26371V6.76371ZM7.99969 12.2637C7.85136 12.2637 7.70635 12.2197 7.58302 12.1373C7.45968 12.0549 7.36355 11.9378 7.30678 11.8007C7.25002 11.6637 7.23517 11.5129 7.2641 11.3674C7.29304 11.2219 7.36447 11.0883 7.46936 10.9834C7.57425 10.8785 7.70789 10.8071 7.85338 10.7781C7.99886 10.7492 8.14966 10.764 8.28671 10.8208C8.42375 10.8776 8.54088 10.9737 8.6233 11.097C8.70571 11.2204 8.74969 11.3654 8.74969 11.5137C8.74969 11.7126 8.67068 11.9034 8.53002 12.044C8.38937 12.1847 8.19861 12.2637 7.99969 12.2637Z" fill="#CC1A07"/>
</g>
</svg>
