<svg width="12" height="10" viewBox="0 0 12 10" fill="none" xmlns="http://www.w3.org/2000/svg">
<g id="Group">
<path id="Vector" d="M0.954773 0.324593C0.7569 0.388422 0.52073 0.602252 0.428177 0.803316C0.37073 0.921401 0.351581 1.02034 0.351581 1.18949C0.351581 1.58842 0.326049 1.55651 2.16435 3.37566L3.81435 5.00332L2.15158 6.65332C1.23562 7.5597 0.460092 8.35438 0.428177 8.41502C0.345198 8.5714 0.342007 9.05332 0.424985 9.21608C0.632432 9.63417 1.1303 9.82566 1.5803 9.6597C1.76222 9.58949 1.86116 9.49693 3.82392 7.54055C5.71967 5.65119 5.87924 5.48204 5.93988 5.31927C6.02286 5.09587 6.01328 4.8214 5.90796 4.61076C5.80265 4.39374 1.84839 0.471401 1.63137 0.369273C1.44626 0.283103 1.14945 0.260763 0.954773 0.324593Z" fill="#002C3F"/>
<path id="Vector_2" d="M6.61341 0.334115C6.38043 0.420285 6.22405 0.554328 6.11235 0.771349C5.98788 1.0139 5.9783 1.32986 6.08682 1.55326C6.13788 1.65539 6.63894 2.1788 7.8166 3.35326L9.47299 5.00965L7.81979 6.65007C6.5815 7.8756 6.14745 8.3288 6.0932 8.4405C5.99107 8.64795 5.98788 9.01177 6.08682 9.20007C6.19533 9.40433 6.31341 9.5288 6.49213 9.62135C6.62937 9.69156 6.69639 9.70433 6.91022 9.70752C7.12405 9.70752 7.19107 9.69475 7.31554 9.62773C7.41767 9.57348 8.11022 8.90965 9.47618 7.55965C11.7166 5.34475 11.6623 5.40539 11.6623 5.00326C11.6592 4.60752 11.7294 4.68411 9.50809 2.48199C7.99533 0.978796 7.45596 0.461775 7.32831 0.394753C7.1049 0.273477 6.8432 0.251136 6.61341 0.334115Z" fill="#002C3F"/>
</g>
</svg>
