<svg width="16" height="16" viewBox="0 0 16 16" fill="none" xmlns="http://www.w3.org/2000/svg">
<path d="M4.7 2.33333C3.78667 3.25333 3.78667 4.73333 4.7 5.64666L10.36 11.3C10.7467 11.6933 10.7467 12.3333 10.36 12.7133C9.96667 13.1067 9.33334 13.1067 8.94 12.7133L6.11334 9.88666L6.82 9.17999L4.46667 6.81999L4.22667 7.05999L3.28667 6.11333C3.02667 5.85333 2.60667 5.85333 2.33334 6.11333L1.4 7.05999C1.14 7.33333 1.14 7.73999 1.4 7.99999L2.33334 8.93999L2.10667 9.17999L4.46667 11.5333L5.17334 10.8267L8 13.6667C8.91334 14.5667 10.3867 14.5667 11.3 13.6667C12.2133 12.7467 12.2133 11.2667 11.3 10.36L5.64 4.69999C5.25334 4.30666 5.25334 3.66666 5.64 3.28666C6.03334 2.89333 6.66667 2.89333 7.06 3.28666L9.88667 6.11333L9.18 6.81999L11.5333 9.17999L11.7733 8.93999L12.7133 9.88666C12.9733 10.1467 13.4 10.1467 13.6667 9.88666L14.6 8.93999C14.86 8.66666 14.86 8.25999 14.6 7.99999L13.6667 7.05999L13.8933 6.81999L11.5333 4.46666L10.8267 5.17333L8 2.33333C7.08667 1.43333 5.61334 1.43333 4.7 2.33333ZM1.87334 7.52666L2.81334 6.58666L3.76 7.52666L2.81334 8.47333M12.24 8.47333L13.1867 7.52666L14.1267 8.47333L13.1867 9.41333L12.24 8.47333Z" fill="#28519E"/>
</svg>
