<svg width="14" height="13" viewBox="0 0 14 13" fill="none" xmlns="http://www.w3.org/2000/svg">
<path d="M3.70002 0.833447C2.78668 1.75345 2.78668 3.23345 3.70002 4.14678L9.36002 9.80011C9.74668 10.1934 9.74668 10.8334 9.36002 11.2134C8.96668 11.6068 8.33335 11.6068 7.94002 11.2134L5.11335 8.38678L5.82002 7.68011L3.46668 5.32011L3.22668 5.56011L2.28668 4.61345C2.02668 4.35345 1.60668 4.35345 1.33335 4.61345L0.400017 5.56011C0.140017 5.83345 0.140017 6.24011 0.400017 6.50011L1.33335 7.44011L1.10668 7.68011L3.46668 10.0334L4.17335 9.32678L7.00002 12.1668C7.91335 13.0668 9.38668 13.0668 10.3 12.1668C11.2134 11.2468 11.2134 9.76678 10.3 8.86011L4.64002 3.20011C4.25335 2.80678 4.25335 2.16678 4.64002 1.78678C5.03335 1.39345 5.66668 1.39345 6.06002 1.78678L8.88668 4.61345L8.18002 5.32011L10.5334 7.68011L10.7734 7.44011L11.7134 8.38678C11.9734 8.64678 12.4 8.64678 12.6667 8.38678L13.6 7.44011C13.86 7.16678 13.86 6.76011 13.6 6.50011L12.6667 5.56011L12.8934 5.32011L10.5334 2.96678L9.82668 3.67345L7.00002 0.833447C6.08668 -0.0665527 4.61335 -0.0665527 3.70002 0.833447ZM0.87335 6.02678L1.81335 5.08678L2.76002 6.02678L1.81335 6.97345M11.24 6.97345L12.1867 6.02678L13.1267 6.97345L12.1867 7.91345L11.24 6.97345Z" fill="#28519E"/>
</svg>
