<svg width="25" height="24" viewBox="0 0 25 24" fill="none" xmlns="http://www.w3.org/2000/svg">
<g id="Icons">
<path id="Vector" d="M13.8174 1.5H10.8174C9.22662 1.50174 7.7015 2.13444 6.57666 3.25928C5.45182 4.38412 4.81912 5.90923 4.81738 7.5V16.5C4.81912 18.0908 5.45182 19.6159 6.57666 20.7407C7.7015 21.8656 9.22662 22.4983 10.8174 22.5H13.8174C15.4081 22.4983 16.9333 21.8656 18.0581 20.7407C19.1829 19.6159 19.8156 18.0908 19.8174 16.5V7.5C19.8156 5.90923 19.1829 4.38412 18.0581 3.25928C16.9333 2.13444 15.4081 1.50174 13.8174 1.5ZM18.3174 7.5V9.75H13.0674V3H13.8174C15.0105 3.00124 16.1543 3.47575 16.998 4.31939C17.8416 5.16303 18.3161 6.30691 18.3174 7.5ZM10.8174 3H11.5674V9.75H6.31738V7.5C6.31862 6.30691 6.79313 5.16303 7.63677 4.31939C8.48042 3.47575 9.62429 3.00124 10.8174 3Z" fill="#28519E"/>
</g>
</svg>
