<svg width="16" height="16" viewBox="0 0 16 16" fill="none" xmlns="http://www.w3.org/2000/svg">
<path d="M14.2222 12.8H1.77778C0.777778 12.8 0 12.1 0 11.2V4.80001C0 3.92501 0.777778 3.20001 1.77778 3.20001H14.2222C15.1944 3.20001 16 3.92501 16 4.80001V11.2C16 12.1 15.1944 12.8 14.2222 12.8ZM3.55556 6.10001V5.10001C3.55556 4.95001 3.38889 4.80001 3.22222 4.80001H2.11111C1.91667 4.80001 1.77778 4.95001 1.77778 5.10001V6.10001C1.77778 6.27501 1.91667 6.40001 2.11111 6.40001H3.22222C3.38889 6.40001 3.55556 6.27501 3.55556 6.10001ZM6.22222 6.10001V5.10001C6.22222 4.95001 6.05556 4.80001 5.88889 4.80001H4.77778C4.58333 4.80001 4.44444 4.95001 4.44444 5.10001V6.10001C4.44444 6.27501 4.58333 6.40001 4.77778 6.40001H5.88889C6.05556 6.40001 6.22222 6.27501 6.22222 6.10001ZM8.88889 6.10001V5.10001C8.88889 4.95001 8.72222 4.80001 8.55556 4.80001H7.44444C7.25 4.80001 7.11111 4.95001 7.11111 5.10001V6.10001C7.11111 6.27501 7.25 6.40001 7.44444 6.40001H8.55556C8.72222 6.40001 8.88889 6.27501 8.88889 6.10001ZM11.5556 6.10001V5.10001C11.5556 4.95001 11.3889 4.80001 11.2222 4.80001H10.1111C9.91667 4.80001 9.77778 4.95001 9.77778 5.10001V6.10001C9.77778 6.27501 9.91667 6.40001 10.1111 6.40001H11.2222C11.3889 6.40001 11.5556 6.27501 11.5556 6.10001ZM14.2222 6.10001V5.10001C14.2222 4.95001 14.0556 4.80001 13.8889 4.80001H12.7778C12.5833 4.80001 12.4444 4.95001 12.4444 5.10001V6.10001C12.4444 6.27501 12.5833 6.40001 12.7778 6.40001H13.8889C14.0556 6.40001 14.2222 6.27501 14.2222 6.10001ZM3.55556 8.50001V7.50001C3.55556 7.35001 3.38889 7.20001 3.22222 7.20001H2.11111C1.91667 7.20001 1.77778 7.35001 1.77778 7.50001V8.50001C1.77778 8.67501 1.91667 8.80001 2.11111 8.80001H3.22222C3.38889 8.80001 3.55556 8.67501 3.55556 8.50001ZM6.22222 8.50001V7.50001C6.22222 7.35001 6.05556 7.20001 5.88889 7.20001H4.77778C4.58333 7.20001 4.44444 7.35001 4.44444 7.50001V8.50001C4.44444 8.67501 4.58333 8.80001 4.77778 8.80001H5.88889C6.05556 8.80001 6.22222 8.67501 6.22222 8.50001ZM8.88889 8.50001V7.50001C8.88889 7.35001 8.72222 7.20001 8.55556 7.20001H7.44444C7.25 7.20001 7.11111 7.35001 7.11111 7.50001V8.50001C7.11111 8.67501 7.25 8.80001 7.44444 8.80001H8.55556C8.72222 8.80001 8.88889 8.67501 8.88889 8.50001ZM11.5556 8.50001V7.50001C11.5556 7.35001 11.3889 7.20001 11.2222 7.20001H10.1111C9.91667 7.20001 9.77778 7.35001 9.77778 7.50001V8.50001C9.77778 8.67501 9.91667 8.80001 10.1111 8.80001H11.2222C11.3889 8.80001 11.5556 8.67501 11.5556 8.50001ZM14.2222 8.50001V7.50001C14.2222 7.35001 14.0556 7.20001 13.8889 7.20001H12.7778C12.5833 7.20001 12.4444 7.35001 12.4444 7.50001V8.50001C12.4444 8.67501 12.5833 8.80001 12.7778 8.80001H13.8889C14.0556 8.80001 14.2222 8.67501 14.2222 8.50001ZM3.55556 10.9V9.90001C3.55556 9.75001 3.38889 9.60001 3.22222 9.60001H2.11111C1.91667 9.60001 1.77778 9.75001 1.77778 9.90001V10.9C1.77778 11.075 1.91667 11.2 2.11111 11.2H3.22222C3.38889 11.2 3.55556 11.075 3.55556 10.9ZM11.5556 10.9V9.90001C11.5556 9.75001 11.3889 9.60001 11.2222 9.60001H4.77778C4.58333 9.60001 4.44444 9.75001 4.44444 9.90001V10.9C4.44444 11.075 4.58333 11.2 4.77778 11.2H11.2222C11.3889 11.2 11.5556 11.075 11.5556 10.9ZM14.2222 10.9V9.90001C14.2222 9.75001 14.0556 9.60001 13.8889 9.60001H12.7778C12.5833 9.60001 12.4444 9.75001 12.4444 9.90001V10.9C12.4444 11.075 12.5833 11.2 12.7778 11.2H13.8889C14.0556 11.2 14.2222 11.075 14.2222 10.9Z" fill="#28519E"/>
</svg>
