<svg width="16" height="17" viewBox="0 0 16 17" fill="none" xmlns="http://www.w3.org/2000/svg">
<path d="M14.2222 13.2997H1.77778C0.777778 13.2997 0 12.5997 0 11.6997V5.29971C0 4.42471 0.777778 3.69971 1.77778 3.69971H14.2222C15.1944 3.69971 16 4.42471 16 5.29971V11.6997C16 12.5997 15.1944 13.2997 14.2222 13.2997ZM3.55556 6.59971V5.59971C3.55556 5.44971 3.38889 5.29971 3.22222 5.29971H2.11111C1.91667 5.29971 1.77778 5.44971 1.77778 5.59971V6.59971C1.77778 6.77471 1.91667 6.89971 2.11111 6.89971H3.22222C3.38889 6.89971 3.55556 6.77471 3.55556 6.59971ZM6.22222 6.59971V5.59971C6.22222 5.44971 6.05556 5.29971 5.88889 5.29971H4.77778C4.58333 5.29971 4.44444 5.44971 4.44444 5.59971V6.59971C4.44444 6.77471 4.58333 6.89971 4.77778 6.89971H5.88889C6.05556 6.89971 6.22222 6.77471 6.22222 6.59971ZM8.88889 6.59971V5.59971C8.88889 5.44971 8.72222 5.29971 8.55556 5.29971H7.44444C7.25 5.29971 7.11111 5.44971 7.11111 5.59971V6.59971C7.11111 6.77471 7.25 6.89971 7.44444 6.89971H8.55556C8.72222 6.89971 8.88889 6.77471 8.88889 6.59971ZM11.5556 6.59971V5.59971C11.5556 5.44971 11.3889 5.29971 11.2222 5.29971H10.1111C9.91667 5.29971 9.77778 5.44971 9.77778 5.59971V6.59971C9.77778 6.77471 9.91667 6.89971 10.1111 6.89971H11.2222C11.3889 6.89971 11.5556 6.77471 11.5556 6.59971ZM14.2222 6.59971V5.59971C14.2222 5.44971 14.0556 5.29971 13.8889 5.29971H12.7778C12.5833 5.29971 12.4444 5.44971 12.4444 5.59971V6.59971C12.4444 6.77471 12.5833 6.89971 12.7778 6.89971H13.8889C14.0556 6.89971 14.2222 6.77471 14.2222 6.59971ZM3.55556 8.99971V7.99971C3.55556 7.84971 3.38889 7.69971 3.22222 7.69971H2.11111C1.91667 7.69971 1.77778 7.84971 1.77778 7.99971V8.99971C1.77778 9.17471 1.91667 9.29971 2.11111 9.29971H3.22222C3.38889 9.29971 3.55556 9.17471 3.55556 8.99971ZM6.22222 8.99971V7.99971C6.22222 7.84971 6.05556 7.69971 5.88889 7.69971H4.77778C4.58333 7.69971 4.44444 7.84971 4.44444 7.99971V8.99971C4.44444 9.17471 4.58333 9.29971 4.77778 9.29971H5.88889C6.05556 9.29971 6.22222 9.17471 6.22222 8.99971ZM8.88889 8.99971V7.99971C8.88889 7.84971 8.72222 7.69971 8.55556 7.69971H7.44444C7.25 7.69971 7.11111 7.84971 7.11111 7.99971V8.99971C7.11111 9.17471 7.25 9.29971 7.44444 9.29971H8.55556C8.72222 9.29971 8.88889 9.17471 8.88889 8.99971ZM11.5556 8.99971V7.99971C11.5556 7.84971 11.3889 7.69971 11.2222 7.69971H10.1111C9.91667 7.69971 9.77778 7.84971 9.77778 7.99971V8.99971C9.77778 9.17471 9.91667 9.29971 10.1111 9.29971H11.2222C11.3889 9.29971 11.5556 9.17471 11.5556 8.99971ZM14.2222 8.99971V7.99971C14.2222 7.84971 14.0556 7.69971 13.8889 7.69971H12.7778C12.5833 7.69971 12.4444 7.84971 12.4444 7.99971V8.99971C12.4444 9.17471 12.5833 9.29971 12.7778 9.29971H13.8889C14.0556 9.29971 14.2222 9.17471 14.2222 8.99971ZM3.55556 11.3997V10.3997C3.55556 10.2497 3.38889 10.0997 3.22222 10.0997H2.11111C1.91667 10.0997 1.77778 10.2497 1.77778 10.3997V11.3997C1.77778 11.5747 1.91667 11.6997 2.11111 11.6997H3.22222C3.38889 11.6997 3.55556 11.5747 3.55556 11.3997ZM11.5556 11.3997V10.3997C11.5556 10.2497 11.3889 10.0997 11.2222 10.0997H4.77778C4.58333 10.0997 4.44444 10.2497 4.44444 10.3997V11.3997C4.44444 11.5747 4.58333 11.6997 4.77778 11.6997H11.2222C11.3889 11.6997 11.5556 11.5747 11.5556 11.3997ZM14.2222 11.3997V10.3997C14.2222 10.2497 14.0556 10.0997 13.8889 10.0997H12.7778C12.5833 10.0997 12.4444 10.2497 12.4444 10.3997V11.3997C12.4444 11.5747 12.5833 11.6997 12.7778 11.6997H13.8889C14.0556 11.6997 14.2222 11.5747 14.2222 11.3997Z" fill="#28519E"/>
</svg>
