<svg width="20" height="20" viewBox="0 0 20 20" fill="none" xmlns="http://www.w3.org/2000/svg">
<g id="laptop-solid 2">
<path id="Vector" d="M17.5833 10.4168L18.75 11.5918L13.3083 17.0835L10.4167 14.1668L11.5833 12.9918L13.3083 14.7252L17.5833 10.4168ZM8.33333 14.1668L10.8333 16.6668H2.5V15.0002C2.5 13.1585 5.48333 11.6668 9.16667 11.6668L10.7417 11.7585L8.33333 14.1668ZM9.16667 3.3335C10.0507 3.3335 10.8986 3.68469 11.5237 4.30981C12.1488 4.93493 12.5 5.78277 12.5 6.66683C12.5 7.55088 12.1488 8.39873 11.5237 9.02385C10.8986 9.64897 10.0507 10.0002 9.16667 10.0002C8.28261 10.0002 7.43476 9.64897 6.80964 9.02385C6.18452 8.39873 5.83333 7.55088 5.83333 6.66683C5.83333 5.78277 6.18452 4.93493 6.80964 4.30981C7.43476 3.68469 8.28261 3.3335 9.16667 3.3335Z" fill="#28519E"/>
</g>
</svg>
