<svg width="24" height="24" viewBox="0 0 24 24" fill="none" xmlns="http://www.w3.org/2000/svg">
<path d="M19.5003 9.00011C19.5003 8.7776 19.5662 8.5601 19.6899 8.37509C19.8135 8.19008 19.9892 8.04589 20.1947 7.96074C20.4003 7.87559 20.6265 7.85331 20.8447 7.89672C21.063 7.94013 21.2634 8.04728 21.4208 8.20461C21.5781 8.36195 21.6852 8.5624 21.7286 8.78063C21.7721 8.99886 21.7498 9.22506 21.6646 9.43062C21.5795 9.63619 21.4353 9.81189 21.2503 9.93551C21.0653 10.0591 20.8478 10.1251 20.6253 10.1251C20.3269 10.1251 20.0407 10.0066 19.8298 9.7956C19.6188 9.58462 19.5003 9.29847 19.5003 9.00011ZM18.3753 6.75011C18.5978 6.75011 18.8153 6.68413 19.0003 6.56051C19.1853 6.43689 19.3295 6.26119 19.4146 6.05563C19.4998 5.85006 19.5221 5.62386 19.4786 5.40563C19.4352 5.1874 19.3281 4.98695 19.1708 4.82961C19.0134 4.67228 18.813 4.56513 18.5947 4.52172C18.3765 4.47831 18.1503 4.50059 17.9447 4.58574C17.7392 4.67089 17.5635 4.81508 17.4399 5.00009C17.3162 5.1851 17.2503 5.4026 17.2503 5.62511C17.2503 5.92348 17.3688 6.20962 17.5798 6.4206C17.7907 6.63158 18.0769 6.75011 18.3753 6.75011ZM21.0621 12.0001C20.864 11.9838 20.6675 12.0468 20.5157 12.1753C20.364 12.3038 20.2696 12.4873 20.2531 12.6854C20.1189 14.2533 19.5396 15.7503 18.5835 17.0002C17.6273 18.2501 16.3341 19.2009 14.8559 19.7407C13.3778 20.2806 11.7761 20.387 10.2395 20.0475C8.70294 19.708 7.29528 18.9366 6.18218 17.8242C5.06908 16.7118 4.29686 15.3047 3.95637 13.7683C3.61588 12.2319 3.72129 10.6302 4.2602 9.15169C4.79911 7.67318 5.7491 6.37935 6.99839 5.42243C8.24768 4.46551 9.74429 3.88531 11.3121 3.75011C11.4106 3.74198 11.5066 3.71454 11.5944 3.66934C11.6823 3.62414 11.7604 3.56207 11.8243 3.48668C11.8882 3.41129 11.9367 3.32406 11.9669 3.22995C11.997 3.13585 12.0084 3.03672 12.0003 2.93823C11.9921 2.83974 11.9647 2.74381 11.9195 2.65593C11.8743 2.56804 11.8122 2.48992 11.7368 2.42602C11.6615 2.36213 11.5742 2.3137 11.4801 2.28352C11.386 2.25333 11.2869 2.24198 11.1884 2.25011C9.33591 2.40945 7.56748 3.09455 6.09114 4.22482C4.61481 5.35508 3.49199 6.88348 2.85479 8.6302C2.21759 10.3769 2.09252 12.2693 2.49428 14.0847C2.89605 15.9001 3.80794 17.563 5.12268 18.8777C6.43741 20.1924 8.10029 21.1043 9.91568 21.5061C11.7311 21.9079 13.6234 21.7828 15.3702 21.1456C17.1169 20.5084 18.6453 19.3856 19.7756 17.9092C20.9058 16.4329 21.5909 14.6645 21.7503 12.812C21.7587 12.7134 21.7476 12.6142 21.7176 12.5199C21.6875 12.4257 21.6391 12.3383 21.5752 12.2628C21.5112 12.1874 21.4329 12.1253 21.3449 12.0802C21.2568 12.0351 21.1608 12.0079 21.0621 12.0001ZM12.0003 5.25011C13.3353 5.25011 14.6403 5.64599 15.7504 6.38769C16.8604 7.12939 17.7256 8.18359 18.2365 9.41699C18.7473 10.6504 18.881 12.0076 18.6206 13.317C18.3601 14.6263 17.7172 15.8291 16.7732 16.7731C15.8292 17.7171 14.6265 18.36 13.3171 18.6204C12.0078 18.8809 10.6505 18.7472 9.41715 18.2363C8.18375 17.7254 7.12954 16.8602 6.38784 15.7502C5.64614 14.6402 5.25026 13.3351 5.25026 12.0001C5.25225 10.2105 5.96404 8.49477 7.22948 7.22933C8.49492 5.96389 10.2107 5.25209 12.0003 5.25011ZM11.2503 12.0001C11.2503 12.199 11.3293 12.3898 11.4699 12.5304C11.6106 12.6711 11.8013 12.7501 12.0003 12.7501H16.5003C16.6992 12.7501 16.8899 12.6711 17.0306 12.5304C17.1712 12.3898 17.2503 12.199 17.2503 12.0001C17.2503 11.8012 17.1712 11.6104 17.0306 11.4698C16.8899 11.3291 16.6992 11.2501 16.5003 11.2501H12.7503V7.50011C12.7503 7.30119 12.6712 7.11043 12.5306 6.96978C12.3899 6.82912 12.1992 6.75011 12.0003 6.75011C11.8013 6.75011 11.6106 6.82912 11.4699 6.96978C11.3293 7.11043 11.2503 7.30119 11.2503 7.50011V12.0001ZM15.0003 4.50011C15.2228 4.50011 15.4403 4.43413 15.6253 4.31051C15.8103 4.18689 15.9545 4.01119 16.0396 3.80563C16.1248 3.60006 16.1471 3.37386 16.1036 3.15563C16.0602 2.9374 15.9531 2.73695 15.7958 2.57961C15.6384 2.42228 15.438 2.31513 15.2197 2.27172C15.0015 2.22831 14.7753 2.25059 14.5697 2.33574C14.3642 2.42089 14.1885 2.56508 14.0649 2.75009C13.9412 2.9351 13.8753 3.1526 13.8753 3.37511C13.8753 3.67348 13.9938 3.95962 14.2048 4.1706C14.4157 4.38158 14.7019 4.50011 15.0003 4.50011Z" fill="#002C3F"/>
</svg>
