<svg width="10" height="15" viewBox="0 0 10 15" fill="none" xmlns="http://www.w3.org/2000/svg">
<path d="M6 0.5H4C2.93949 0.501158 1.92275 0.922957 1.17285 1.67285C0.422957 2.42275 0.00115803 3.43949 0 4.5V10.5C0.00115803 11.5605 0.422957 12.5773 1.17285 13.3271C1.92275 14.077 2.93949 14.4988 4 14.5H6C7.06051 14.4988 8.07725 14.077 8.82715 13.3271C9.57704 12.5773 9.99884 11.5605 10 10.5V4.5C9.99884 3.43949 9.57704 2.42275 8.82715 1.67285C8.07725 0.922957 7.06051 0.501158 6 0.5ZM9 4.5V6H5.5V1.5H6C6.7954 1.50083 7.55798 1.81716 8.12041 2.37959C8.68284 2.94202 8.99917 3.7046 9 4.5ZM4 1.5H4.5V6H1V4.5C1.00083 3.7046 1.31716 2.94202 1.87959 2.37959C2.44202 1.81716 3.2046 1.50083 4 1.5Z" fill="#28519E"/>
</svg>
