<svg width="16" height="16" viewBox="0 0 16 16" fill="none" xmlns="http://www.w3.org/2000/svg">
<g id="Icons">
<path id="Vector" d="M3.75141 13.6651H12.2486C13.0275 13.6651 13.6648 13.0278 13.6648 12.2489V5.63992C13.6648 4.86101 13.0275 4.22372 12.2486 4.22372H9.41621V3.74221C9.41621 2.96802 8.78364 2.33545 7.99057 2.33545C7.21638 2.33545 6.58381 2.96802 6.58381 3.74221V4.22372H3.75141C2.9725 4.22372 2.33521 4.86101 2.33521 5.63992V12.2489C2.33521 13.0278 2.9725 13.6651 3.75141 13.6651ZM11.7766 10.3606H8.94415V9.41646H11.7766V10.3606ZM11.7766 8.47232H8.94415V7.52819H11.7766V8.47232ZM7.52795 3.74221C7.52795 3.48729 7.73566 3.27958 8.00945 3.27958C8.26437 3.27958 8.47208 3.48729 8.47208 3.74221V4.22372H7.52795V3.74221ZM4.22347 7.05612H8.00001V10.8327H4.22347V7.05612Z" fill="#28519E"/>
</g>
</svg>
