<svg width="16" height="16" viewBox="0 0 16 16" fill="none" xmlns="http://www.w3.org/2000/svg">
<path d="M14.6667 6.00014V4.66681H12.6667V3.33348H11.3333V1.33334H10.0001V3.33361H8.6668V1.33334H7.33346V3.33361H6.00013V1.33334H4.6668V3.33361H3.33346V4.66694H1.33333V6.00028H3.33359V7.33361H1.33333V8.66694H3.33359V10.0003H1.33333V11.3333H3.33359V12.6667H4.66693V14.6667H6.00026V12.6667H7.3336V14.6667H8.66693V12.6667H10.0003V14.6667H11.3333V12.6667H12.6667V11.3333H14.6667V10.0001H12.6667V8.66681H14.6667V7.33348H12.6667V6.00014H14.6667ZM10.6667 10.6668H5.33346V5.33361H10.6667V10.6668ZM10.0001 6.00014H6.00013V10.0001H10.0001V6.00014Z" fill="#28519E"/>
</svg>
