<svg width="14" height="15" viewBox="0 0 14 15" fill="none" xmlns="http://www.w3.org/2000/svg">
<path d="M13.6667 5.49981V4.16647H11.6667V2.83314H10.3333V0.833008H9.00013V2.83327H7.6668V0.833008H6.33346V2.83327H5.00013V0.833008H3.6668V2.83327H2.33346V4.16661H0.333328V5.49994H2.33359V6.83327H0.333328V8.16661H2.33359V9.49994H0.333328V10.833H2.33359V12.1663H3.66693V14.1663H5.00026V12.1663H6.3336V14.1663H7.66693V12.1663H9.00026V14.1663H10.3333V12.1663H11.6667V10.833H13.6667V9.49981H11.6667V8.16647H13.6667V6.83314H11.6667V5.49981H13.6667ZM9.66666 10.1665H4.33346V4.83327H9.66666V10.1665ZM9.00013 5.49981H5.00013V9.49981H9.00013V5.49981Z" fill="#28519E"/>
</svg>
