<svg width="16" height="9" viewBox="0 0 16 9" fill="none" xmlns="http://www.w3.org/2000/svg">
<g id="Group">
<path id="Vector" d="M7.00708 4.39697L7.00708 1.88135L6.05832 1.88135L6.05832 4.39697L7.00708 4.39697Z" fill="#28519E"/>
<path id="Vector_2" d="M12.8763 4.39697L12.8763 1.88135L11.9276 1.88135L11.9276 4.39697L12.8763 4.39697Z" fill="#28519E"/>
<path id="Vector_3" d="M16 3.15333L15.6672 3.15333C15.375 3.15333 15.137 2.91953 15.137 2.63245C15.137 2.3325 15.3889 2.11156 15.6672 2.11156L16 2.11156L16 1.34066C16 0.604277 15.403 0.00732419 14.6667 0.00732416L1.33333 0.00732358C0.596953 0.00732355 -5.02931e-07 0.604277 -5.35119e-07 1.34066L-5.68817e-07 2.11157L0.33278 2.11157C0.47616 2.11157 0.614141 2.1678 0.716948 2.27436C0.808925 2.3661 0.863035 2.49632 0.863035 2.63245C0.863035 2.91954 0.624957 3.15334 0.33278 3.15334L-6.14354e-07 3.15334L-7.97081e-07 7.33366C-8.2927e-07 8.07004 0.596953 8.66699 1.33333 8.66699L14.6667 8.66699C15.403 8.66699 16 8.07004 16 7.33366L16 3.15333ZM2.58244 4.98906L2.58244 1.28961L4.61363 1.28961L4.61363 4.98906L2.58244 4.98906ZM5.51721 4.98906L5.51721 1.28961L7.54815 1.28961L7.54815 4.98906L5.51721 4.98906ZM8.45198 4.98906L8.45198 1.28961L10.4829 1.28961L10.4829 4.98906L8.45198 4.98906ZM11.3865 4.98906L11.3865 1.28961L13.4174 1.28961L13.4174 4.98906L11.3865 4.98906ZM2.44743 7.47491L2.44743 6.0197L2.98852 6.0197L2.98852 7.47491L2.44743 7.47491ZM3.93727 7.47491L3.93727 6.0197L4.47836 6.0197L4.47836 7.47491L3.93727 7.47491ZM5.42712 7.47491L5.42712 6.0197L5.96821 6.0197L5.96821 7.47491L5.42712 7.47491ZM6.91696 7.47491L6.91696 6.0197L7.45805 6.0197L7.45805 7.47491L6.91696 7.47491ZM8.40681 7.47491L8.40681 6.0197L8.94789 6.0197L8.94789 7.47491L8.40681 7.47491ZM9.89665 7.47491L9.89665 6.0197L10.4377 6.0197L10.4377 7.47491L9.89665 7.47491ZM11.3865 7.47491L11.3865 6.0197L11.9276 6.0197L11.9276 7.47491L11.3865 7.47491ZM12.8763 7.47491L12.8763 6.0197L13.4174 6.0197L13.4174 7.47491L12.8763 7.47491Z" fill="#28519E"/>
<path id="Vector_4" d="M9.9418 4.39697L9.9418 1.88135L8.99305 1.88135L8.99305 4.39697L9.9418 4.39697Z" fill="#28519E"/>
<path id="Vector_5" d="M4.07251 4.39697L4.07251 1.88135L3.12349 1.88135L3.12349 4.39697L4.07251 4.39697Z" fill="#28519E"/>
</g>
</svg>
