<svg width="16" height="10" viewBox="0 0 16 10" fill="none" xmlns="http://www.w3.org/2000/svg">
<path d="M7.00708 4.89746L7.00708 2.38184L6.05832 2.38184L6.05832 4.89746L7.00708 4.89746Z" fill="#28519E"/>
<path d="M12.8763 4.89746L12.8763 2.38184L11.9275 2.38184L11.9275 4.89746L12.8763 4.89746Z" fill="#28519E"/>
<path d="M16 3.65382L15.6672 3.65382C15.375 3.65382 15.137 3.42002 15.137 3.13294C15.137 2.83299 15.3889 2.61205 15.6672 2.61205L16 2.61205L16 1.84115C16 1.10477 15.403 0.507812 14.6667 0.507812L1.33333 0.507812C0.596953 0.507812 -5.02931e-07 1.10477 -5.35119e-07 1.84114L-5.68817e-07 2.61205L0.33278 2.61205C0.47616 2.61205 0.614141 2.66829 0.716948 2.77484C0.808925 2.86659 0.863035 2.99681 0.863035 3.13294C0.863035 3.42003 0.624957 3.65382 0.33278 3.65382L-6.14354e-07 3.65382L-7.97081e-07 7.83415C-8.2927e-07 8.57053 0.596953 9.16748 1.33333 9.16748L14.6667 9.16748C15.403 9.16748 16 8.57053 16 7.83415L16 3.65382ZM2.58244 5.48955L2.58244 1.7901L4.61363 1.7901L4.61363 5.48955L2.58244 5.48955ZM5.51721 5.48955L5.51721 1.7901L7.54815 1.7901L7.54815 5.48955L5.51721 5.48955ZM8.45198 5.48955L8.45198 1.7901L10.4829 1.7901L10.4829 5.48955L8.45198 5.48955ZM11.3865 5.48955L11.3865 1.7901L13.4174 1.7901L13.4174 5.48955L11.3865 5.48955ZM2.44743 7.9754L2.44743 6.52019L2.98852 6.52019L2.98852 7.9754L2.44743 7.9754ZM3.93727 7.9754L3.93727 6.52019L4.47836 6.52019L4.47836 7.9754L3.93727 7.9754ZM5.42712 7.9754L5.42712 6.52019L5.96821 6.52019L5.96821 7.9754L5.42712 7.9754ZM6.91696 7.9754L6.91696 6.52019L7.45805 6.52019L7.45805 7.9754L6.91696 7.9754ZM8.40681 7.9754L8.40681 6.52019L8.94789 6.52019L8.94789 7.9754L8.40681 7.9754ZM9.89665 7.9754L9.89665 6.52019L10.4377 6.52019L10.4377 7.9754L9.89665 7.9754ZM11.3865 7.9754L11.3865 6.52019L11.9276 6.52019L11.9276 7.9754L11.3865 7.9754ZM12.8763 7.9754L12.8763 6.52019L13.4174 6.52019L13.4174 7.9754L12.8763 7.9754Z" fill="#28519E"/>
<path d="M9.94182 4.89746L9.94182 2.38184L8.99306 2.38184L8.99306 4.89746L9.94182 4.89746Z" fill="#28519E"/>
<path d="M4.07251 4.89746L4.07251 2.38184L3.12349 2.38184L3.12349 4.89746L4.07251 4.89746Z" fill="#28519E"/>
</svg>
