<svg width="16" height="10" viewBox="0 0 16 10" fill="none" xmlns="http://www.w3.org/2000/svg">
<path d="M7.00708 4.89673L7.00708 2.3811L6.05832 2.3811L6.05832 4.89673L7.00708 4.89673Z" fill="#28519E"/>
<path d="M12.8763 4.89673L12.8763 2.3811L11.9275 2.3811L11.9275 4.89673L12.8763 4.89673Z" fill="#28519E"/>
<path d="M16 3.65309L15.6672 3.65309C15.375 3.65309 15.137 3.41929 15.137 3.1322C15.137 2.83226 15.3889 2.61132 15.6672 2.61132L16 2.61132L16 1.84041C16 1.10403 15.403 0.50708 14.6667 0.50708L1.33333 0.507079C0.596953 0.507079 -5.02931e-07 1.10403 -5.35119e-07 1.84041L-5.68817e-07 2.61132L0.33278 2.61132C0.47616 2.61132 0.614141 2.66755 0.716948 2.77411C0.808925 2.86586 0.863035 2.99608 0.863035 3.13221C0.863035 3.41929 0.624957 3.65309 0.33278 3.65309L-6.14354e-07 3.65309L-7.97081e-07 7.83341C-8.2927e-07 8.56979 0.596953 9.16675 1.33333 9.16675L14.6667 9.16675C15.403 9.16675 16 8.56979 16 7.83341L16 3.65309ZM2.58244 5.48881L2.58244 1.78937L4.61363 1.78937L4.61363 5.48881L2.58244 5.48881ZM5.51721 5.48881L5.51721 1.78937L7.54815 1.78937L7.54815 5.48882L5.51721 5.48881ZM8.45198 5.48882L8.45198 1.78937L10.4829 1.78937L10.4829 5.48882L8.45198 5.48882ZM11.3865 5.48882L11.3865 1.78937L13.4174 1.78937L13.4174 5.48882L11.3865 5.48882ZM2.44743 7.97467L2.44743 6.51946L2.98852 6.51946L2.98852 7.97467L2.44743 7.97467ZM3.93727 7.97467L3.93727 6.51946L4.47836 6.51946L4.47836 7.97467L3.93727 7.97467ZM5.42712 7.97467L5.42712 6.51946L5.96821 6.51946L5.96821 7.97467L5.42712 7.97467ZM6.91696 7.97467L6.91696 6.51946L7.45805 6.51946L7.45805 7.97467L6.91696 7.97467ZM8.40681 7.97467L8.40681 6.51946L8.94789 6.51946L8.94789 7.97467L8.40681 7.97467ZM9.89665 7.97467L9.89665 6.51946L10.4377 6.51946L10.4377 7.97467L9.89665 7.97467ZM11.3865 7.97467L11.3865 6.51946L11.9276 6.51946L11.9276 7.97467L11.3865 7.97467ZM12.8763 7.97467L12.8763 6.51946L13.4174 6.51946L13.4174 7.97467L12.8763 7.97467Z" fill="#28519E"/>
<path d="M9.94183 4.89673L9.94183 2.3811L8.99308 2.3811L8.99308 4.89673L9.94183 4.89673Z" fill="#28519E"/>
<path d="M4.07251 4.89673L4.07251 2.3811L3.12349 2.3811L3.12349 4.89673L4.07251 4.89673Z" fill="#28519E"/>
</svg>
