<svg width="25" height="24" viewBox="0 0 25 24" fill="none" xmlns="http://www.w3.org/2000/svg">
<g id="serial Number">
<path id="Vector" d="M21.7012 4.69128H3.66323C3.34259 4.69128 3.08267 4.9512 3.08267 5.27184V18.7279C3.08267 19.0486 3.34259 19.3085 3.66323 19.3085H21.7014C22.022 19.3085 22.282 19.0486 22.282 18.7279V5.27184C22.282 4.9512 22.0218 4.69128 21.7012 4.69128ZM6.90107 16.0685C6.90107 16.3891 6.64115 16.649 6.32051 16.649C5.99987 16.649 5.73995 16.3891 5.73995 16.0685V7.93152C5.73995 7.61088 5.99987 7.35096 6.32051 7.35096C6.64115 7.35096 6.90107 7.61088 6.90107 7.93152V16.0685ZM9.44555 16.0685C9.44555 16.3891 9.18563 16.649 8.86499 16.649C8.54435 16.649 8.28443 16.3891 8.28443 16.0685V15.2808C8.28443 14.9602 8.54435 14.7002 8.86499 14.7002C9.18563 14.7002 9.44555 14.9602 9.44555 15.2808V16.0685ZM9.44555 13.0798C9.44555 13.4004 9.18563 13.6603 8.86499 13.6603C8.54435 13.6603 8.28443 13.4004 8.28443 13.0798V7.93176C8.28443 7.61112 8.54435 7.3512 8.86499 7.3512C9.18563 7.3512 9.44555 7.61112 9.44555 7.93176V13.0798ZM11.99 16.0685C11.99 16.3891 11.7301 16.649 11.4095 16.649C11.0888 16.649 10.8289 16.3891 10.8289 16.0685V15.2808C10.8289 14.9602 11.0888 14.7002 11.4095 14.7002C11.7301 14.7002 11.99 14.9602 11.99 15.2808V16.0685ZM11.99 13.0798C11.99 13.4004 11.7301 13.6603 11.4095 13.6603C11.0888 13.6603 10.8289 13.4004 10.8289 13.0798V7.93176C10.8289 7.61112 11.0888 7.3512 11.4095 7.3512C11.7301 7.3512 11.99 7.61112 11.99 7.93176V13.0798ZM14.5355 16.0685C14.5355 16.3891 14.2756 16.649 13.9549 16.649C13.6343 16.649 13.3744 16.3891 13.3744 16.0685V7.93152C13.3744 7.61088 13.6343 7.35096 13.9549 7.35096C14.2756 7.35096 14.5355 7.61088 14.5355 7.93152V16.0685ZM17.08 16.0685C17.08 16.3891 16.82 16.649 16.4994 16.649C16.1788 16.649 15.9188 16.3891 15.9188 16.0685V15.2808C15.9188 14.9602 16.1788 14.7002 16.4994 14.7002C16.82 14.7002 17.08 14.9602 17.08 15.2808V16.0685ZM17.08 13.0798C17.08 13.4004 16.82 13.6603 16.4994 13.6603C16.1788 13.6603 15.9188 13.4004 15.9188 13.0798V7.93176C15.9188 7.61112 16.1788 7.3512 16.4994 7.3512C16.82 7.3512 17.08 7.61112 17.08 7.93176V13.0798ZM19.6244 16.0685C19.6244 16.3891 19.3645 16.649 19.0439 16.649C18.7232 16.649 18.4633 16.3891 18.4633 16.0685V7.93152C18.4633 7.61088 18.7232 7.35096 19.0439 7.35096C19.3645 7.35096 19.6244 7.61088 19.6244 7.93152V16.0685Z" fill="#B2B2B3"/>
</g>
</svg>
