<svg width="48" height="40" viewBox="0 0 48 40" fill="none" xmlns="http://www.w3.org/2000/svg">
<path d="M18.9548 15.3246C18.7569 15.3884 18.5207 15.6023 18.4282 15.8033C18.3707 15.9214 18.3516 16.0203 18.3516 16.1895C18.3516 16.5884 18.326 16.5565 20.1643 18.3757L21.8143 20.0033L20.1516 21.6533C19.2356 22.5597 18.4601 23.3544 18.4282 23.415C18.3452 23.5714 18.342 24.0533 18.425 24.2161C18.6324 24.6342 19.1303 24.8257 19.5803 24.6597C19.7622 24.5895 19.8612 24.4969 21.8239 22.5405C23.7197 20.6512 23.8792 20.482 23.9399 20.3193C24.0229 20.0959 24.0133 19.8214 23.908 19.6108C23.8026 19.3937 19.8484 15.4714 19.6314 15.3693C19.4463 15.2831 19.1495 15.2608 18.9548 15.3246Z" fill="#002C3F"/>
<path d="M24.6134 15.3341C24.3804 15.4203 24.224 15.5543 24.1123 15.7713C23.9879 16.0139 23.9783 16.3299 24.0868 16.5533C24.1379 16.6554 24.6389 17.1788 25.8166 18.3533L27.473 20.0096L25.8198 21.6501C24.5815 22.8756 24.1475 23.3288 24.0932 23.4405C23.9911 23.6479 23.9879 24.0118 24.0868 24.2001C24.1953 24.4043 24.3134 24.5288 24.4921 24.6213C24.6294 24.6916 24.6964 24.7043 24.9102 24.7075C25.124 24.7075 25.1911 24.6948 25.3155 24.6277C25.4177 24.5735 26.1102 23.9096 27.4762 22.5596C29.7166 20.3448 29.6623 20.4054 29.6623 20.0033C29.6592 19.6075 29.7294 19.6841 27.5081 17.482C25.9953 15.9788 25.456 15.4618 25.3283 15.3948C25.1049 15.2735 24.8432 15.2511 24.6134 15.3341Z" fill="#002C3F"/>
</svg>
