<svg width="24" height="25" viewBox="0 0 24 25" fill="none" xmlns="http://www.w3.org/2000/svg">
<g id="Software">
<path id="Vector" d="M14.2742 4.90296C13.743 4.74984 13.1898 5.05921 13.0367 5.59046L9.03672 19.5905C8.88359 20.1217 9.19297 20.6748 9.72422 20.828C10.2555 20.9811 10.8086 20.6717 10.9617 20.1405L14.9617 6.14046C15.1148 5.60921 14.8055 5.05609 14.2742 4.90296ZM16.793 8.65609C16.4023 9.04671 16.4023 9.68109 16.793 10.0717L19.5836 12.8655L16.7898 15.6592C16.3992 16.0498 16.3992 16.6842 16.7898 17.0748C17.1805 17.4655 17.8148 17.4655 18.2055 17.0748L21.7055 13.5748C22.0961 13.1842 22.0961 12.5498 21.7055 12.1592L18.2055 8.65921C17.8148 8.26859 17.1805 8.26859 16.7898 8.65921L16.793 8.65609ZM7.20859 8.65609C6.81797 8.26546 6.18359 8.26546 5.79297 8.65609L2.29297 12.1561C1.90234 12.5467 1.90234 13.1811 2.29297 13.5717L5.79297 17.0717C6.18359 17.4623 6.81797 17.4623 7.20859 17.0717C7.59922 16.6811 7.59922 16.0467 7.20859 15.6561L4.41484 12.8655L7.20859 10.0717C7.59922 9.68109 7.59922 9.04671 7.20859 8.65609Z" fill="#B2B2B3"/>
</g>
</svg>
