<svg width="20" height="17" viewBox="0 0 20 17" fill="none" xmlns="http://www.w3.org/2000/svg">
<path d="M12.2742 0.903449C11.743 0.750324 11.1898 1.0597 11.0367 1.59095L7.03672 15.591C6.88359 16.1222 7.19297 16.6753 7.72422 16.8285C8.25547 16.9816 8.80859 16.6722 8.96172 16.141L12.9617 2.14095C13.1148 1.6097 12.8055 1.05657 12.2742 0.903449ZM14.793 4.65657C14.4023 5.0472 14.4023 5.68157 14.793 6.0722L17.5836 8.86595L14.7898 11.6597C14.3992 12.0503 14.3992 12.6847 14.7898 13.0753C15.1805 13.466 15.8148 13.466 16.2055 13.0753L19.7055 9.57533C20.0961 9.1847 20.0961 8.55032 19.7055 8.1597L16.2055 4.6597C15.8148 4.26907 15.1805 4.26907 14.7898 4.6597L14.793 4.65657ZM5.20859 4.65657C4.81797 4.26595 4.18359 4.26595 3.79297 4.65657L0.292969 8.15658C-0.0976562 8.5472 -0.0976562 9.18158 0.292969 9.5722L3.79297 13.0722C4.18359 13.4628 4.81797 13.4628 5.20859 13.0722C5.59922 12.6816 5.59922 12.0472 5.20859 11.6566L2.41484 8.86595L5.20859 6.0722C5.59922 5.68157 5.59922 5.0472 5.20859 4.65657Z" fill="#28519E"/>
</svg>
