<svg width="16" height="16" viewBox="0 0 16 16" fill="none" xmlns="http://www.w3.org/2000/svg">
<path d="M7.00708 8.39682L7.00708 5.8812L6.05832 5.8812L6.05832 8.39682L7.00708 8.39682Z" fill="#28519E"/>
<path d="M12.8763 8.39682L12.8763 5.8812L11.9275 5.8812L11.9275 8.39682L12.8763 8.39682Z" fill="#28519E"/>
<path d="M16 7.153L15.6672 7.153C15.375 7.153 15.137 6.9192 15.137 6.63211C15.137 6.33216 15.3889 6.11123 15.6672 6.11123L16 6.11123L16 5.34032C16 4.60394 15.403 4.00699 14.6667 4.00699L1.33333 4.00699C0.596953 4.00699 -5.02931e-07 4.60394 -5.35119e-07 5.34032L-5.68817e-07 6.11123L0.33278 6.11123C0.47616 6.11123 0.614141 6.16746 0.716948 6.27402C0.808925 6.36577 0.863035 6.49599 0.863035 6.63212C0.863035 6.9192 0.624957 7.153 0.33278 7.153L-6.14354e-07 7.153L-7.97081e-07 11.3333C-8.2927e-07 12.0697 0.596953 12.6667 1.33333 12.6667L14.6667 12.6667C15.403 12.6667 16 12.0697 16 11.3333L16 7.153ZM2.58244 8.98872L2.58244 5.28928L4.61363 5.28928L4.61363 8.98872L2.58244 8.98872ZM5.51721 8.98872L5.51721 5.28928L7.54815 5.28928L7.54815 8.98872L5.51721 8.98872ZM8.45198 8.98872L8.45198 5.28928L10.4829 5.28928L10.4829 8.98872L8.45198 8.98872ZM11.3865 8.98872L11.3865 5.28928L13.4174 5.28928L13.4174 8.98872L11.3865 8.98872ZM2.44743 11.4746L2.44743 10.0194L2.98852 10.0194L2.98852 11.4746L2.44743 11.4746ZM3.93727 11.4746L3.93727 10.0194L4.47836 10.0194L4.47836 11.4746L3.93727 11.4746ZM5.42712 11.4746L5.42712 10.0194L5.96821 10.0194L5.96821 11.4746L5.42712 11.4746ZM6.91696 11.4746L6.91696 10.0194L7.45805 10.0194L7.45805 11.4746L6.91696 11.4746ZM8.40681 11.4746L8.40681 10.0194L8.94789 10.0194L8.94789 11.4746L8.40681 11.4746ZM9.89665 11.4746L9.89665 10.0194L10.4377 10.0194L10.4377 11.4746L9.89665 11.4746ZM11.3865 11.4746L11.3865 10.0194L11.9276 10.0194L11.9276 11.4746L11.3865 11.4746ZM12.8763 11.4746L12.8763 10.0194L13.4174 10.0194L13.4174 11.4746L12.8763 11.4746Z" fill="#28519E"/>
<path d="M9.94182 8.39682L9.94182 5.8812L8.99306 5.8812L8.99306 8.39682L9.94182 8.39682Z" fill="#28519E"/>
<path d="M4.07251 8.39682L4.07251 5.8812L3.12349 5.8812L3.12349 8.39682L4.07251 8.39682Z" fill="#28519E"/>
</svg>
