<svg width="16" height="16" viewBox="0 0 16 16" fill="none" xmlns="http://www.w3.org/2000/svg">
<g id="Icons">
<path id="Vector" d="M9.76439 6.25554V5.15885C9.76439 5.02827 9.71252 4.90304 9.62019 4.81071C9.52786 4.71838 9.40263 4.6665 9.27205 4.6665H5.82566C5.69508 4.6665 5.56985 4.71838 5.47752 4.81071C5.38518 4.90304 5.33331 5.02827 5.33331 5.15885V6.26662C5.33348 6.34302 5.35135 6.41835 5.38552 6.48669C5.41969 6.55502 5.46923 6.61451 5.53025 6.66049L7.13867 7.86673L5.53025 9.07297C5.46923 9.11894 5.41969 9.17843 5.38552 9.24677C5.35135 9.31511 5.33348 9.39044 5.33331 9.46684V10.5746C5.33331 10.7052 5.38518 10.8304 5.47752 10.9227C5.56985 11.0151 5.69508 11.067 5.82566 11.067H9.27205C9.40263 11.067 9.52786 11.0151 9.62019 10.9227C9.71252 10.8304 9.76439 10.7052 9.76439 10.5746V9.47792C9.76422 9.40181 9.7465 9.32676 9.71261 9.25861C9.67872 9.19046 9.62958 9.13104 9.56899 9.08497L7.95719 7.86673L9.56899 6.64849C9.62958 6.60242 9.67872 6.543 9.71261 6.47485C9.7465 6.40669 9.76422 6.33165 9.76439 6.25554ZM9.27205 5.15885V5.89736H5.82566V5.15885H9.27205ZM9.27205 10.5746H5.82566V9.46684L7.54885 8.17444L9.27205 9.47761V10.5746Z" fill="#28519E"/>
<path id="Vector_2" d="M14.3373 2.97438C14.2398 2.93395 14.1326 2.92333 14.0291 2.94386C13.9256 2.96439 13.8305 3.01515 13.7559 3.08972L12.9332 3.91444C12.7178 3.68043 12.4958 3.44775 12.2598 3.20839C11.3703 2.3188 10.2384 1.71106 9.00547 1.46111C7.77255 1.21116 6.49331 1.33007 5.32758 1.80301C4.16186 2.27594 3.16136 3.08191 2.45108 4.12022C1.74081 5.15853 1.35226 6.38312 1.33399 7.641C1.31572 8.89887 1.66854 10.1342 2.34836 11.1927C3.02818 12.2512 4.00485 13.0859 5.15635 13.5925C6.30784 14.0991 7.58309 14.2551 8.82275 14.0411C10.0624 13.827 11.2115 13.2524 12.1265 12.389C12.1774 12.3409 12.2184 12.2832 12.247 12.2192C12.2757 12.1552 12.2915 12.0862 12.2934 12.0161C12.2954 11.946 12.2836 11.8762 12.2586 11.8107C12.2336 11.7452 12.196 11.6853 12.1478 11.6343C12.0996 11.5834 12.0419 11.5424 11.9779 11.5137C11.914 11.4851 11.8449 11.4693 11.7749 11.4673C11.7048 11.4654 11.635 11.4772 11.5695 11.5022C11.504 11.5272 11.444 11.5648 11.3931 11.613C10.6307 12.3324 9.67322 12.8112 8.6403 12.9895C7.60737 13.1679 6.54478 13.038 5.58527 12.616C4.62576 12.194 3.81186 11.4986 3.24526 10.6167C2.67866 9.73483 2.38447 8.70554 2.39945 7.65743C2.41442 6.60932 2.7379 5.58886 3.32946 4.72353C3.92103 3.85819 4.75446 3.18635 5.72564 2.79192C6.69682 2.3975 7.76268 2.29798 8.79009 2.50581C9.8175 2.71363 10.7609 3.21958 11.5024 3.96045C11.7384 4.19913 11.9605 4.43381 12.1765 4.66916L11.0891 5.75657C11.0144 5.83117 10.9635 5.92624 10.9429 6.02976C10.9223 6.13328 10.9329 6.24059 10.9733 6.3381C11.0137 6.43562 11.0821 6.51895 11.1699 6.57755C11.2577 6.63615 11.3609 6.66739 11.4664 6.6673H14.1333C14.2747 6.6673 14.4104 6.61111 14.5104 6.51108C14.6105 6.41106 14.6666 6.27539 14.6666 6.13393V3.46708C14.6666 3.36159 14.6353 3.25847 14.5767 3.17077C14.5181 3.08307 14.4348 3.01473 14.3373 2.97438Z" fill="#28519E"/>
</g>
</svg>
