<svg width="16" height="16" viewBox="0 0 16 16" fill="none" xmlns="http://www.w3.org/2000/svg">
<g id="Icons">
<path id="&#239;&#152;&#159;" d="M11.5688 5.98009C11.7024 6.20271 11.7024 6.46985 11.5688 6.69247C11.4575 6.91508 11.2126 7.04865 10.9677 7.04865H6.69345C6.42631 7.04865 6.18143 6.91508 6.07012 6.69247C5.93655 6.46985 5.93655 6.20271 6.07012 5.98009L8.20726 2.4182C8.34083 2.19558 8.56345 2.06201 8.83059 2.06201C9.07547 2.06201 9.29809 2.19558 9.43166 2.4182L11.5688 5.98009ZM8.83059 9.00769C8.83059 8.51793 9.20904 8.11722 9.72106 8.11722H12.9268C13.4165 8.11722 13.8172 8.51793 13.8172 9.00769V12.2134C13.8172 12.7254 13.4165 13.1039 12.9268 13.1039H9.72106C9.20904 13.1039 8.83059 12.7254 8.83059 12.2134V9.00769ZM2.41919 10.6105C2.41919 9.05222 3.68811 7.76103 5.2687 7.76103C6.82703 7.76103 8.11821 9.05222 8.11821 10.6105C8.11821 12.1911 6.82703 13.4601 5.2687 13.4601C3.68811 13.4601 2.41919 12.1911 2.41919 10.6105Z" fill="#28519E"/>
</g>
</svg>
