<svg width="16" height="16" viewBox="0 0 16 16" fill="none" xmlns="http://www.w3.org/2000/svg">
<g id="Icons">
<path id="&#239;&#152;&#159;" d="M11.5688 5.98009C11.7024 6.20271 11.7024 6.46985 11.5688 6.69247C11.4575 6.91508 11.2126 7.04865 10.9677 7.04865H6.69347C6.42633 7.04865 6.18145 6.91508 6.07014 6.69247C5.93657 6.46985 5.93657 6.20271 6.07014 5.98009L8.20727 2.4182C8.34084 2.19558 8.56346 2.06201 8.8306 2.06201C9.07548 2.06201 9.2981 2.19558 9.43167 2.4182L11.5688 5.98009ZM8.8306 9.00769C8.8306 8.51793 9.20905 8.11722 9.72107 8.11722H12.9268C13.4165 8.11722 13.8172 8.51793 13.8172 9.00769V12.2134C13.8172 12.7254 13.4165 13.1039 12.9268 13.1039H9.72107C9.20905 13.1039 8.8306 12.7254 8.8306 12.2134V9.00769ZM2.4192 10.6105C2.4192 9.05222 3.68813 7.76103 5.26871 7.76103C6.82704 7.76103 8.11823 9.05222 8.11823 10.6105C8.11823 12.1911 6.82704 13.4601 5.26871 13.4601C3.68813 13.4601 2.4192 12.1911 2.4192 10.6105Z" fill="#28519E"/>
</g>
</svg>
