<svg xmlns="http://www.w3.org/2000/svg" xmlns:xlink="http://www.w3.org/1999/xlink" version="1.1" width="1000" height="1000" viewBox="0 0 1000 1000" xml:space="preserve">
<desc>Created with Fabric.js 3.5.0</desc>
<defs>
</defs>
<rect x="0" y="0" width="100%" height="100%" fill="#ffffff"/>
<g transform="matrix(20.202 0 0 -20.202 499.9995 499.9995)" id="501011">
<path style="stroke: none; stroke-width: 1; stroke-dasharray: none; stroke-linecap: butt; stroke-dashoffset: 0; stroke-linejoin: miter; stroke-miterlimit: 4; is-custom-font: none; font-file-url: none; fill: rgb(178,178,179); fill-rule: nonzero; opacity: 1;" vector-effect="non-scaling-stroke" transform=" translate(-30, -30)" d="M 51.35 13.075 L 47.875 8.875 C 47.2 8.025 46.175 7.5 45 7.5 H 15 C 13.825 7.5 12.8 8.025 12.1 8.875 L 8.65 13.075 C 7.925 13.925 7.5 15.05 7.5 16.25 V 47.5 C 7.5 50.25 9.75 52.5 12.5 52.5 H 47.5 C 50.25 52.5 52.5 50.25 52.5 47.5 V 16.25 C 52.5 15.05 52.075 13.925 51.35 13.075 Z M 30 43.75 L 16.25 30 H 25 V 25 H 35 V 30 H 43.75 L 30 43.75 Z M 12.8 12.5 L 14.825 10 H 44.825 L 47.175 12.5 H 12.8 Z" stroke-linecap="round"/>
</g>
</svg>