<svg width="20" height="20" viewBox="0 0 20 20" fill="none" xmlns="http://www.w3.org/2000/svg">
<g id="laptop-solid 2">
<path id="Vector" d="M11.6668 1.6665H5.00016C4.55814 1.6665 4.13421 1.8421 3.82165 2.15466C3.50909 2.46722 3.3335 2.89114 3.3335 3.33317V16.6665C3.3335 17.1085 3.50909 17.5325 3.82165 17.845C4.13421 18.1576 4.55814 18.3332 5.00016 18.3332H15.0002C15.4422 18.3332 15.8661 18.1576 16.1787 17.845C16.4912 17.5325 16.6668 17.1085 16.6668 16.6665V6.6665L11.6668 1.6665ZM11.2502 13.3332V15.8332H8.75016V13.3332H6.66683L10.0002 9.99984L13.3335 13.3332H11.2502ZM10.8335 7.49984V2.9165L15.4168 7.49984H10.8335Z" fill="#28519E"/>
</g>
</svg>
