<svg width="54" height="40" viewBox="0 0 54 40" fill="none" xmlns="http://www.w3.org/2000/svg">
<path id="Vector" d="M26.9995 29.828V15.788M26.9995 15.788L32.6155 21.404M26.9995 15.788L21.3835 21.404M52.2715 28.3717C52.2715 33.519 48.3699 37.7196 43.4042 38.252H12.664C6.57503 37.8379 1.72754 32.7498 1.72754 26.5376C1.72754 20.3846 6.4568 15.3557 12.4866 14.8232C13.3142 7.48693 19.5214 1.74805 27.0882 1.74805C35.1871 1.74805 41.808 8.31522 41.808 16.4798C41.808 17.1898 41.7489 17.8406 41.6898 18.4914C41.9263 18.4914 42.1627 18.4914 42.3992 18.4914C47.8379 18.4322 52.2715 22.9287 52.2715 28.3717Z" stroke="#28519E" stroke-width="1.56" stroke-miterlimit="10"/>
</svg>
