<svg width="24" height="24" viewBox="0 0 24 24" fill="none" xmlns="http://www.w3.org/2000/svg">
<path d="M14.8985 17.3777C14.9611 17.4737 14.9966 17.5847 15.0013 17.6992C15.006 17.8137 14.9796 17.9273 14.9251 18.028C14.8705 18.1288 14.7897 18.2129 14.6913 18.2715C14.5929 18.3302 14.4804 18.3611 14.3659 18.3611H2.63595C2.52138 18.3611 2.40894 18.3302 2.31052 18.2715C2.21209 18.2129 2.13133 18.1288 2.07677 18.028C2.0222 17.9273 1.99586 17.8137 2.00053 17.6992C2.00519 17.5847 2.04069 17.4737 2.10328 17.3777C2.99857 15.9996 4.31545 14.9479 5.85743 14.3796C5.00499 13.8121 4.35781 12.9854 4.01159 12.0216C3.66538 11.0578 3.6385 10.0082 3.93495 9.02801C4.23139 8.04779 4.83541 7.18899 5.65769 6.57861C6.47997 5.96823 7.47685 5.63867 8.50091 5.63867C9.52498 5.63867 10.5219 5.96823 11.3441 6.57861C12.1664 7.18899 12.7704 8.04779 13.0669 9.02801C13.3633 10.0082 13.3364 11.0578 12.9902 12.0216C12.644 12.9854 11.9968 13.8121 11.1444 14.3796C12.6864 14.9479 14.0033 15.9996 14.8985 17.3777ZM21.8877 17.3658C20.9922 15.9935 19.6782 14.9463 18.1407 14.3796C19.147 13.7017 19.8572 12.6658 20.1267 11.4828C20.3962 10.2997 20.2048 9.05844 19.5913 8.01158C18.9779 6.96471 17.9885 6.19096 16.8247 5.84782C15.6609 5.50467 14.41 5.61793 13.3268 6.16453C13.2853 6.18592 13.2491 6.21616 13.2207 6.25309C13.1922 6.29003 13.1723 6.33277 13.1622 6.37828C13.1521 6.4238 13.1521 6.47097 13.1623 6.51647C13.1725 6.56196 13.1925 6.60467 13.221 6.64155C14.0265 7.64633 14.4891 8.88263 14.5411 10.1694C14.593 11.4561 14.2315 12.7257 13.5096 13.7921C13.463 13.8618 13.4457 13.9471 13.4617 14.0294C13.4776 14.1118 13.5254 14.1845 13.5947 14.2317C14.5359 14.8887 15.3417 15.7209 15.9679 16.6828C16.2204 17.0696 16.3236 17.535 16.2581 17.9922C16.2507 18.0377 16.2533 18.0843 16.2657 18.1287C16.2781 18.173 16.3 18.2142 16.3298 18.2493C16.3597 18.2844 16.3968 18.3125 16.4387 18.3319C16.4805 18.3512 16.526 18.3612 16.5721 18.3611H21.3661C21.5062 18.3612 21.6423 18.315 21.7535 18.2298C21.8646 18.1445 21.9445 18.025 21.9807 17.8897C22.0028 17.8007 22.006 17.7081 21.9899 17.6178C21.9739 17.5276 21.9391 17.4417 21.8877 17.3658Z" fill="#002C3F"/>
</svg>
