<svg width="12" height="12" viewBox="0 0 12 12" fill="none" xmlns="http://www.w3.org/2000/svg">
<path d="M9.56879 4.47984C9.70236 4.70246 9.70236 4.9696 9.56879 5.19222C9.45748 5.41484 9.2126 5.54841 8.96772 5.54841H4.69345C4.42631 5.54841 4.18143 5.41484 4.07012 5.19222C3.93655 4.9696 3.93655 4.70246 4.07012 4.47984L6.20726 0.917956C6.34083 0.695338 6.56345 0.561768 6.83059 0.561768C7.07547 0.561768 7.29809 0.695338 7.43166 0.917956L9.56879 4.47984ZM6.83059 7.50745C6.83059 7.01769 7.20904 6.61698 7.72106 6.61698H10.9268C11.4165 6.61698 11.8172 7.01769 11.8172 7.50745V10.7131C11.8172 11.2252 11.4165 11.6036 10.9268 11.6036H7.72106C7.20904 11.6036 6.83059 11.2252 6.83059 10.7131V7.50745ZM0.419189 9.1103C0.419189 7.55197 1.68811 6.26079 3.2687 6.26079C4.82703 6.26079 6.11821 7.55197 6.11821 9.1103C6.11821 10.6909 4.82703 11.9598 3.2687 11.9598C1.68811 11.9598 0.419189 10.6909 0.419189 9.1103Z" fill="#28519E"/>
</svg>
