<svg width="20" height="20" viewBox="0 0 20 20" fill="none" xmlns="http://www.w3.org/2000/svg">
<g id="Icons">
<path id="ballot" d="M10 8.33333H14.1667V6.66667H10V8.33333ZM10 13.3333H14.1667V11.6667H10V13.3333ZM7.5 9.16667C7.95833 9.16667 8.35069 9.00347 8.67708 8.67708C9.00347 8.35069 9.16667 7.95833 9.16667 7.5C9.16667 7.04167 9.00347 6.64931 8.67708 6.32292C8.35069 5.99653 7.95833 5.83333 7.5 5.83333C7.04167 5.83333 6.64931 5.99653 6.32292 6.32292C5.99653 6.64931 5.83333 7.04167 5.83333 7.5C5.83333 7.95833 5.99653 8.35069 6.32292 8.67708C6.64931 9.00347 7.04167 9.16667 7.5 9.16667ZM7.5 14.1667C7.95833 14.1667 8.35069 14.0035 8.67708 13.6771C9.00347 13.3507 9.16667 12.9583 9.16667 12.5C9.16667 12.0417 9.00347 11.6493 8.67708 11.3229C8.35069 10.9965 7.95833 10.8333 7.5 10.8333C7.04167 10.8333 6.64931 10.9965 6.32292 11.3229C5.99653 11.6493 5.83333 12.0417 5.83333 12.5C5.83333 12.9583 5.99653 13.3507 6.32292 13.6771C6.64931 14.0035 7.04167 14.1667 7.5 14.1667ZM4.16667 17.5C3.70833 17.5 3.31597 17.3368 2.98958 17.0104C2.66319 16.684 2.5 16.2917 2.5 15.8333V4.16667C2.5 3.70833 2.66319 3.31597 2.98958 2.98958C3.31597 2.66319 3.70833 2.5 4.16667 2.5H15.8333C16.2917 2.5 16.684 2.66319 17.0104 2.98958C17.3368 3.31597 17.5 3.70833 17.5 4.16667V15.8333C17.5 16.2917 17.3368 16.684 17.0104 17.0104C16.684 17.3368 16.2917 17.5 15.8333 17.5H4.16667ZM4.16667 15.8333H15.8333V4.16667H4.16667V15.8333Z" fill="#28519E"/>
</g>
</svg>
