<svg width="20" height="20" viewBox="0 0 20 20" fill="none" xmlns="http://www.w3.org/2000/svg">
<g id="Icons">
<path id="Vector" d="M9.99996 1.66667C5.41663 1.66667 1.66663 5.41667 1.66663 10C1.66663 14.5833 5.41663 18.3333 9.99996 18.3333C14.5833 18.3333 18.3333 14.5833 18.3333 10C18.3333 5.41667 14.5833 1.66667 9.99996 1.66667ZM9.99996 16.6667C6.32496 16.6667 3.33329 13.675 3.33329 10C3.33329 6.32501 6.32496 3.33334 9.99996 3.33334C13.675 3.33334 16.6666 6.32501 16.6666 10C16.6666 13.675 13.675 16.6667 9.99996 16.6667ZM13.825 6.31667L8.33329 11.8083L6.17496 9.65834L4.99996 10.8333L8.33329 14.1667L15 7.5L13.825 6.31667Z" fill="#28519E"/>
</g>
</svg>
