<svg width="20" height="20" viewBox="0 0 20 20" fill="none" xmlns="http://www.w3.org/2000/svg">
<path d="M7.11538 3.07692H11.9615V1.73077C11.9615 1.29327 12.2981 0.923076 12.7692 0.923076C13.2067 0.923076 13.5769 1.29327 13.5769 1.73077V3.07692H14.9231C16.101 3.07692 17.0769 4.05288 17.0769 5.23077V16C17.0769 17.2115 16.101 18.1538 14.9231 18.1538H4.15385C2.94231 18.1538 2 17.2115 2 16V5.23077C2 4.05288 2.94231 3.07692 4.15385 3.07692H5.5V1.73077C5.5 1.29327 5.83654 0.923076 6.30769 0.923076C6.74519 0.923076 7.11538 1.29327 7.11538 1.73077V3.07692ZM3.61538 16C3.61538 16.3029 3.85096 16.5385 4.15385 16.5385H14.9231C15.1923 16.5385 15.4615 16.3029 15.4615 16V7.38461H3.61538V16Z" fill="#28519E"/>
</svg>
