<svg width="22" height="22" viewBox="0 0 22 22" fill="none" xmlns="http://www.w3.org/2000/svg">
<g id="Excel">
<path id="Vector" d="M12.8332 1.83334H5.49984C5.01361 1.83334 4.54729 2.0265 4.20347 2.37031C3.85966 2.71413 3.6665 3.18045 3.6665 3.66668V18.3333C3.6665 18.8196 3.85966 19.2859 4.20347 19.6297C4.54729 19.9735 5.01361 20.1667 5.49984 20.1667H16.4998C16.9861 20.1667 17.4524 19.9735 17.7962 19.6297C18.14 19.2859 18.3332 18.8196 18.3332 18.3333V7.33334L12.8332 1.83334ZM14.4832 18.3333H12.8332L10.9998 15.2167L9.1665 18.3333H7.5165L10.1748 14.2083L7.5165 10.0833H9.1665L10.9998 13.2L12.8332 10.0833H14.4832L11.8248 14.2083L14.4832 18.3333ZM11.9165 8.25001V3.20834L16.9582 8.25001H11.9165Z" fill="white"/>
</g>
</svg>
