<svg width="20" height="20" viewBox="0 0 20 20" fill="none" xmlns="http://www.w3.org/2000/svg">
<g id="Icons">
<path id="Vector" d="M12.2742 2.03919C11.743 1.88607 11.1898 2.19544 11.0367 2.72669L7.03672 16.7267C6.88359 17.2579 7.19297 17.8111 7.72422 17.9642C8.25547 18.1173 8.80859 17.8079 8.96172 17.2767L12.9617 3.27669C13.1148 2.74544 12.8055 2.19232 12.2742 2.03919ZM14.793 5.79232C14.4023 6.18294 14.4023 6.81732 14.793 7.20794L17.5836 10.0017L14.7898 12.7954C14.3992 13.1861 14.3992 13.8204 14.7898 14.2111C15.1805 14.6017 15.8148 14.6017 16.2055 14.2111L19.7055 10.7111C20.0961 10.3204 20.0961 9.68607 19.7055 9.29544L16.2055 5.79544C15.8148 5.40482 15.1805 5.40482 14.7898 5.79544L14.793 5.79232ZM5.20859 5.79232C4.81797 5.40169 4.18359 5.40169 3.79297 5.79232L0.292969 9.29232C-0.0976562 9.68294 -0.0976562 10.3173 0.292969 10.7079L3.79297 14.2079C4.18359 14.5986 4.81797 14.5986 5.20859 14.2079C5.59922 13.8173 5.59922 13.1829 5.20859 12.7923L2.41484 10.0017L5.20859 7.20794C5.59922 6.81732 5.59922 6.18294 5.20859 5.79232Z" fill="#28519E"/>
</g>
</svg>
