<svg width="20" height="21" viewBox="0 0 20 21" fill="none" xmlns="http://www.w3.org/2000/svg">
<path d="M17.125 4.85L15.9667 3.45C15.7333 3.175 15.3917 3 15 3H5C4.60833 3 4.26667 3.175 4.04167 3.45833L2.88333 4.85C2.64167 5.14167 2.5 5.50833 2.5 5.91667V16.3333C2.5 17.25 3.24167 18 4.16667 18H15.8333C16.75 18 17.5 17.25 17.5 16.3333V5.91667C17.5 5.50833 17.3583 5.14167 17.125 4.85ZM10 8.41667L14.5833 13H11.6667V14.6667H8.33333V13H5.41667L10 8.41667ZM4.26667 4.66667L4.95 3.83333H14.95L15.725 4.66667H4.26667Z" fill="#CC1A07"/>
</svg>
