<svg width="16" height="16" viewBox="0 0 16 16" fill="none" xmlns="http://www.w3.org/2000/svg">
<g id="Warning">
<path id="Vector" d="M15.0162 11.6313L9.55059 2.13938C9.39228 1.86863 9.16584 1.64406 8.8938 1.48799C8.62176 1.33193 8.3136 1.24981 7.99997 1.24981C7.68634 1.24981 7.37817 1.33193 7.10613 1.48799C6.83409 1.64406 6.60765 1.86863 6.44934 2.13938L0.983716 11.6313C0.830104 11.894 0.749146 12.1928 0.749146 12.4972C0.749146 12.8015 0.830104 13.1004 0.983716 13.3631C1.14027 13.6352 1.3664 13.8608 1.63889 14.0166C1.91139 14.1725 2.22044 14.253 2.53434 14.25H13.4656C13.7793 14.2528 14.0881 14.1721 14.3603 14.0163C14.6326 13.8605 14.8585 13.635 15.015 13.3631C15.1688 13.1005 15.2499 12.8017 15.2502 12.4974C15.2504 12.193 15.1696 11.8941 15.0162 11.6313ZM13.7162 12.6125C13.6908 12.6558 13.6541 12.6915 13.6101 12.7157C13.5661 12.7399 13.5164 12.7517 13.4662 12.75H2.53434C2.48415 12.7517 2.43442 12.7399 2.39042 12.7157C2.34641 12.6915 2.30976 12.6558 2.28434 12.6125C2.26278 12.5774 2.25137 12.5371 2.25137 12.4959C2.25137 12.4548 2.26278 12.4144 2.28434 12.3794L7.74997 2.8875C7.77703 2.84584 7.81408 2.81161 7.85774 2.7879C7.9014 2.7642 7.95029 2.75179 7.99997 2.75179C8.04964 2.75179 8.09854 2.7642 8.1422 2.7879C8.18586 2.81161 8.2229 2.84584 8.24997 2.8875L13.715 12.3794C13.7367 12.4143 13.7483 12.4546 13.7486 12.4958C13.7488 12.5369 13.7376 12.5773 13.7162 12.6125ZM7.24997 8.5V6.5C7.24997 6.30109 7.32898 6.11032 7.46964 5.96967C7.61029 5.82902 7.80105 5.75 7.99997 5.75C8.19888 5.75 8.38964 5.82902 8.5303 5.96967C8.67095 6.11032 8.74997 6.30109 8.74997 6.5V8.5C8.74997 8.69891 8.67095 8.88968 8.5303 9.03033C8.38964 9.17098 8.19888 9.25 7.99997 9.25C7.80105 9.25 7.61029 9.17098 7.46964 9.03033C7.32898 8.88968 7.24997 8.69891 7.24997 8.5ZM8.99997 11C8.99997 11.1978 8.94132 11.3911 8.83144 11.5556C8.72155 11.72 8.56538 11.8482 8.38265 11.9239C8.19992 11.9996 7.99886 12.0194 7.80488 11.9808C7.6109 11.9422 7.43271 11.847 7.29286 11.7071C7.15301 11.5673 7.05777 11.3891 7.01918 11.1951C6.9806 11.0011 7.0004 10.8 7.07609 10.6173C7.15177 10.4346 7.27995 10.2784 7.4444 10.1685C7.60885 10.0586 7.80219 10 7.99997 10C8.26518 10 8.51954 10.1054 8.70707 10.2929C8.89461 10.4804 8.99997 10.7348 8.99997 11Z" fill="#CC1A07"/>
</g>
</svg>
