<svg width="24" height="24" viewBox="0 0 24 24" fill="none" xmlns="http://www.w3.org/2000/svg">
<g id="apple 1">
<path id="apple" d="M16.6151 12.5216C16.6151 12.602 16.4946 14.9723 19.106 16.2178C18.6239 17.7043 16.9366 20.9987 14.9679 20.9987C13.843 20.9987 13.2002 20.2755 11.9146 20.2755C10.5888 20.2755 9.86564 20.9987 8.86125 20.9987C6.93282 21.079 5.08474 17.4632 4.56246 15.9767C4.1607 14.8518 4 13.7671 4 12.7225C4 9.14687 6.37036 7.41932 8.6202 7.37914C9.70494 7.37914 11.0709 8.14248 11.6735 8.14248C12.236 8.14248 13.8029 7.21844 15.2492 7.33897C16.7357 7.45949 17.8606 8.02195 18.6239 9.1067C17.2981 9.95038 16.6151 11.0351 16.6151 12.5216ZM14.3653 5.93282C13.5618 6.85686 12.5976 7.37914 11.553 7.29879C11.4727 6.21405 11.8744 5.20966 12.5976 4.40615C13.2404 3.68299 14.3653 3.08035 15.3295 3C15.3295 3.44193 15.4501 4.6472 14.3653 5.93282Z" fill="#28519E"/>
</g>
</svg>
