<svg width="20" height="20" viewBox="0 0 20 20" fill="none" xmlns="http://www.w3.org/2000/svg">
<g id="Icons">
<path id="Vector" d="M18.3337 7.50049V5.83383H15.8337V4.16716H14.167V1.66699H12.5005V4.16733H10.8338V1.66699H9.16716V4.16733H7.50049V1.66699H5.83383V4.16733H4.16716V5.83399H1.66699V7.50066H4.16733V9.16733H1.66699V10.834H4.16733V12.5007H1.66699V14.167H4.16733V15.8337H5.83399V18.3337H7.50066V15.8337H9.16733V18.3337H10.834V15.8337H12.5007V18.3337H14.167V15.8337H15.8337V14.167H18.3337V12.5005H15.8337V10.8338H18.3337V9.16716H15.8337V7.50049H18.3337ZM13.3337 13.3338H6.66716V6.66733H13.3337V13.3338ZM12.5005 7.50049H7.50049V12.5005H12.5005V7.50049Z" fill="#28519E"/>
</g>
</svg>
