<svg width="20" height="11" viewBox="0 0 20 11" fill="none" xmlns="http://www.w3.org/2000/svg">
<g id="Group">
<path id="Vector" d="M8.75879 5.49609L8.75879 2.35156L7.57284 2.35156L7.57284 5.49609L8.75879 5.49609Z" fill="#28519E"/>
<path id="Vector_2" d="M16.0957 5.49609L16.0957 2.35156L14.9098 2.35156L14.9098 5.49609L16.0957 5.49609Z" fill="#28519E"/>
<path id="Vector_3" d="M20 3.9413L19.584 3.9413C19.2188 3.9413 18.9212 3.64905 18.9212 3.29019C18.9212 2.91526 19.2361 2.63909 19.584 2.63909L20 2.63909L20 2.00879C20 0.904219 19.1046 0.00878902 18 0.00878898L2 0.00878828C0.895431 0.00878823 4.37697e-07 0.904219 3.89414e-07 2.00879L3.61863e-07 2.63909L0.415976 2.63909C0.595201 2.63909 0.767677 2.70938 0.896186 2.84258C1.01116 2.95726 1.0788 3.12004 1.0788 3.2902C1.0788 3.64905 0.781197 3.9413 0.415976 3.9413L3.04941e-07 3.9413L9.11022e-08 8.83337C4.282e-08 9.93794 0.895431 10.8334 2 10.8334L18 10.8334C19.1046 10.8334 20 9.93794 20 8.83337L20 3.9413ZM3.22805 6.23596L3.22805 1.61165L5.76704 1.61165L5.76704 6.23596L3.22805 6.23596ZM6.89652 6.23596L6.89652 1.61165L9.43518 1.61165L9.43518 6.23596L6.89652 6.23596ZM10.565 6.23596L10.565 1.61165L13.1036 1.61165L13.1036 6.23596L10.565 6.23596ZM14.2331 6.23596L14.2331 1.61165L16.7718 1.61165L16.7718 6.23596L14.2331 6.23596ZM3.05929 9.34327L3.05929 7.52426L3.73565 7.52426L3.73565 9.34327L3.05929 9.34327ZM4.92159 9.34327L4.92159 7.52426L5.59795 7.52426L5.59795 9.34327L4.92159 9.34327ZM6.7839 9.34327L6.7839 7.52426L7.46026 7.52426L7.46026 9.34327L6.7839 9.34327ZM8.6462 9.34327L8.6462 7.52426L9.32257 7.52426L9.32257 9.34327L8.6462 9.34327ZM10.5085 9.34327L10.5085 7.52426L11.1849 7.52426L11.1849 9.34327L10.5085 9.34327ZM12.3708 9.34327L12.3708 7.52426L13.0472 7.52426L13.0472 9.34327L12.3708 9.34327ZM14.2331 9.34327L14.2331 7.52426L14.9095 7.52426L14.9095 9.34327L14.2331 9.34327ZM16.0954 9.34327L16.0954 7.52426L16.7718 7.52426L16.7718 9.34327L16.0954 9.34327Z" fill="#28519E"/>
<path id="Vector_4" d="M12.4277 5.49609L12.4277 2.35156L11.2418 2.35156L11.2418 5.49609L12.4277 5.49609Z" fill="#28519E"/>
<path id="Vector_5" d="M5.09082 5.49609L5.09082 2.35156L3.90455 2.35156L3.90455 5.49609L5.09082 5.49609Z" fill="#28519E"/>
</g>
</svg>
