<svg width="20" height="20" viewBox="0 0 20 20" fill="none" xmlns="http://www.w3.org/2000/svg">
<g id="Icons">
<path id="Vector" d="M17.5154 3.90918H2.4838C2.2166 3.90918 2 4.12578 2 4.39298V15.6064C2 15.8736 2.2166 16.0902 2.4838 16.0902H17.5156C17.7828 16.0902 17.9994 15.8736 17.9994 15.6064V4.39298C17.9994 4.12578 17.7826 3.90918 17.5154 3.90918ZM5.182 13.3902C5.182 13.6574 4.9654 13.874 4.6982 13.874C4.431 13.874 4.2144 13.6574 4.2144 13.3902V6.60938C4.2144 6.34218 4.431 6.12558 4.6982 6.12558C4.9654 6.12558 5.182 6.34218 5.182 6.60938V13.3902ZM7.3024 13.3902C7.3024 13.6574 7.0858 13.874 6.8186 13.874C6.5514 13.874 6.3348 13.6574 6.3348 13.3902V12.7338C6.3348 12.4666 6.5514 12.25 6.8186 12.25C7.0858 12.25 7.3024 12.4666 7.3024 12.7338V13.3902ZM7.3024 10.8996C7.3024 11.1668 7.0858 11.3834 6.8186 11.3834C6.5514 11.3834 6.3348 11.1668 6.3348 10.8996V6.60958C6.3348 6.34238 6.5514 6.12578 6.8186 6.12578C7.0858 6.12578 7.3024 6.34238 7.3024 6.60958V10.8996ZM9.4228 13.3902C9.4228 13.6574 9.2062 13.874 8.939 13.874C8.6718 13.874 8.4552 13.6574 8.4552 13.3902V12.7338C8.4552 12.4666 8.6718 12.25 8.939 12.25C9.2062 12.25 9.4228 12.4666 9.4228 12.7338V13.3902ZM9.4228 10.8996C9.4228 11.1668 9.2062 11.3834 8.939 11.3834C8.6718 11.3834 8.4552 11.1668 8.4552 10.8996V6.60958C8.4552 6.34238 8.6718 6.12578 8.939 6.12578C9.2062 6.12578 9.4228 6.34238 9.4228 6.60958V10.8996ZM11.544 13.3902C11.544 13.6574 11.3274 13.874 11.0602 13.874C10.793 13.874 10.5764 13.6574 10.5764 13.3902V6.60938C10.5764 6.34218 10.793 6.12558 11.0602 6.12558C11.3274 6.12558 11.544 6.34218 11.544 6.60938V13.3902ZM13.6644 13.3902C13.6644 13.6574 13.4478 13.874 13.1806 13.874C12.9134 13.874 12.6968 13.6574 12.6968 13.3902V12.7338C12.6968 12.4666 12.9134 12.25 13.1806 12.25C13.4478 12.25 13.6644 12.4666 13.6644 12.7338V13.3902ZM13.6644 10.8996C13.6644 11.1668 13.4478 11.3834 13.1806 11.3834C12.9134 11.3834 12.6968 11.1668 12.6968 10.8996V6.60958C12.6968 6.34238 12.9134 6.12578 13.1806 6.12578C13.4478 6.12578 13.6644 6.34238 13.6644 6.60958V10.8996ZM15.7848 13.3902C15.7848 13.6574 15.5682 13.874 15.301 13.874C15.0338 13.874 14.8172 13.6574 14.8172 13.3902V6.60938C14.8172 6.34218 15.0338 6.12558 15.301 6.12558C15.5682 6.12558 15.7848 6.34218 15.7848 6.60938V13.3902Z" fill="#28519E"/>
</g>
</svg>
