<svg width="20" height="21" viewBox="0 0 20 21" fill="none" xmlns="http://www.w3.org/2000/svg">
<g id="laptop-solid 2">
<path id="Vector" d="M8.33317 3.8335C7.44912 3.8335 6.60127 4.18469 5.97615 4.80981C5.35103 5.43493 4.99984 6.28277 4.99984 7.16683C4.99984 8.05088 5.35103 8.89873 5.97615 9.52385C6.60127 10.149 7.44912 10.5002 8.33317 10.5002C9.21723 10.5002 10.0651 10.149 10.6902 9.52385C11.3153 8.89873 11.6665 8.05088 11.6665 7.16683C11.6665 6.28277 11.3153 5.43493 10.6902 4.80981C10.0651 4.18469 9.21723 3.8335 8.33317 3.8335ZM14.5832 11.3335C12.4998 11.3335 10.8332 13.0002 10.8332 15.0835C10.8332 17.1668 12.4998 18.8335 14.5832 18.8335C16.6665 18.8335 18.3332 17.1668 18.3332 15.0835C18.3332 13.0002 16.6665 11.3335 14.5832 11.3335ZM8.33317 12.1668C4.64984 12.1668 1.6665 13.6585 1.6665 15.5002V17.1668H9.58317C9.30812 16.5067 9.1665 15.7986 9.1665 15.0835C9.17007 14.0954 9.44384 13.1272 9.95817 12.2835C9.43317 12.2168 8.89984 12.1668 8.33317 12.1668ZM14.5832 12.5835C15.9665 12.5835 17.0832 13.7002 17.0832 15.0835C17.0832 15.5502 16.9582 15.9835 16.7332 16.3335L13.3332 12.9335C13.6832 12.7085 14.1165 12.5835 14.5832 12.5835ZM12.4332 13.8335L15.8332 17.2335C15.4832 17.4585 15.0498 17.5835 14.5832 17.5835C13.1998 17.5835 12.0832 16.4668 12.0832 15.0835C12.0832 14.6168 12.2082 14.1835 12.4332 13.8335Z" fill="#DC8633"/>
</g>
</svg>
