<svg width="342" height="67" viewBox="0 0 342 67" fill="none" xmlns="http://www.w3.org/2000/svg">
<g clip-path="url(#clip0_208_2006)">
<path d="M252.677 9.19842C252.677 8.29326 252.945 7.40843 253.448 6.65581C253.951 5.9032 254.666 5.31661 255.502 4.97022C256.338 4.62383 257.258 4.5332 258.146 4.70978C259.034 4.88637 259.849 5.32225 260.489 5.96229C261.13 6.60234 261.565 7.41781 261.742 8.30557C261.919 9.19334 261.828 10.1135 261.482 10.9498C261.135 11.7861 260.549 12.5008 259.796 13.0037C259.043 13.5066 258.158 13.775 257.253 13.775C256.044 13.7611 254.888 13.2745 254.033 12.4192C253.177 11.5639 252.691 10.4079 252.677 9.19842Z" fill="#FBB516"/>
<path d="M197.018 9.19842C197.033 7.98955 197.521 6.83464 198.376 5.97977C199.23 5.1249 200.385 4.63765 201.594 4.62185C202.814 4.62185 203.984 5.10643 204.846 5.96899C205.709 6.83156 206.194 8.00145 206.194 9.2213C206.194 10.4411 205.709 11.611 204.846 12.4736C203.984 13.3362 202.814 13.8208 201.594 13.8208C200.377 13.8047 199.216 13.3112 198.36 12.4465C197.503 11.5818 197.021 10.4152 197.018 9.19842Z" fill="#FBB516"/>
<path d="M119.536 9.19842C119.552 7.98955 120.039 6.83464 120.894 5.97977C121.749 5.1249 122.904 4.63765 124.113 4.62185C125.333 4.62185 126.503 5.10643 127.365 5.96899C128.228 6.83156 128.712 8.00145 128.712 9.2213C128.712 10.4411 128.228 11.611 127.365 12.4736C126.503 13.3362 125.333 13.8208 124.113 13.8208C122.896 13.8047 121.735 13.3112 120.878 12.4465C120.022 11.5818 119.54 10.4152 119.536 9.19842Z" fill="#FBB516"/>
<path d="M127.889 17.9702H120.459V52.1343H127.889V17.9702Z" fill="#012C3D"/>
<path d="M156.202 17.1006C153.923 17.1197 151.673 17.621 149.602 18.5715C147.53 19.522 145.683 20.9001 144.181 22.6154V17.9702H136.752V52.1419H144.181V28.298C145.198 26.9167 146.516 25.7862 148.037 24.9929C149.557 24.1997 151.239 23.7648 152.953 23.7214C157.125 23.7214 159.818 25.491 159.818 30.7998V52.1571H167.247V28.0844C167.24 21.0822 163.578 17.1006 156.202 17.1006Z" fill="#012C3D"/>
<path d="M185.347 17.9701V16.0632C185.347 12.2494 187.186 10.3349 190.084 10.3349C191.13 10.2792 192.169 10.5454 193.059 11.0977L194.684 5.57527C192.848 4.64361 190.807 4.18729 188.749 4.24806C182.457 4.24806 177.926 8.42037 177.926 16.0632V17.9701H172.266V24.4765H177.926V52.1419H185.355V24.4765H197.948V52.1419H205.378V17.9701H185.347Z" fill="#012C3D"/>
<path d="M233.844 17.1006C231.563 17.1206 229.313 17.6222 227.24 18.5726C225.167 19.523 223.318 20.9007 221.815 22.6154V17.9702H214.386V52.1419H221.815V28.298C222.832 26.9171 224.151 25.7869 225.671 24.9937C227.191 24.2005 228.873 23.7653 230.587 23.7214C234.759 23.7214 237.452 25.491 237.452 30.7998V52.1571H244.873V28.0844C244.873 21.0822 241.197 17.1006 233.844 17.1006Z" fill="#012C3D"/>
<path d="M261.021 17.9702H253.592V52.1343H261.021V17.9702Z" fill="#012C3D"/>
<path d="M282.211 46.4059C280.09 46.4059 278.962 44.7126 278.962 42.3786V24.4765H285.895V17.9702H278.962V8.63398H271.532V17.9702H265.873V24.4765H271.532V44.2168C271.532 49.8765 274.583 52.9886 280.304 52.9886C283.767 52.9886 285.964 52.0656 287.306 50.7918L285.537 45.2084C284.62 46.0156 283.431 46.4438 282.211 46.4059Z" fill="#012C3D"/>
<path d="M317.038 17.9702L307.061 43.5761L297.062 17.9702H289.167L303.164 52.5614L301.47 56.4515C300.479 58.7398 298.923 59.4263 296.589 59.4263C295.619 59.415 294.659 59.2236 293.759 58.8618L292.622 65.5055C293.996 65.8091 295.396 65.9752 296.802 66.0013C302.111 65.9174 306.215 64.0944 308.549 58.2898L325.032 17.9702H317.038Z" fill="#012C3D"/>
<path d="M96.0281 15.6285L98.9571 18.8397L105.433 12.9436C102.897 9.29482 99.5189 6.31149 95.5845 4.24668C91.6501 2.18187 87.2756 1.09649 82.8323 1.08263C76.1216 1.06632 69.6569 3.60853 64.7549 8.19157C59.7664 12.7681 56.0289 19.0609 52.3447 25.1554C49.0725 30.6168 45.6858 36.2688 41.5364 40.464C38.2413 43.7973 33.7105 45.4754 28.066 45.4754C23.3343 45.4754 18.7964 43.5957 15.4505 40.2499C12.1047 36.904 10.225 32.3661 10.225 27.6344C10.225 22.9026 12.1047 18.3647 15.4505 15.0189C18.7964 11.673 23.3343 9.79337 28.066 9.79337C36.3878 9.79337 41.9559 15.8955 43.9162 18.4355L48.6835 10.7468C45.843 7.28083 42.1724 4.58918 38.0129 2.92204C33.8533 1.2549 29.3398 0.66638 24.8918 1.21118C20.4438 1.75599 16.2057 3.41643 12.5715 6.03818C8.93724 8.65993 6.02477 12.1579 4.10477 16.207C2.18477 20.256 1.31956 24.7248 1.58956 29.1979C1.85956 33.6709 3.256 38.0032 5.64909 41.7919C8.04218 45.5806 11.3543 48.7029 15.2775 50.8685C19.2007 53.034 23.6077 54.1727 28.0889 54.1785C36.0293 54.1785 42.8179 51.5546 47.7377 46.5509C52.6575 41.5471 56.2653 35.5366 59.8427 29.6328C63.42 23.729 66.616 18.3287 70.6968 14.5911C72.4236 12.9796 74.4532 11.727 76.6679 10.906C78.8826 10.085 81.2383 9.71189 83.5983 9.8084C85.9583 9.9049 88.2757 10.4691 90.4159 11.4681C92.5562 12.4672 94.4768 13.8814 96.0663 15.6285H96.0281Z" fill="#FBB516"/>
<path d="M80.8035 25.3079V34.011H99.5064L99.2776 34.5679C97.9171 37.8063 95.6291 40.5698 92.7014 42.5108C89.7738 44.4517 86.3374 45.4831 82.8248 45.4753C80.5366 45.4753 76.8829 44.7126 72.1462 40.8988C70.5909 39.6532 69.1417 38.2806 67.8137 36.7951L62.9778 44.6744C65.5559 47.7255 72.314 54.1785 82.8096 54.1785C89.4204 54.3087 95.8373 51.9418 100.78 47.5501C104.919 43.9646 107.812 39.1567 109.041 33.8203C109.745 31.0335 109.962 28.1458 109.682 25.285L80.8035 25.3079Z" fill="#FBB516"/>
<path d="M336.519 22.5341C336.519 23.1578 336.401 23.7478 336.165 24.304C335.929 24.8603 335.605 25.3492 335.192 25.7706C334.779 26.1836 334.29 26.5123 333.725 26.7567C333.169 27.0011 332.571 27.1233 331.93 27.1233C331.29 27.1233 330.691 27.0053 330.135 26.7693C329.579 26.5249 329.094 26.1962 328.681 25.7832C328.276 25.3702 327.956 24.8856 327.72 24.3293C327.484 23.7731 327.366 23.1831 327.366 22.5594C327.366 21.9357 327.484 21.3457 327.72 20.7894C327.956 20.2332 328.281 19.7485 328.694 19.3356C329.107 18.9141 329.591 18.5812 330.148 18.3368C330.712 18.0924 331.315 17.9702 331.955 17.9702C332.596 17.9702 333.194 18.0924 333.751 18.3368C334.307 18.5728 334.787 18.8973 335.192 19.3103C335.605 19.7233 335.929 20.2079 336.165 20.7642C336.401 21.3204 336.519 21.9104 336.519 22.5341ZM336.039 22.5341C336.039 21.9694 335.934 21.4384 335.723 20.9412C335.521 20.4355 335.234 19.9972 334.863 19.6263C334.501 19.2555 334.071 18.9647 333.574 18.754C333.076 18.5349 332.537 18.4253 331.955 18.4253C331.374 18.4253 330.83 18.5349 330.325 18.754C329.827 18.9731 329.393 19.2681 329.022 19.639C328.66 20.0098 328.373 20.4481 328.163 20.9538C327.952 21.4595 327.847 21.9947 327.847 22.5594C327.847 23.1325 327.948 23.6677 328.15 24.165C328.361 24.6623 328.647 25.0963 329.01 25.4672C329.381 25.838 329.815 26.133 330.312 26.3521C330.809 26.5628 331.349 26.6682 331.93 26.6682C332.512 26.6682 333.051 26.5586 333.548 26.3395C334.054 26.1203 334.488 25.8254 334.851 25.4545C335.221 25.0837 335.512 24.6496 335.723 24.1523C335.934 23.6466 336.039 23.1072 336.039 22.5341ZM334.079 21.548C334.079 21.9441 333.974 22.2644 333.763 22.5088C333.561 22.7448 333.296 22.9092 332.967 23.0019L334.256 24.8097H333.169L332.006 23.1536H331.007V24.8097H330.097V20.0183H332.234C332.79 20.0183 333.237 20.1531 333.574 20.4228C333.911 20.6925 334.079 21.0676 334.079 21.548ZM333.144 21.5986C333.144 21.3541 333.06 21.1687 332.891 21.0423C332.722 20.9074 332.491 20.84 332.196 20.84H331.007V22.3571H332.196C332.491 22.3571 332.722 22.2897 332.891 22.1548C333.06 22.02 333.144 21.8346 333.144 21.5986Z" fill="#012C3D"/>
</g>
<defs>
<clipPath id="clip0_208_2006">
<rect width="340.192" height="66.3603" fill="white" transform="translate(0.904053 0.319859)"/>
</clipPath>
</defs>
</svg>
