<svg width="1440" height="1024" viewBox="0 0 1440 1024" fill="none" xmlns="http://www.w3.org/2000/svg">
<g clip-path="url(#clip0_498_6405)">
<rect width="1440" height="1024" fill="white"/>
<path d="M1233.5 -138.5C1233.5 6.51996 1154.06 142.261 1016.76 243.698C879.478 345.123 687.232 409.5 472.5 409.5C257.768 409.5 65.5216 345.123 -71.7603 243.698C-209.057 142.261 -288.5 6.51996 -288.5 -138.5C-288.5 -283.52 -209.057 -419.261 -71.7603 -520.698C65.5216 -622.123 257.768 -686.5 472.5 -686.5C687.232 -686.5 879.478 -622.123 1016.76 -520.698C1154.06 -419.261 1233.5 -283.52 1233.5 -138.5Z" stroke="#002C3F" stroke-width="109"/>
<path d="M1840.5 992.5C1840.5 1137.52 1761.06 1273.26 1623.76 1374.7C1486.48 1476.12 1294.23 1540.5 1079.5 1540.5C864.768 1540.5 672.522 1476.12 535.24 1374.7C397.943 1273.26 318.5 1137.52 318.5 992.5C318.5 847.48 397.943 711.739 535.24 610.302C672.522 508.877 864.768 444.5 1079.5 444.5C1294.23 444.5 1486.48 508.877 1623.76 610.302C1761.06 711.739 1840.5 847.48 1840.5 992.5Z" stroke="#FFB81C" stroke-width="109"/>
</g>
<defs>
<clipPath id="clip0_498_6405">
<rect width="1440" height="1024" fill="white"/>
</clipPath>
</defs>
</svg>
