<svg xmlns="http://www.w3.org/2000/svg" width="22" height="20" viewBox="0 0 22 20" fill="none">
<path d="M6.04914 1.4998C4.67914 2.8798 4.67914 5.0998 6.04914 6.4698L14.5391 14.9498C15.1191 15.5398 15.1191 16.4998 14.5391 17.0698C13.9491 17.6598 12.9991 17.6598 12.4091 17.0698L8.16914 12.8298L9.22914 11.7698L5.69914 8.2298L5.33914 8.5898L3.92914 7.1698C3.53914 6.7798 2.90914 6.7798 2.49914 7.1698L1.09914 8.5898C0.709141 8.9998 0.709141 9.6098 1.09914 9.9998L2.49914 11.4098L2.15914 11.7698L5.69914 15.2998L6.75914 14.2398L10.9991 18.4998C12.3691 19.8498 14.5791 19.8498 15.9491 18.4998C17.3191 17.1198 17.3191 14.8998 15.9491 13.5398L7.45914 5.0498C6.87914 4.4598 6.87914 3.4998 7.45914 2.9298C8.04914 2.3398 8.99914 2.3398 9.58914 2.9298L13.8291 7.1698L12.7691 8.2298L16.2991 11.7698L16.6591 11.4098L18.0691 12.8298C18.4591 13.2198 19.0991 13.2198 19.4991 12.8298L20.8991 11.4098C21.2891 10.9998 21.2891 10.3898 20.8991 9.9998L19.4991 8.5898L19.8391 8.2298L16.2991 4.6998L15.2391 5.7598L10.9991 1.4998C9.62914 0.149805 7.41914 0.149805 6.04914 1.4998ZM1.80914 9.2898L3.21914 7.8798L4.63914 9.2898L3.21914 10.7098M17.3591 10.7098L18.7791 9.2898L20.1891 10.7098L18.7791 12.1198L17.3591 10.7098Z" fill="#ffffff"/>
</svg>