<svg xmlns="http://www.w3.org/2000/svg" width="18" height="18" viewBox="0 0 18 18" fill="none">
<path fill-rule="evenodd" clip-rule="evenodd" d="M6.35138 1.81892e-06C6.0707 -0.000335809 5.80138 0.110825 5.60265 0.309037C5.40392 0.507248 5.29206 0.776278 5.29167 1.05696V5.99722C5.29206 6.2779 5.40392 6.54693 5.60265 6.74514C5.80138 6.94336 6.0707 7.05452 6.35138 7.05418H8.11458V8.11458H3.52847C3.34135 8.1146 3.1619 8.18894 3.02958 8.32125C2.89727 8.45357 2.82293 8.63302 2.82291 8.82013V10.5833H1.05971C0.779032 10.583 0.509712 10.6942 0.310984 10.8924C0.112255 11.0906 0.00039326 11.3596 0 11.6403V16.5806C0.00039326 16.8612 0.112255 17.1303 0.310984 17.3285C0.509712 17.5267 0.779032 17.6378 1.05971 17.6375H5.99722C6.13626 17.6378 6.27398 17.6106 6.40253 17.5576C6.53107 17.5047 6.64792 17.4269 6.74639 17.3287C6.84487 17.2306 6.92304 17.114 6.97644 16.9856C7.02984 16.8572 7.05743 16.7196 7.05762 16.5806V11.6403C7.05743 11.5013 7.02984 11.3636 6.97644 11.2352C6.92304 11.1069 6.84487 10.9903 6.74639 10.8921C6.64792 10.794 6.53107 10.7162 6.40253 10.6632C6.27398 10.6102 6.13626 10.5831 5.99722 10.5833H4.23471V9.52569H8.11458H9.52638H13.4062V10.5833H11.643C11.3624 10.583 11.093 10.6942 10.8943 10.8924C10.6956 11.0906 10.5837 11.3596 10.5833 11.6403V16.5806C10.5837 16.8612 10.6956 17.1303 10.8943 17.3285C11.093 17.5267 11.3624 17.6378 11.643 17.6375H16.5806C16.7196 17.6378 16.8573 17.6106 16.9859 17.5576C17.1144 17.5047 17.2313 17.4269 17.3297 17.3287C17.4282 17.2306 17.5064 17.114 17.5598 16.9856C17.6132 16.8572 17.6408 16.7196 17.641 16.5806V11.6403C17.6408 11.5013 17.6132 11.3636 17.5598 11.2352C17.5064 11.1069 17.4282 10.9903 17.3297 10.8921C17.2313 10.794 17.1144 10.7162 16.9859 10.6632C16.8573 10.6102 16.7196 10.5831 16.5806 10.5833H14.818V8.82013C14.818 8.72742 14.7998 8.63562 14.7643 8.54998C14.7287 8.46434 14.6767 8.38653 14.6111 8.32101C14.5455 8.25548 14.4677 8.20353 14.382 8.16811C14.2963 8.13269 14.2045 8.1145 14.1118 8.11458H9.52638V7.05418H11.2889C11.4279 7.05444 11.5656 7.0273 11.6942 6.97432C11.8227 6.92133 11.9396 6.84354 12.0381 6.74539C12.1365 6.64723 12.2147 6.53064 12.2681 6.40227C12.3215 6.2739 12.3491 6.13626 12.3493 5.99722V1.05696C12.3491 0.917921 12.3215 0.780285 12.2681 0.651912C12.2147 0.52354 12.1365 0.406947 12.0381 0.308793C11.9396 0.210639 11.8227 0.132849 11.6942 0.0798655C11.5656 0.0268821 11.4279 -0.000255931 11.2889 1.81892e-06H6.35138Z" fill="#ffffff"/>
</svg>